<?xml version="1.0" encoding="UTF-8"?><svg xmlns="http://www.w3.org/2000/svg" xmlns:xlink="http://www.w3.org/1999/xlink" fill-opacity="1" color-rendering="auto" color-interpolation="auto" text-rendering="auto" stroke="black" stroke-linecap="square" width="485" stroke-miterlimit="10" shape-rendering="auto" stroke-opacity="1" fill="black" stroke-dasharray="none" font-weight="normal" stroke-width="1" height="258" font-family="'Dialog'" font-style="normal" stroke-linejoin="miter" font-size="12px" stroke-dashoffset="0" image-rendering="auto">
  <!--Generated by ySVG 2.6-->
  <defs id="genericDefs"/>
  <g>
    <defs id="defs1">
      <clipPath clipPathUnits="userSpaceOnUse" id="clipPath1">
        <path d="M0 0 L485 0 L485 258 L0 258 L0 0 Z"/>
      </clipPath>
      <clipPath clipPathUnits="userSpaceOnUse" id="clipPath2">
        <path d="M228 441 L713 441 L713 699 L228 699 L228 441 Z"/>
      </clipPath>
    </defs>
    <g fill="white" text-rendering="geometricPrecision" shape-rendering="geometricPrecision" transform="translate(-228,-441)" stroke="white">
      <rect x="228" width="485" height="258" y="441" clip-path="url(#clipPath2)" stroke="none"/>
    </g>
    <g fill="rgb(255,204,0)" text-rendering="geometricPrecision" shape-rendering="geometricPrecision" transform="matrix(1,0,0,1,-228,-441)" stroke="rgb(255,204,0)">
      <ellipse rx="33" ry="15" clip-path="url(#clipPath2)" cx="276" cy="546" stroke="none"/>
    </g>
    <g text-rendering="geometricPrecision" stroke-miterlimit="1.45" shape-rendering="geometricPrecision" transform="matrix(1,0,0,1,-228,-441)" stroke-linecap="butt">
      <ellipse rx="33" fill="none" ry="15" clip-path="url(#clipPath2)" cx="276" cy="546"/>
      <text x="261.7383" xml:space="preserve" y="550.1543" clip-path="url(#clipPath2)" font-family="sans-serif" stroke="none">Aitor</text>
    </g>
    <g fill="rgb(255,204,0)" text-rendering="geometricPrecision" shape-rendering="geometricPrecision" transform="matrix(1,0,0,1,-228,-441)" stroke="rgb(255,204,0)">
      <ellipse rx="33" ry="15" clip-path="url(#clipPath2)" cx="490" cy="546" stroke="none"/>
    </g>
    <g text-rendering="geometricPrecision" stroke-miterlimit="1.45" shape-rendering="geometricPrecision" transform="matrix(1,0,0,1,-228,-441)" stroke-linecap="butt">
      <ellipse rx="33" fill="none" ry="15" clip-path="url(#clipPath2)" cx="490" cy="546"/>
      <text x="476.4619" xml:space="preserve" y="550.1543" clip-path="url(#clipPath2)" font-family="sans-serif" stroke="none">Unai</text>
    </g>
    <g fill="rgb(255,204,0)" text-rendering="geometricPrecision" shape-rendering="geometricPrecision" transform="matrix(1,0,0,1,-228,-441)" stroke="rgb(255,204,0)">
      <ellipse rx="33" ry="15" clip-path="url(#clipPath2)" cx="490" cy="669" stroke="none"/>
    </g>
    <g text-rendering="geometricPrecision" stroke-miterlimit="1.45" shape-rendering="geometricPrecision" transform="matrix(1,0,0,1,-228,-441)" stroke-linecap="butt">
      <ellipse rx="33" fill="none" ry="15" clip-path="url(#clipPath2)" cx="490" cy="669"/>
      <text x="477.3057" xml:space="preserve" y="673.1543" clip-path="url(#clipPath2)" font-family="sans-serif" stroke="none">EHU</text>
    </g>
    <g fill="rgb(255,204,0)" text-rendering="geometricPrecision" shape-rendering="geometricPrecision" transform="matrix(1,0,0,1,-228,-441)" stroke="rgb(255,204,0)">
      <ellipse rx="33" ry="15" clip-path="url(#clipPath2)" cx="383" cy="601" stroke="none"/>
    </g>
    <g text-rendering="geometricPrecision" stroke-miterlimit="1.45" shape-rendering="geometricPrecision" transform="matrix(1,0,0,1,-228,-441)" stroke-linecap="butt">
      <ellipse rx="33" fill="none" ry="15" clip-path="url(#clipPath2)" cx="383" cy="601"/>
      <text x="368.0703" xml:space="preserve" y="605.1543" clip-path="url(#clipPath2)" font-family="sans-serif" stroke="none">Bilbo</text>
    </g>
    <g fill="rgb(255,204,0)" text-rendering="geometricPrecision" shape-rendering="geometricPrecision" transform="matrix(1,0,0,1,-228,-441)" stroke="rgb(255,204,0)">
      <ellipse rx="33" ry="15" clip-path="url(#clipPath2)" cx="665" cy="669" stroke="none"/>
    </g>
    <g text-rendering="geometricPrecision" stroke-miterlimit="1.45" shape-rendering="geometricPrecision" transform="matrix(1,0,0,1,-228,-441)" stroke-linecap="butt">
      <ellipse rx="33" fill="none" ry="15" clip-path="url(#clipPath2)" cx="665" cy="669"/>
      <text x="657.3652" xml:space="preserve" y="673.1543" clip-path="url(#clipPath2)" font-family="sans-serif" stroke="none">30</text>
      <path fill="none" d="M290.4983 532.5483 L302.75 522.5938 L316.125 513.3984 L329.5 505.875 L342.875 500.0234 L356.25 495.8438 L369.625 493.3359 L383 492.5 L396.375 493.3359 L409.75 495.8438 L423.125 500.0234 L436.5 505.875 L449.875 513.3984 L463.25 522.5938 L469.2928 527.5035" clip-path="url(#clipPath2)"/>
      <path d="M475.5017 532.5483 L469.3413 521.1006 L468.5167 526.8729 L463.0354 528.8618 Z" clip-path="url(#clipPath2)" stroke="none"/>
      <text x="350.6021" xml:space="preserve" y="469.8215" clip-path="url(#clipPath2)" font-family="sans-serif" stroke="none">knows</text>
      <path fill="none" d="M502.1958 559.938 L503.4531 561.375 L513.0625 576.75 L518.8281 592.125 L520.75 607.5 L518.8281 622.875 L513.0625 638.25 L506.691 648.4443 L506.6252 648.5196" clip-path="url(#clipPath2)"/>
      <path d="M502.1402 655.1442 L513.0081 648.0105 L507.1858 647.6915 L504.7274 642.4042 Z" clip-path="url(#clipPath2)" stroke="none"/>
      <text x="454.3736" xml:space="preserve" y="602.1047" clip-path="url(#clipPath2)" font-family="sans-serif" stroke="none">works-for</text>
      <path fill="none" d="M457.6903 672.1166 L450.5 672.0625 L433.9375 668.5781 L419.5 661.75 L407.1875 651.5781 L397 638.0625 L389.9993 623.4233 L389.9711 623.3274" clip-path="url(#clipPath2)"/>
      <path d="M387.3366 615.7736 L386.5672 628.7509 L390.3004 624.2717 L396.0094 625.4578 Z" clip-path="url(#clipPath2)" stroke="none"/>
      <text x="411.5181" xml:space="preserve" y="637.9899" clip-path="url(#clipPath2)" font-family="sans-serif" stroke="none">located-in</text>
      <path fill="none" d="M522.0726 542.4615 L525.3281 542.2344 L541.5508 542.4023 L556.8125 543.9375 L571.1133 546.8398 L584.4531 551.1094 L596.832 556.7461 L608.25 563.75 L618.707 572.1211 L628.2031 581.8594 L636.7383 592.9648 L644.3125 605.4375 L650.9258 619.2773 L656.5781 634.4844 L659.9261 646.3126 L659.9465 646.4105" clip-path="url(#clipPath2)"/>
      <path d="M661.9196 654.1633 L663.8055 641.3008 L659.7 645.4413 L654.1145 643.7672 Z" clip-path="url(#clipPath2)" stroke="none"/>
      <text x="577.7861" xml:space="preserve" y="595.3453" clip-path="url(#clipPath2)" font-family="sans-serif" stroke="none">age</text>
    </g>
  </g>
</svg>
