<?xml version="1.0" encoding="UTF-8"?><svg xmlns="http://www.w3.org/2000/svg" xmlns:xlink="http://www.w3.org/1999/xlink" fill-opacity="1" color-rendering="auto" color-interpolation="auto" text-rendering="auto" stroke="black" stroke-linecap="square" width="485" stroke-miterlimit="10" shape-rendering="auto" stroke-opacity="1" fill="black" stroke-dasharray="none" font-weight="normal" stroke-width="1" height="402" font-family="'Dialog'" font-style="normal" stroke-linejoin="miter" font-size="12px" stroke-dashoffset="0" image-rendering="auto">
  <!--Generated by ySVG 2.6-->
  <defs id="genericDefs"/>
  <g>
    <defs id="defs1">
      <clipPath clipPathUnits="userSpaceOnUse" id="clipPath1">
        <path d="M0 0 L485 0 L485 402 L0 402 L0 0 Z"/>
      </clipPath>
      <clipPath clipPathUnits="userSpaceOnUse" id="clipPath2">
        <path d="M203 197 L688 197 L688 599 L203 599 L203 197 Z"/>
      </clipPath>
    </defs>
    <g fill="white" text-rendering="geometricPrecision" shape-rendering="geometricPrecision" transform="translate(-203,-197)" stroke="white">
      <rect x="203" width="485" height="402" y="197" clip-path="url(#clipPath2)" stroke="none"/>
    </g>
    <g fill="rgb(255,204,0)" text-rendering="geometricPrecision" shape-rendering="geometricPrecision" transform="matrix(1,0,0,1,-203,-197)" stroke="rgb(255,204,0)">
      <ellipse rx="33" ry="15" clip-path="url(#clipPath2)" cx="251" cy="302" stroke="none"/>
    </g>
    <g text-rendering="geometricPrecision" stroke-miterlimit="1.45" shape-rendering="geometricPrecision" transform="matrix(1,0,0,1,-203,-197)" stroke-linecap="butt">
      <ellipse rx="33" fill="none" ry="15" clip-path="url(#clipPath2)" cx="251" cy="302"/>
      <text x="235.3613" xml:space="preserve" y="306.1543" clip-path="url(#clipPath2)" font-family="sans-serif" stroke="none">Nodo</text>
    </g>
    <g fill="rgb(255,204,0)" text-rendering="geometricPrecision" shape-rendering="geometricPrecision" transform="matrix(1,0,0,1,-203,-197)" stroke="rgb(255,204,0)">
      <ellipse rx="33" ry="15" clip-path="url(#clipPath2)" cx="465" cy="302" stroke="none"/>
    </g>
    <g text-rendering="geometricPrecision" stroke-miterlimit="1.45" shape-rendering="geometricPrecision" transform="matrix(1,0,0,1,-203,-197)" stroke-linecap="butt">
      <ellipse rx="33" fill="none" ry="15" clip-path="url(#clipPath2)" cx="465" cy="302"/>
      <text x="449.3613" xml:space="preserve" y="306.1543" clip-path="url(#clipPath2)" font-family="sans-serif" stroke="none">Nodo</text>
    </g>
    <g fill="rgb(255,204,0)" text-rendering="geometricPrecision" shape-rendering="geometricPrecision" transform="matrix(1,0,0,1,-203,-197)" stroke="rgb(255,204,0)">
      <ellipse rx="33" ry="15" clip-path="url(#clipPath2)" cx="251" cy="446" stroke="none"/>
    </g>
    <g text-rendering="geometricPrecision" stroke-miterlimit="1.45" shape-rendering="geometricPrecision" transform="matrix(1,0,0,1,-203,-197)" stroke-linecap="butt">
      <ellipse rx="33" fill="none" ry="15" clip-path="url(#clipPath2)" cx="251" cy="446"/>
      <text x="235.3613" xml:space="preserve" y="450.1543" clip-path="url(#clipPath2)" font-family="sans-serif" stroke="none">Nodo</text>
    </g>
    <g fill="rgb(255,204,0)" text-rendering="geometricPrecision" shape-rendering="geometricPrecision" transform="matrix(1,0,0,1,-203,-197)" stroke="rgb(255,204,0)">
      <ellipse rx="33" ry="15" clip-path="url(#clipPath2)" cx="465" cy="446" stroke="none"/>
    </g>
    <g text-rendering="geometricPrecision" stroke-miterlimit="1.45" shape-rendering="geometricPrecision" transform="matrix(1,0,0,1,-203,-197)" stroke-linecap="butt">
      <ellipse rx="33" fill="none" ry="15" clip-path="url(#clipPath2)" cx="465" cy="446"/>
      <text x="449.3613" xml:space="preserve" y="450.1543" clip-path="url(#clipPath2)" font-family="sans-serif" stroke="none">Nodo</text>
    </g>
    <g fill="rgb(255,204,0)" text-rendering="geometricPrecision" shape-rendering="geometricPrecision" transform="matrix(1,0,0,1,-203,-197)" stroke="rgb(255,204,0)">
      <ellipse rx="33" ry="15" clip-path="url(#clipPath2)" cx="465" cy="569" stroke="none"/>
    </g>
    <g text-rendering="geometricPrecision" stroke-miterlimit="1.45" shape-rendering="geometricPrecision" transform="matrix(1,0,0,1,-203,-197)" stroke-linecap="butt">
      <ellipse rx="33" fill="none" ry="15" clip-path="url(#clipPath2)" cx="465" cy="569"/>
      <text x="449.3613" xml:space="preserve" y="573.1543" clip-path="url(#clipPath2)" font-family="sans-serif" stroke="none">Nodo</text>
    </g>
    <g fill="rgb(255,204,0)" text-rendering="geometricPrecision" shape-rendering="geometricPrecision" transform="matrix(1,0,0,1,-203,-197)" stroke="rgb(255,204,0)">
      <ellipse rx="33" ry="15" clip-path="url(#clipPath2)" cx="358" cy="501" stroke="none"/>
    </g>
    <g text-rendering="geometricPrecision" stroke-miterlimit="1.45" shape-rendering="geometricPrecision" transform="matrix(1,0,0,1,-203,-197)" stroke-linecap="butt">
      <ellipse rx="33" fill="none" ry="15" clip-path="url(#clipPath2)" cx="358" cy="501"/>
      <text x="342.3613" xml:space="preserve" y="505.1543" clip-path="url(#clipPath2)" font-family="sans-serif" stroke="none">Nodo</text>
    </g>
    <g fill="rgb(255,204,0)" text-rendering="geometricPrecision" shape-rendering="geometricPrecision" transform="matrix(1,0,0,1,-203,-197)" stroke="rgb(255,204,0)">
      <ellipse rx="33" ry="15" clip-path="url(#clipPath2)" cx="640" cy="569" stroke="none"/>
    </g>
    <g text-rendering="geometricPrecision" stroke-miterlimit="1.45" shape-rendering="geometricPrecision" transform="matrix(1,0,0,1,-203,-197)" stroke-linecap="butt">
      <ellipse rx="33" fill="none" ry="15" clip-path="url(#clipPath2)" cx="640" cy="569"/>
      <text x="624.3613" xml:space="preserve" y="573.1543" clip-path="url(#clipPath2)" font-family="sans-serif" stroke="none">Nodo</text>
      <path fill="none" d="M265.4983 288.5483 L277.75 278.5938 L291.125 269.3984 L304.5 261.875 L317.875 256.0234 L331.25 251.8438 L344.625 249.3359 L358 248.5 L371.375 249.3359 L384.75 251.8438 L398.125 256.0234 L411.5 261.875 L424.875 269.3984 L438.25 278.5938 L444.2928 283.5035" clip-path="url(#clipPath2)"/>
      <path d="M450.5017 288.5483 L444.3413 277.1006 L443.5167 282.873 L438.0354 284.8618 Z" clip-path="url(#clipPath2)" stroke="none"/>
      <text x="314.3668" xml:space="preserve" y="225.8215" clip-path="url(#clipPath2)" font-family="sans-serif" stroke="none">Propiedad</text>
      <path fill="none" d="M265.4983 432.5483 L277.75 422.5938 L291.125 413.3984 L304.5 405.875 L317.875 400.0234 L331.25 395.8438 L344.625 393.3359 L358 392.5 L371.375 393.3359 L384.75 395.8438 L398.125 400.0234 L411.5 405.875 L424.875 413.3984 L438.25 422.5938 L444.2928 427.5035" clip-path="url(#clipPath2)"/>
      <path d="M450.5017 432.5483 L444.3413 421.1006 L443.5167 426.873 L438.0354 428.8618 Z" clip-path="url(#clipPath2)" stroke="none"/>
      <text x="314.3668" xml:space="preserve" y="369.8215" clip-path="url(#clipPath2)" font-family="sans-serif" stroke="none">Propiedad</text>
      <path fill="none" d="M477.1958 459.938 L478.4531 461.375 L488.0625 476.75 L493.8281 492.125 L495.75 507.5 L493.8281 522.875 L488.0625 538.25 L481.691 548.4443 L481.6252 548.5196" clip-path="url(#clipPath2)"/>
      <path d="M477.1402 555.1442 L488.0081 548.0105 L482.1858 547.6915 L479.7274 542.4042 Z" clip-path="url(#clipPath2)" stroke="none"/>
      <text x="427.2174" xml:space="preserve" y="502.1047" clip-path="url(#clipPath2)" font-family="sans-serif" stroke="none">Propiedad</text>
      <path fill="none" d="M432.6903 572.1166 L425.5 572.0625 L408.9375 568.5781 L394.5 561.75 L382.1875 551.5781 L372 538.0625 L364.9993 523.4233 L364.9711 523.3274" clip-path="url(#clipPath2)"/>
      <path d="M362.3366 515.7736 L361.5672 528.7509 L365.3004 524.2717 L371.0094 525.4578 Z" clip-path="url(#clipPath2)" stroke="none"/>
      <text x="386.1021" xml:space="preserve" y="537.9899" clip-path="url(#clipPath2)" font-family="sans-serif" stroke="none">Propiedad</text>
      <path fill="none" d="M497.0726 442.4616 L500.3281 442.2344 L516.5508 442.4023 L531.8125 443.9375 L546.1133 446.8398 L559.4531 451.1094 L571.832 456.7461 L583.25 463.75 L593.707 472.1211 L603.2031 481.8594 L611.7383 492.9648 L619.3125 505.4375 L625.9258 519.2773 L631.5781 534.4844 L634.9261 546.3126 L634.9465 546.4105" clip-path="url(#clipPath2)"/>
      <path d="M636.9196 554.1633 L638.8055 541.3008 L634.7 545.4413 L629.1145 543.7672 Z" clip-path="url(#clipPath2)" stroke="none"/>
      <text x="533.7461" xml:space="preserve" y="495.3453" clip-path="url(#clipPath2)" font-family="sans-serif" stroke="none">Propiedad</text>
    </g>
  </g>
</svg>
