<?xml version="1.0" encoding="UTF-8"?><svg xmlns="http://www.w3.org/2000/svg" xmlns:xlink="http://www.w3.org/1999/xlink" fill-opacity="1" color-rendering="auto" color-interpolation="auto" text-rendering="auto" stroke="black" stroke-linecap="square" width="737" stroke-miterlimit="10" shape-rendering="auto" stroke-opacity="1" fill="black" stroke-dasharray="none" font-weight="normal" stroke-width="1" height="417" font-family="'Dialog'" font-style="normal" stroke-linejoin="miter" font-size="12px" stroke-dashoffset="0" image-rendering="auto">
  <!--Generated by ySVG 2.6-->
  <defs id="genericDefs"/>
  <g>
    <defs id="defs1">
      <clipPath clipPathUnits="userSpaceOnUse" id="clipPath1">
        <path d="M0 0 L737 0 L737 417 L0 417 L0 0 Z"/>
      </clipPath>
      <clipPath clipPathUnits="userSpaceOnUse" id="clipPath2">
        <path d="M175 219 L912 219 L912 636 L175 636 L175 219 Z"/>
      </clipPath>
    </defs>
    <g fill="white" text-rendering="geometricPrecision" shape-rendering="geometricPrecision" transform="translate(-175,-219)" stroke="white">
      <rect x="175" width="737" height="417" y="219" clip-path="url(#clipPath2)" stroke="none"/>
    </g>
    <g fill="rgb(255,204,0)" text-rendering="geometricPrecision" shape-rendering="geometricPrecision" transform="matrix(1,0,0,1,-175,-219)" stroke="rgb(255,204,0)">
      <ellipse rx="69" ry="15" clip-path="url(#clipPath2)" cx="259.0164" cy="376.2829" stroke="none"/>
    </g>
    <g text-rendering="geometricPrecision" stroke-miterlimit="1.45" shape-rendering="geometricPrecision" transform="matrix(1,0,0,1,-175,-219)" stroke-linecap="butt">
      <ellipse rx="69" fill="none" ry="15" clip-path="url(#clipPath2)" cx="259.0164" cy="376.2829"/>
      <text x="243.3396" xml:space="preserve" y="380.4372" clip-path="url(#clipPath2)" font-family="sans-serif" stroke="none">Mikel</text>
    </g>
    <g fill="rgb(255,204,0)" text-rendering="geometricPrecision" shape-rendering="geometricPrecision" transform="matrix(1,0,0,1,-175,-219)" stroke="rgb(255,204,0)">
      <ellipse rx="69" ry="15" clip-path="url(#clipPath2)" cx="576.3891" cy="376.2829" stroke="none"/>
    </g>
    <g text-rendering="geometricPrecision" stroke-miterlimit="1.45" shape-rendering="geometricPrecision" transform="matrix(1,0,0,1,-175,-219)" stroke-linecap="butt">
      <ellipse rx="69" fill="none" ry="15" clip-path="url(#clipPath2)" cx="576.3891" cy="376.2829"/>
      <text x="561.4594" xml:space="preserve" y="380.4372" clip-path="url(#clipPath2)" font-family="sans-serif" stroke="none">Bilbo</text>
    </g>
    <g fill="rgb(255,204,0)" text-rendering="geometricPrecision" shape-rendering="geometricPrecision" transform="matrix(1,0,0,1,-175,-219)" stroke="rgb(255,204,0)">
      <ellipse rx="69" ry="15" clip-path="url(#clipPath2)" cx="827.1998" cy="312.4401" stroke="none"/>
    </g>
    <g text-rendering="geometricPrecision" stroke-miterlimit="1.45" shape-rendering="geometricPrecision" transform="matrix(1,0,0,1,-175,-219)" stroke-linecap="butt">
      <ellipse rx="69" fill="none" ry="15" clip-path="url(#clipPath2)" cx="827.1998" cy="312.4401"/>
      <text x="805.7721" xml:space="preserve" y="316.5944" clip-path="url(#clipPath2)" font-family="sans-serif" stroke="none">Bizkaia</text>
    </g>
    <g fill="rgb(255,204,0)" text-rendering="geometricPrecision" shape-rendering="geometricPrecision" transform="matrix(1,0,0,1,-175,-219)" stroke="rgb(255,204,0)">
      <rect x="820.7396" width="56.7012" height="30" y="423.5812" clip-path="url(#clipPath2)" stroke="none"/>
    </g>
    <g text-rendering="geometricPrecision" stroke-miterlimit="1.45" shape-rendering="geometricPrecision" transform="matrix(1,0,0,1,-175,-219)" stroke-linecap="butt">
      <rect fill="none" x="820.7396" width="56.7012" height="30" y="423.5812" clip-path="url(#clipPath2)"/>
      <text x="826.186" xml:space="preserve" y="442.7355" clip-path="url(#clipPath2)" font-family="sans-serif" stroke="none">400000</text>
    </g>
    <g fill="rgb(255,204,0)" text-rendering="geometricPrecision" shape-rendering="geometricPrecision" transform="matrix(1,0,0,1,-175,-219)" stroke="rgb(255,204,0)">
      <ellipse rx="69" ry="15" clip-path="url(#clipPath2)" cx="259.0164" cy="501.1105" stroke="none"/>
    </g>
    <g text-rendering="geometricPrecision" stroke-miterlimit="1.45" shape-rendering="geometricPrecision" transform="matrix(1,0,0,1,-175,-219)" stroke-linecap="butt">
      <ellipse rx="69" fill="none" ry="15" clip-path="url(#clipPath2)" cx="259.0164" cy="501.1105"/>
      <text x="249.7732" xml:space="preserve" y="505.2648" clip-path="url(#clipPath2)" font-family="sans-serif" stroke="none">Jon</text>
    </g>
    <g fill="rgb(255,204,0)" text-rendering="geometricPrecision" shape-rendering="geometricPrecision" transform="matrix(1,0,0,1,-175,-219)" stroke="rgb(255,204,0)">
      <rect x="244.0164" width="34.6846" height="30" y="252.4187" clip-path="url(#clipPath2)" stroke="none"/>
    </g>
    <g text-rendering="geometricPrecision" stroke-miterlimit="1.45" shape-rendering="geometricPrecision" transform="matrix(1,0,0,1,-175,-219)" stroke-linecap="butt">
      <rect fill="none" x="244.0164" width="34.6846" height="30" y="252.4187" clip-path="url(#clipPath2)"/>
      <text x="253.7239" xml:space="preserve" y="271.573" clip-path="url(#clipPath2)" font-family="sans-serif" stroke="none">45</text>
    </g>
    <g fill="rgb(255,204,0)" text-rendering="geometricPrecision" shape-rendering="geometricPrecision" transform="matrix(1,0,0,1,-175,-219)" stroke="rgb(255,204,0)">
      <rect x="244.0164" width="30" height="30" y="590.2676" clip-path="url(#clipPath2)" stroke="none"/>
    </g>
    <g text-rendering="geometricPrecision" stroke-miterlimit="1.45" shape-rendering="geometricPrecision" transform="matrix(1,0,0,1,-175,-219)" stroke-linecap="butt">
      <rect fill="none" x="244.0164" width="30" height="30" y="590.2676" clip-path="url(#clipPath2)"/>
      <text x="251.3816" xml:space="preserve" y="609.4219" clip-path="url(#clipPath2)" font-family="sans-serif" stroke="none">45</text>
    </g>
    <g fill="rgb(255,204,0)" text-rendering="geometricPrecision" shape-rendering="geometricPrecision" transform="matrix(1,0,0,1,-175,-219)" stroke="rgb(255,204,0)">
      <ellipse rx="69" ry="15" clip-path="url(#clipPath2)" cx="576.3891" cy="282.0749" stroke="none"/>
    </g>
    <g text-rendering="geometricPrecision" stroke-miterlimit="1.45" shape-rendering="geometricPrecision" transform="matrix(1,0,0,1,-175,-219)" stroke-linecap="butt">
      <ellipse rx="69" fill="none" ry="15" clip-path="url(#clipPath2)" cx="576.3891" cy="282.0749"/>
      <text x="553.0424" xml:space="preserve" y="286.2292" clip-path="url(#clipPath2)" font-family="sans-serif" stroke="none">Euskadi</text>
      <path fill="none" d="M328.0164 376.2829 L350.438 366.9274 L372.8596 360.2449 L395.2812 356.2354 L417.7028 354.899 L440.1243 356.2354 L462.5459 360.2449 L484.9675 366.9274 L499.9622 373.184" clip-path="url(#clipPath2)"/>
      <path d="M507.3453 376.2646 L498.196 367.0293 L499.0393 372.7989 L494.3453 376.2581 Z" clip-path="url(#clipPath2)" stroke="none"/>
      <text x="395.2433" xml:space="preserve" y="346.541" clip-path="url(#clipPath2)" font-family="sans-serif" stroke="none">vive_en</text>
      <path fill="none" d="M645.4101 376.2558 L656.1606 362.4187 L667.8835 350.2356 L680.5577 339.7337 L694.1834 330.9128 L708.7604 323.773 L724.2889 318.3143 L740.7687 314.5367 L750.223 313.3995" clip-path="url(#clipPath2)"/>
      <path d="M758.1658 312.4442 L745.6545 308.913 L749.2302 313.519 L746.8487 318.8414 Z" clip-path="url(#clipPath2)" stroke="none"/>
      <text x="687.0341" xml:space="preserve" y="342.0327" clip-path="url(#clipPath2)" font-family="sans-serif" stroke="none">parte_de</text>
      <path fill="none" d="M645.4382 376.2802 L670.5571 374.9245 L694.7969 376.1791 L718.1082 380.0468 L740.4912 386.5276 L761.9459 395.6214 L782.4722 407.3283 L802.0701 421.6482 L814.8139 433.2066" clip-path="url(#clipPath2)"/>
      <path d="M820.7396 438.5812 L815.2101 426.8158 L814.0732 432.5348 L808.4919 434.2229 Z" clip-path="url(#clipPath2)" stroke="none"/>
      <text x="717.981" xml:space="preserve" y="380.5671" clip-path="url(#clipPath2)" font-family="sans-serif" stroke="none">poblacion</text>
      <path fill="none" d="M271.8961 391.0025 L272.6694 391.8863 L282.4216 407.4898 L288.2729 423.0932 L290.2233 438.6967 L288.2729 454.3001 L282.4216 469.9036 L276.2938 479.708 L276.228 479.7833" clip-path="url(#clipPath2)"/>
      <path d="M271.8418 486.4737 L282.6025 479.1794 L276.7762 478.947 L274.2395 473.6967 Z" clip-path="url(#clipPath2)" stroke="none"/>
      <text x="222.5111" xml:space="preserve" y="432.8445" clip-path="url(#clipPath2)" font-family="sans-serif" stroke="none">amigo_de</text>
      <path fill="none" d="M328.0164 501.1105 L349.1358 504.4435 L369.5091 506.2918 L389.1362 506.6555 L408.0171 505.5346 L426.1519 502.9291 L443.5406 498.839 L460.1831 493.2642 L476.0794 486.2048 L491.2296 477.6607 L505.6337 467.632 L519.2916 456.1187 L532.2034 443.1208 L544.369 428.6383 L555.7885 412.6711 L564.6605 398.1646 L564.707 398.0761" clip-path="url(#clipPath2)"/>
      <path d="M568.6242 391.1007 L558.3888 399.1155 L564.2173 398.948 L567.108 404.012 Z" clip-path="url(#clipPath2)" stroke="none"/>
      <text x="382.0988" xml:space="preserve" y="527.6611" clip-path="url(#clipPath2)" font-family="sans-serif" stroke="none">vive_en</text>
      <path fill="none" d="M246.8729 361.5298 L239.19 348.6277 L234.3797 334.9098 L232.9715 321.2652 L234.9653 307.6938 L240.3611 294.1956 L243.6914 289.1137" clip-path="url(#clipPath2)"/>
      <path d="M248.0764 282.4225 L237.3169 289.7187 L243.1433 289.9501 L245.681 295.1999 Z" clip-path="url(#clipPath2)" stroke="none"/>
      <text x="251.5194" xml:space="preserve" y="326.141" clip-path="url(#clipPath2)" font-family="sans-serif" stroke="none">edad</text>
      <path fill="none" d="M271.5052 515.8847 L278.5459 527.1498 L283.4283 540.1694 L285.0557 553.1891 L283.4283 566.2087 L278.5459 579.2283 L275.8723 583.506" clip-path="url(#clipPath2)"/>
      <path d="M271.6324 590.29 L282.2323 582.764 L276.4023 582.658 L273.7523 577.464 Z" clip-path="url(#clipPath2)" stroke="none"/>
      <text x="234.1099" xml:space="preserve" y="552.5045" clip-path="url(#clipPath2)" font-family="sans-serif" stroke="none">edad</text>
      <path fill="none" d="M813.6059 297.7097 L813.139 297.2038 L798.8629 283.7459 L784.3715 272.0665 L769.6647 262.1655 L754.7427 254.043 L739.6053 247.699 L724.2526 243.1335 L708.6846 240.3464 L692.9012 239.3378 L676.9026 240.1077 L660.6886 242.6561 L644.2593 246.9829 L627.6147 253.0882 L610.7548 260.9719 L605.5446 263.9202" clip-path="url(#clipPath2)"/>
      <path d="M598.582 267.86 L611.4883 266.3019 L606.4149 263.4277 L606.5635 257.5987 Z" clip-path="url(#clipPath2)" stroke="none"/>
      <text x="744.7079" xml:space="preserve" y="247.4172" clip-path="url(#clipPath2)" font-family="sans-serif" stroke="none">parte_de</text>
    </g>
  </g>
</svg>
