<?xml version="1.0" encoding="UTF-8"?><svg xmlns="http://www.w3.org/2000/svg" xmlns:xlink="http://www.w3.org/1999/xlink" fill-opacity="1" color-rendering="auto" color-interpolation="auto" text-rendering="auto" stroke="black" stroke-linecap="square" width="534" stroke-miterlimit="10" shape-rendering="auto" stroke-opacity="1" fill="black" stroke-dasharray="none" font-weight="normal" stroke-width="1" height="251" font-family="'Dialog'" font-style="normal" stroke-linejoin="miter" font-size="12px" stroke-dashoffset="0" image-rendering="auto">
  <!--Generated by ySVG 2.6-->
  <defs id="genericDefs"/>
  <g>
    <defs id="defs1">
      <clipPath clipPathUnits="userSpaceOnUse" id="clipPath1">
        <path d="M0 0 L534 0 L534 251 L0 251 L0 0 Z"/>
      </clipPath>
      <clipPath clipPathUnits="userSpaceOnUse" id="clipPath2">
        <path d="M144 337 L678 337 L678 588 L144 588 L144 337 Z"/>
      </clipPath>
    </defs>
    <g fill="white" text-rendering="geometricPrecision" shape-rendering="geometricPrecision" transform="translate(-144,-337)" stroke="white">
      <rect x="144" width="534" height="251" y="337" clip-path="url(#clipPath2)" stroke="none"/>
    </g>
    <g fill="rgb(255,204,0)" text-rendering="geometricPrecision" shape-rendering="geometricPrecision" transform="matrix(1,0,0,1,-144,-337)" stroke="rgb(255,204,0)">
      <ellipse rx="69" ry="15" clip-path="url(#clipPath2)" cx="228.0328" cy="395.723" stroke="none"/>
    </g>
    <g text-rendering="geometricPrecision" stroke-miterlimit="1.45" shape-rendering="geometricPrecision" transform="matrix(1,0,0,1,-144,-337)" stroke-linecap="butt">
      <ellipse rx="69" fill="none" ry="15" clip-path="url(#clipPath2)" cx="228.0328" cy="395.723"/>
      <text x="200.3306" xml:space="preserve" y="400.379" clip-path="url(#clipPath2)" font-family="sans-serif" stroke="none">ehu:mikel</text>
    </g>
    <g fill="rgb(255,204,0)" text-rendering="geometricPrecision" shape-rendering="geometricPrecision" transform="matrix(1,0,0,1,-144,-337)" stroke="rgb(255,204,0)">
      <ellipse rx="69" ry="15" clip-path="url(#clipPath2)" cx="545.4055" cy="395.723" stroke="none"/>
    </g>
    <g text-rendering="geometricPrecision" stroke-miterlimit="1.45" shape-rendering="geometricPrecision" transform="matrix(1,0,0,1,-144,-337)" stroke-linecap="butt">
      <ellipse rx="69" fill="none" ry="15" clip-path="url(#clipPath2)" cx="545.4055" cy="395.723"/>
      <text x="524.1113" xml:space="preserve" y="400.379" clip-path="url(#clipPath2)" font-family="sans-serif" stroke="none">ehu:jon</text>
    </g>
    <g stroke-linecap="round" transform="matrix(1,0,0,1,-144,-337)" stroke-dashoffset="2" text-rendering="geometricPrecision" shape-rendering="geometricPrecision" stroke-dasharray="0,8" stroke-width="2" stroke-miterlimit="1.45">
      <rect fill="none" x="159.0328" width="251.1533" height="65.1675" y="505.311" clip-path="url(#clipPath2)"/>
    </g>
    <g text-rendering="geometricPrecision" stroke-miterlimit="1.45" shape-rendering="geometricPrecision" font-family="sans-serif" transform="matrix(1,0,0,1,-144,-337)" stroke-linecap="butt">
      <text x="167.1106" xml:space="preserve" y="518.0345" clip-path="url(#clipPath2)" stroke="none">eus: &lt;https://data.euskadi.eus/resource/&gt;</text>
      <text x="167.1106" xml:space="preserve" y="534.3787" clip-path="url(#clipPath2)" stroke="none">ehu: &lt;https://ehu.eus/staff/pdi/&gt;</text>
      <text x="167.1106" xml:space="preserve" y="550.7228" clip-path="url(#clipPath2)" stroke="none">eustat: &lt;urn:eustat:property:&gt;</text>
      <text x="167.1106" xml:space="preserve" y="567.0669" clip-path="url(#clipPath2)" stroke="none">wikidata: &lt;https://wikidata.org/prop/&gt;</text>
    </g>
    <g fill="rgb(255,204,0)" text-rendering="geometricPrecision" shape-rendering="geometricPrecision" transform="matrix(1,0,0,1,-144,-337)" stroke="rgb(255,204,0)">
      <ellipse rx="69" ry="15" clip-path="url(#clipPath2)" cx="545.4055" cy="548.723" stroke="none"/>
    </g>
    <g text-rendering="geometricPrecision" stroke-miterlimit="1.45" shape-rendering="geometricPrecision" transform="matrix(1,0,0,1,-144,-337)" stroke-linecap="butt">
      <ellipse rx="69" fill="none" ry="15" clip-path="url(#clipPath2)" cx="545.4055" cy="548.723"/>
      <text x="524.1113" xml:space="preserve" y="553.379" clip-path="url(#clipPath2)" font-family="sans-serif" stroke="none">ehu:jon</text>
      <path fill="none" d="M297.0766 395.7047 L319.4544 386.3675 L341.876 379.6851 L364.2975 375.6756 L386.7191 374.3391 L409.1407 375.6756 L431.5623 379.6851 L453.9839 386.3675 L469.0224 392.6424" clip-path="url(#clipPath2)"/>
      <path d="M476.4055 395.723 L467.2562 386.4877 L468.0995 392.2573 L463.4055 395.7165 Z" clip-path="url(#clipPath2)" stroke="none"/>
      <text x="337.0686" xml:space="preserve" y="367.2675" clip-path="url(#clipPath2)" font-family="sans-serif" stroke="none">eustat:amigo_de</text>
      <path fill="none" d="M545.4171 410.753 L551.3585 426.098 L555.6107 441.473 L558.162 456.848 L559.0124 472.223 L558.162 487.598 L555.6107 502.973 L551.3585 518.348 L548.3056 526.2327" clip-path="url(#clipPath2)"/>
      <path d="M545.4171 533.693 L554.4126 524.3079 L548.6667 525.3001 L545.0872 520.6972 Z" clip-path="url(#clipPath2)" stroke="none"/>
      <text x="594.1118" xml:space="preserve" y="472.3983" clip-path="url(#clipPath2)" font-family="sans-serif" stroke="none">ehu:vive_en</text>
    </g>
  </g>
</svg>
