<?xml version="1.0" encoding="UTF-8"?><svg xmlns="http://www.w3.org/2000/svg" xmlns:xlink="http://www.w3.org/1999/xlink" fill-opacity="1" color-rendering="auto" color-interpolation="auto" text-rendering="auto" stroke="black" stroke-linecap="square" width="708" stroke-miterlimit="10" shape-rendering="auto" stroke-opacity="1" fill="black" stroke-dasharray="none" font-weight="normal" stroke-width="1" height="430" font-family="'Dialog'" font-style="normal" stroke-linejoin="miter" font-size="12px" stroke-dashoffset="0" image-rendering="auto">
  <!--Generated by ySVG 2.6-->
  <defs id="genericDefs"/>
  <g>
    <defs id="defs1">
      <clipPath clipPathUnits="userSpaceOnUse" id="clipPath1">
        <path d="M0 0 L708 0 L708 430 L0 430 L0 0 Z"/>
      </clipPath>
      <clipPath clipPathUnits="userSpaceOnUse" id="clipPath2">
        <path d="M139 339 L847 339 L847 769 L139 769 L139 339 Z"/>
      </clipPath>
    </defs>
    <g fill="white" text-rendering="geometricPrecision" shape-rendering="geometricPrecision" transform="translate(-139,-339)" stroke="white">
      <rect x="139" width="708" height="430" y="339" clip-path="url(#clipPath2)" stroke="none"/>
    </g>
    <g stroke-linecap="butt" transform="matrix(1,0,0,1,-139,-339)" fill="silver" text-rendering="geometricPrecision" shape-rendering="geometricPrecision" stroke-dasharray="12,4" stroke="silver" stroke-width="2" stroke-miterlimit="1.45">
      <ellipse rx="310.5" fill="none" ry="151" clip-path="url(#clipPath2)" cx="464.5" cy="505"/>
    </g>
    <g fill="rgb(255,204,0)" text-rendering="geometricPrecision" shape-rendering="geometricPrecision" transform="matrix(1,0,0,1,-139,-339)" stroke="rgb(255,204,0)">
      <ellipse rx="69" ry="15" clip-path="url(#clipPath2)" cx="253.0656" cy="449.446" stroke="none"/>
    </g>
    <g text-rendering="geometricPrecision" stroke-miterlimit="1.45" shape-rendering="geometricPrecision" transform="matrix(1,0,0,1,-139,-339)" stroke-linecap="butt">
      <ellipse rx="69" fill="none" ry="15" clip-path="url(#clipPath2)" cx="253.0656" cy="449.446"/>
      <text x="225.3634" xml:space="preserve" y="454.102" clip-path="url(#clipPath2)" font-family="sans-serif" stroke="none">ehu:mikel</text>
    </g>
    <g fill="rgb(255,204,0)" text-rendering="geometricPrecision" shape-rendering="geometricPrecision" transform="matrix(1,0,0,1,-139,-339)" stroke="rgb(255,204,0)">
      <ellipse rx="69" ry="15" clip-path="url(#clipPath2)" cx="570.4383" cy="449.446" stroke="none"/>
    </g>
    <g text-rendering="geometricPrecision" stroke-miterlimit="1.45" shape-rendering="geometricPrecision" transform="matrix(1,0,0,1,-139,-339)" stroke-linecap="butt">
      <ellipse rx="69" fill="none" ry="15" clip-path="url(#clipPath2)" cx="570.4383" cy="449.446"/>
      <text x="549.1442" xml:space="preserve" y="454.102" clip-path="url(#clipPath2)" font-family="sans-serif" stroke="none">ehu:jon</text>
    </g>
    <g stroke-linecap="round" transform="matrix(1,0,0,1,-139,-339)" stroke-dashoffset="2" text-rendering="geometricPrecision" shape-rendering="geometricPrecision" stroke-dasharray="0,8" stroke-width="2" stroke-miterlimit="1.45">
      <rect fill="none" x="154" width="251.1533" height="65.1675" y="686" clip-path="url(#clipPath2)"/>
    </g>
    <g text-rendering="geometricPrecision" stroke-miterlimit="1.45" shape-rendering="geometricPrecision" font-family="sans-serif" transform="matrix(1,0,0,1,-139,-339)" stroke-linecap="butt">
      <text x="162.0778" xml:space="preserve" y="698.7236" clip-path="url(#clipPath2)" stroke="none">eus: &lt;https://data.euskadi.eus/resource/&gt;</text>
      <text x="162.0778" xml:space="preserve" y="715.0677" clip-path="url(#clipPath2)" stroke="none">ehu: &lt;https://ehu.eus/staff/pdi/&gt;</text>
      <text x="162.0778" xml:space="preserve" y="731.4118" clip-path="url(#clipPath2)" stroke="none">eustat: &lt;urn:eustat:property:&gt;</text>
      <text x="162.0778" xml:space="preserve" y="747.7559" clip-path="url(#clipPath2)" stroke="none">wikidata: &lt;https://wikidata.org/prop/&gt;</text>
    </g>
    <g fill="rgb(255,204,0)" text-rendering="geometricPrecision" shape-rendering="geometricPrecision" transform="matrix(1,0,0,1,-139,-339)" stroke="rgb(255,204,0)">
      <ellipse rx="69" ry="15" clip-path="url(#clipPath2)" cx="570.4383" cy="602.446" stroke="none"/>
    </g>
    <g text-rendering="geometricPrecision" stroke-miterlimit="1.45" shape-rendering="geometricPrecision" transform="matrix(1,0,0,1,-139,-339)" stroke-linecap="butt">
      <ellipse rx="69" fill="none" ry="15" clip-path="url(#clipPath2)" cx="570.4383" cy="602.446"/>
      <text x="549.1442" xml:space="preserve" y="607.1021" clip-path="url(#clipPath2)" font-family="sans-serif" stroke="none">ehu:jon</text>
    </g>
    <g fill="rgb(255,204,0)" text-rendering="geometricPrecision" shape-rendering="geometricPrecision" transform="matrix(1,0,0,1,-139,-339)" stroke="rgb(255,204,0)">
      <ellipse rx="69" ry="19.0106" clip-path="url(#clipPath2)" cx="762.5" cy="449.446" stroke="none"/>
    </g>
    <g text-rendering="geometricPrecision" stroke-miterlimit="1.45" shape-rendering="geometricPrecision" transform="matrix(1,0,0,1,-139,-339)" stroke-linecap="butt">
      <ellipse rx="69" fill="none" ry="19.0106" clip-path="url(#clipPath2)" cx="762.5" cy="449.446"/>
      <text x="707.4617" xml:space="preserve" y="454.102" clip-path="url(#clipPath2)" font-family="sans-serif" stroke="none">urn:graph:data:ehu</text>
      <path fill="none" d="M322.0656 449.446 L344.4872 440.0905 L366.9088 433.4081 L389.3304 429.3986 L411.752 428.0621 L434.1736 429.3986 L456.5951 433.4081 L479.0167 440.0905 L494.0114 446.3471" clip-path="url(#clipPath2)"/>
      <path d="M501.3945 449.4277 L492.2452 440.1924 L493.0885 445.962 L488.3945 449.4212 Z" clip-path="url(#clipPath2)" stroke="none"/>
      <text x="362.1014" xml:space="preserve" y="420.9904" clip-path="url(#clipPath2)" font-family="sans-serif" stroke="none">eustat:amigo_de</text>
      <path fill="none" d="M570.4499 464.476 L576.3914 479.821 L580.6435 495.196 L583.1948 510.571 L584.0452 525.946 L583.1948 541.321 L580.6435 556.696 L576.3914 572.071 L573.3268 579.9857" clip-path="url(#clipPath2)"/>
      <path d="M570.4383 587.446 L579.4338 578.0609 L573.6879 579.0531 L570.1084 574.4502 Z" clip-path="url(#clipPath2)" stroke="none"/>
      <text x="619.1447" xml:space="preserve" y="526.1212" clip-path="url(#clipPath2)" font-family="sans-serif" stroke="none">ehu:vive_en</text>
    </g>
  </g>
</svg>
