<?xml version="1.0" encoding="UTF-8"?><svg xmlns="http://www.w3.org/2000/svg" xmlns:xlink="http://www.w3.org/1999/xlink" fill-opacity="1" color-rendering="auto" color-interpolation="auto" text-rendering="auto" stroke="black" stroke-linecap="square" width="618" stroke-miterlimit="10" shape-rendering="auto" stroke-opacity="1" fill="black" stroke-dasharray="none" font-weight="normal" stroke-width="1" height="277" font-family="'Dialog'" font-style="normal" stroke-linejoin="miter" font-size="12px" stroke-dashoffset="0" image-rendering="auto">
  <!--Generated by ySVG 2.6-->
  <defs id="genericDefs"/>
  <g>
    <defs id="defs1">
      <clipPath clipPathUnits="userSpaceOnUse" id="clipPath1">
        <path d="M0 0 L618 0 L618 277 L0 277 L0 0 Z"/>
      </clipPath>
      <clipPath clipPathUnits="userSpaceOnUse" id="clipPath2">
        <path d="M225 198 L843 198 L843 475 L225 475 L225 198 Z"/>
      </clipPath>
    </defs>
    <g fill="white" text-rendering="geometricPrecision" shape-rendering="geometricPrecision" transform="translate(-225,-198)" stroke="white">
      <rect x="225" width="618" height="277" y="198" clip-path="url(#clipPath2)" stroke="none"/>
    </g>
    <g fill="rgb(255,204,0)" text-rendering="geometricPrecision" shape-rendering="geometricPrecision" transform="matrix(1,0,0,1,-225,-198)" stroke="rgb(255,204,0)">
      <ellipse rx="69" ry="15" clip-path="url(#clipPath2)" cx="309.0328" cy="426.723" stroke="none"/>
    </g>
    <g text-rendering="geometricPrecision" stroke-miterlimit="1.45" shape-rendering="geometricPrecision" transform="matrix(1,0,0,1,-225,-198)" stroke-linecap="butt">
      <ellipse rx="69" fill="none" ry="15" clip-path="url(#clipPath2)" cx="309.0328" cy="426.723"/>
      <text x="293.9067" xml:space="preserve" y="431.379" clip-path="url(#clipPath2)" font-family="sans-serif" stroke="none">Mikel</text>
    </g>
    <g fill="rgb(255,204,0)" text-rendering="geometricPrecision" shape-rendering="geometricPrecision" transform="matrix(1,0,0,1,-225,-198)" stroke="rgb(255,204,0)">
      <ellipse rx="69" ry="15" clip-path="url(#clipPath2)" cx="758.5" cy="444.723" stroke="none"/>
    </g>
    <g text-rendering="geometricPrecision" stroke-miterlimit="1.45" shape-rendering="geometricPrecision" transform="matrix(1,0,0,1,-225,-198)" stroke-linecap="butt">
      <ellipse rx="69" fill="none" ry="15" clip-path="url(#clipPath2)" cx="758.5" cy="444.723"/>
      <text x="749.5239" xml:space="preserve" y="449.379" clip-path="url(#clipPath2)" font-family="sans-serif" stroke="none">Jon</text>
    </g>
    <g fill="rgb(255,204,0)" text-rendering="geometricPrecision" shape-rendering="geometricPrecision" transform="matrix(1,0,0,1,-225,-198)" stroke="rgb(255,204,0)">
      <ellipse rx="81.5" ry="15" clip-path="url(#clipPath2)" cx="586.5" cy="339.723" stroke="none"/>
    </g>
    <g text-rendering="geometricPrecision" stroke-miterlimit="1.45" shape-rendering="geometricPrecision" transform="matrix(1,0,0,1,-225,-198)" stroke-linecap="butt">
      <ellipse rx="81.5" fill="none" ry="15" clip-path="url(#clipPath2)" cx="586.5" cy="339.723"/>
      <text x="525.3356" xml:space="preserve" y="344.379" clip-path="url(#clipPath2)" font-family="sans-serif" stroke="none">mikel_jon_adiskidetza</text>
    </g>
    <g fill="rgb(255,204,0)" text-rendering="geometricPrecision" shape-rendering="geometricPrecision" transform="matrix(1,0,0,1,-225,-198)" stroke="rgb(255,204,0)">
      <rect x="565.5" width="30" height="30" y="213.723" clip-path="url(#clipPath2)" stroke="none"/>
    </g>
    <g text-rendering="geometricPrecision" stroke-miterlimit="1.45" shape-rendering="geometricPrecision" transform="matrix(1,0,0,1,-225,-198)" stroke-linecap="butt">
      <rect fill="none" x="565.5" width="30" height="30" y="213.723" clip-path="url(#clipPath2)"/>
      <text x="566.7719" xml:space="preserve" y="233.379" clip-path="url(#clipPath2)" font-family="sans-serif" stroke="none">1997</text>
      <path fill="none" d="M378.0549 426.6888 L389.3661 409.2258 L401.9958 393.6207 L415.922 379.9076 L431.1447 368.0866 L447.6638 358.1576 L465.4794 350.1207 L484.5915 343.9758 L497.1682 341.355" clip-path="url(#clipPath2)"/>
      <path d="M505 339.723 L492.2323 337.2762 L496.1893 341.559 L494.2724 347.0659 Z" clip-path="url(#clipPath2)" stroke="none"/>
      <text x="395.1661" xml:space="preserve" y="361.4877" clip-path="url(#clipPath2)" font-family="sans-serif" stroke="none">adiskidetza</text>
      <path fill="none" d="M668 339.723 L690.7969 342.9496 L710.3125 349.0042 L718.8398 353.0921 L726.5469 357.8871 L733.4336 363.389 L739.5 369.598 L744.7461 376.514 L749.1719 384.1371 L752.7773 392.4671 L755.5625 401.5042 L758.6719 421.6996 L758.6715 421.749" clip-path="url(#clipPath2)"/>
      <path d="M758.6118 429.7488 L763.7012 417.7864 L758.679 420.749 L753.7015 417.7118 Z" clip-path="url(#clipPath2)" stroke="none"/>
      <text x="678.4028" xml:space="preserve" y="394.4661" clip-path="url(#clipPath2)" font-family="sans-serif" stroke="none">adiskidetza</text>
      <path fill="none" d="M586.5 324.723 L580.2025 315.0089 L575.4901 305.1774 L572.3625 295.2285 L570.8201 285.1622 L570.8625 274.9785 L572.4901 264.6774 L575.7025 254.2589 L577.166 251.0449" clip-path="url(#clipPath2)"/>
      <path d="M580.4813 243.7641 L570.9579 252.6132 L576.7516 251.955 L580.0588 256.7573 Z" clip-path="url(#clipPath2)" stroke="none"/>
      <text x="522.9824" xml:space="preserve" y="282.9942" clip-path="url(#clipPath2)" font-family="sans-serif" stroke="none">noiztik</text>
    </g>
  </g>
</svg>
