<?xml version="1.0" encoding="UTF-8"?><svg xmlns="http://www.w3.org/2000/svg" xmlns:xlink="http://www.w3.org/1999/xlink" fill-opacity="1" color-rendering="auto" color-interpolation="auto" text-rendering="auto" stroke="black" stroke-linecap="square" width="821" stroke-miterlimit="10" shape-rendering="auto" stroke-opacity="1" fill="black" stroke-dasharray="none" font-weight="normal" stroke-width="1" height="156" font-family="'Dialog'" font-style="normal" stroke-linejoin="miter" font-size="12px" stroke-dashoffset="0" image-rendering="auto">
  <!--Generated by ySVG 2.6-->
  <defs id="genericDefs"/>
  <g>
    <defs id="defs1">
      <clipPath clipPathUnits="userSpaceOnUse" id="clipPath1">
        <path d="M0 0 L821 0 L821 156 L0 156 L0 0 Z"/>
      </clipPath>
      <clipPath clipPathUnits="userSpaceOnUse" id="clipPath2">
        <path d="M172 320 L993 320 L993 476 L172 476 L172 320 Z"/>
      </clipPath>
    </defs>
    <g fill="white" text-rendering="geometricPrecision" shape-rendering="geometricPrecision" transform="translate(-172,-320)" stroke="white">
      <rect x="172" width="821" height="156" y="320" clip-path="url(#clipPath2)" stroke="none"/>
    </g>
    <g stroke-linecap="butt" transform="matrix(1,0,0,1,-172,-320)" fill="silver" text-rendering="geometricPrecision" shape-rendering="geometricPrecision" stroke-dasharray="12,4" stroke="silver" stroke-width="2" stroke-miterlimit="1.45">
      <ellipse rx="275" fill="none" ry="63" clip-path="url(#clipPath2)" cx="462" cy="398"/>
    </g>
    <g fill="rgb(255,204,0)" text-rendering="geometricPrecision" shape-rendering="geometricPrecision" transform="matrix(1,0,0,1,-172,-320)" stroke="rgb(255,204,0)">
      <ellipse rx="69" ry="15" clip-path="url(#clipPath2)" cx="284.0328" cy="401.723" stroke="none"/>
    </g>
    <g text-rendering="geometricPrecision" stroke-miterlimit="1.45" shape-rendering="geometricPrecision" transform="matrix(1,0,0,1,-172,-320)" stroke-linecap="butt">
      <ellipse rx="69" fill="none" ry="15" clip-path="url(#clipPath2)" cx="284.0328" cy="401.723"/>
      <text x="268.9067" xml:space="preserve" y="406.379" clip-path="url(#clipPath2)" font-family="sans-serif" stroke="none">Mikel</text>
    </g>
    <g fill="rgb(255,204,0)" text-rendering="geometricPrecision" shape-rendering="geometricPrecision" transform="matrix(1,0,0,1,-172,-320)" stroke="rgb(255,204,0)">
      <ellipse rx="69" ry="15" clip-path="url(#clipPath2)" cx="601.4055" cy="401.723" stroke="none"/>
    </g>
    <g text-rendering="geometricPrecision" stroke-miterlimit="1.45" shape-rendering="geometricPrecision" transform="matrix(1,0,0,1,-172,-320)" stroke-linecap="butt">
      <ellipse rx="69" fill="none" ry="15" clip-path="url(#clipPath2)" cx="601.4055" cy="401.723"/>
      <text x="592.4294" xml:space="preserve" y="406.379" clip-path="url(#clipPath2)" font-family="sans-serif" stroke="none">Jon</text>
    </g>
    <g fill="rgb(255,204,0)" text-rendering="geometricPrecision" shape-rendering="geometricPrecision" transform="matrix(1,0,0,1,-172,-320)" stroke="rgb(255,204,0)">
      <ellipse rx="59.5" ry="15" clip-path="url(#clipPath2)" cx="747.5" cy="401.723" stroke="none"/>
    </g>
    <g text-rendering="geometricPrecision" stroke-miterlimit="1.45" shape-rendering="geometricPrecision" transform="matrix(1,0,0,1,-172,-320)" stroke-linecap="butt">
      <ellipse rx="59.5" fill="none" ry="15" clip-path="url(#clipPath2)" cx="747.5" cy="401.723"/>
      <text x="726.7819" xml:space="preserve" y="406.379" clip-path="url(#clipPath2)" font-family="sans-serif" stroke="none">amigos</text>
    </g>
    <g fill="rgb(255,204,0)" text-rendering="geometricPrecision" shape-rendering="geometricPrecision" transform="matrix(1,0,0,1,-172,-320)" stroke="rgb(255,204,0)">
      <rect x="946.5" width="30" height="30" y="386.723" clip-path="url(#clipPath2)" stroke="none"/>
    </g>
    <g text-rendering="geometricPrecision" stroke-miterlimit="1.45" shape-rendering="geometricPrecision" transform="matrix(1,0,0,1,-172,-320)" stroke-linecap="butt">
      <rect fill="none" x="946.5" width="30" height="30" y="386.723" clip-path="url(#clipPath2)"/>
      <text x="947.7719" xml:space="preserve" y="406.379" clip-path="url(#clipPath2)" font-family="sans-serif" stroke="none">1997</text>
      <path fill="none" d="M353.0766 401.7047 L375.4544 392.3675 L397.876 385.6851 L420.2975 381.6756 L442.7191 380.3391 L465.1407 381.6756 L487.5623 385.6851 L509.9839 392.3675 L525.0224 398.6424" clip-path="url(#clipPath2)"/>
      <path d="M532.4055 401.723 L523.2562 392.4877 L524.0995 398.2573 L519.4055 401.7165 Z" clip-path="url(#clipPath2)" stroke="none"/>
      <text x="417.9331" xml:space="preserve" y="373.2675" clip-path="url(#clipPath2)" font-family="sans-serif" stroke="none">amigo_de</text>
      <path fill="none" d="M807 401.723 L824.4375 392.169 L841.875 385.3448 L859.3125 381.2502 L876.75 379.8854 L894.1875 381.2502 L911.625 385.3448 L929.0625 392.169 L939.45 397.8603" clip-path="url(#clipPath2)"/>
      <path d="M946.4659 401.7043 L938.3445 391.5533 L938.573 397.3798 L933.5395 400.3233 Z" clip-path="url(#clipPath2)" stroke="none"/>
      <text x="868.6913" xml:space="preserve" y="355.9118" clip-path="url(#clipPath2)" font-family="sans-serif" stroke="none">desde</text>
    </g>
  </g>
</svg>
