<?xml version="1.0" encoding="UTF-8"?><svg xmlns="http://www.w3.org/2000/svg" xmlns:xlink="http://www.w3.org/1999/xlink" fill-opacity="1" color-rendering="auto" color-interpolation="auto" text-rendering="auto" stroke="black" stroke-linecap="square" width="618" stroke-miterlimit="10" shape-rendering="auto" stroke-opacity="1" fill="black" stroke-dasharray="none" font-weight="normal" stroke-width="1" height="277" font-family="'Dialog'" font-style="normal" stroke-linejoin="miter" font-size="12px" stroke-dashoffset="0" image-rendering="auto">
  <!--Generated by ySVG 2.6-->
  <defs id="genericDefs"/>
  <g>
    <defs id="defs1">
      <clipPath clipPathUnits="userSpaceOnUse" id="clipPath1">
        <path d="M0 0 L618 0 L618 277 L0 277 L0 0 Z"/>
      </clipPath>
      <clipPath clipPathUnits="userSpaceOnUse" id="clipPath2">
        <path d="M225 198 L843 198 L843 475 L225 475 L225 198 Z"/>
      </clipPath>
    </defs>
    <g fill="white" text-rendering="geometricPrecision" shape-rendering="geometricPrecision" transform="translate(-225,-198)" stroke="white">
      <rect x="225" width="618" height="277" y="198" clip-path="url(#clipPath2)" stroke="none"/>
    </g>
    <g fill="rgb(255,204,0)" text-rendering="geometricPrecision" shape-rendering="geometricPrecision" transform="matrix(1,0,0,1,-225,-198)" stroke="rgb(255,204,0)">
      <ellipse rx="69" ry="15" clip-path="url(#clipPath2)" cx="309.0328" cy="426.723" stroke="none"/>
    </g>
    <g text-rendering="geometricPrecision" stroke-miterlimit="1.45" shape-rendering="geometricPrecision" transform="matrix(1,0,0,1,-225,-198)" stroke-linecap="butt">
      <ellipse rx="69" fill="none" ry="15" clip-path="url(#clipPath2)" cx="309.0328" cy="426.723"/>
      <text x="293.9067" xml:space="preserve" y="431.379" clip-path="url(#clipPath2)" font-family="sans-serif" stroke="none">Mikel</text>
    </g>
    <g fill="rgb(255,204,0)" text-rendering="geometricPrecision" shape-rendering="geometricPrecision" transform="matrix(1,0,0,1,-225,-198)" stroke="rgb(255,204,0)">
      <ellipse rx="69" ry="15" clip-path="url(#clipPath2)" cx="758.5" cy="444.723" stroke="none"/>
    </g>
    <g text-rendering="geometricPrecision" stroke-miterlimit="1.45" shape-rendering="geometricPrecision" transform="matrix(1,0,0,1,-225,-198)" stroke-linecap="butt">
      <ellipse rx="69" fill="none" ry="15" clip-path="url(#clipPath2)" cx="758.5" cy="444.723"/>
      <text x="749.5239" xml:space="preserve" y="449.379" clip-path="url(#clipPath2)" font-family="sans-serif" stroke="none">Jon</text>
    </g>
    <g fill="rgb(255,204,0)" text-rendering="geometricPrecision" shape-rendering="geometricPrecision" transform="matrix(1,0,0,1,-225,-198)" stroke="rgb(255,204,0)">
      <ellipse rx="59.5" ry="15" clip-path="url(#clipPath2)" cx="564.5" cy="339.723" stroke="none"/>
    </g>
    <g text-rendering="geometricPrecision" stroke-miterlimit="1.45" shape-rendering="geometricPrecision" transform="matrix(1,0,0,1,-225,-198)" stroke-linecap="butt">
      <ellipse rx="59.5" fill="none" ry="15" clip-path="url(#clipPath2)" cx="564.5" cy="339.723"/>
      <text x="512.3716" xml:space="preserve" y="344.379" clip-path="url(#clipPath2)" font-family="sans-serif" stroke="none">amistad_mikel_jon</text>
    </g>
    <g fill="rgb(255,204,0)" text-rendering="geometricPrecision" shape-rendering="geometricPrecision" transform="matrix(1,0,0,1,-225,-198)" stroke="rgb(255,204,0)">
      <rect x="565.5" width="30" height="30" y="213.723" clip-path="url(#clipPath2)" stroke="none"/>
    </g>
    <g text-rendering="geometricPrecision" stroke-miterlimit="1.45" shape-rendering="geometricPrecision" transform="matrix(1,0,0,1,-225,-198)" stroke-linecap="butt">
      <rect fill="none" x="565.5" width="30" height="30" y="213.723" clip-path="url(#clipPath2)"/>
      <text x="566.7719" xml:space="preserve" y="233.379" clip-path="url(#clipPath2)" font-family="sans-serif" stroke="none">1997</text>
      <path fill="none" d="M378.0549 426.6888 L389.3661 409.2258 L401.9958 393.6207 L415.922 379.9076 L431.1447 368.0866 L447.6638 358.1576 L465.4794 350.1207 L484.5915 343.9758 L497.1682 341.355" clip-path="url(#clipPath2)"/>
      <path d="M505 339.723 L492.2323 337.2762 L496.1893 341.559 L494.2724 347.0659 Z" clip-path="url(#clipPath2)" stroke="none"/>
      <text x="404.2022" xml:space="preserve" y="361.4877" clip-path="url(#clipPath2)" font-family="sans-serif" stroke="none">amistad</text>
      <path fill="none" d="M624 339.723 L638.5586 338.4046 L652.2969 338.1371 L665.2148 338.9203 L677.3125 340.7542 L688.5898 343.639 L699.0469 347.5746 L708.6836 352.5609 L717.5 358.598 L725.4961 365.6859 L732.6719 373.8246 L739.0273 383.014 L744.5625 393.2542 L749.2773 404.5453 L753.1719 416.8871 L754.3302 421.9331" clip-path="url(#clipPath2)"/>
      <path d="M756.12 429.7303 L758.3085 416.9159 L754.1064 420.9584 L748.562 419.1531 Z" clip-path="url(#clipPath2)" stroke="none"/>
      <text x="659.9717" xml:space="preserve" y="386.8123" clip-path="url(#clipPath2)" font-family="sans-serif" stroke="none">amistad</text>
      <path fill="none" d="M564.5 324.723 L560.9525 313.5022 L558.9901 302.5945 L558.6125 291.9999 L559.8201 281.7183 L562.6125 271.7499 L566.9901 262.0945 L572.9525 252.7522 L575.3398 249.8963" clip-path="url(#clipPath2)"/>
      <path d="M580.4705 243.7583 L568.9381 249.7586 L574.6984 250.6635 L576.6107 256.172 Z" clip-path="url(#clipPath2)" stroke="none"/>
      <text x="516.4481" xml:space="preserve" y="272.0327" clip-path="url(#clipPath2)" font-family="sans-serif" stroke="none">desde</text>
    </g>
  </g>
</svg>
