<?xml version="1.0" encoding="UTF-8"?><svg xmlns="http://www.w3.org/2000/svg" xmlns:xlink="http://www.w3.org/1999/xlink" fill-opacity="1" color-rendering="auto" color-interpolation="auto" text-rendering="auto" stroke="black" stroke-linecap="square" width="1272" stroke-miterlimit="10" shape-rendering="auto" stroke-opacity="1" fill="black" stroke-dasharray="none" font-weight="normal" stroke-width="1" height="516" font-family="'Dialog'" font-style="normal" stroke-linejoin="miter" font-size="12px" stroke-dashoffset="0" image-rendering="auto">
  <!--Generated by ySVG 2.6-->
  <defs id="genericDefs"/>
  <g>
    <defs id="defs1">
      <clipPath clipPathUnits="userSpaceOnUse" id="clipPath1">
        <path d="M0 0 L1272 0 L1272 516 L0 516 L0 0 Z"/>
      </clipPath>
      <clipPath clipPathUnits="userSpaceOnUse" id="clipPath2">
        <path d="M91 131 L1363 131 L1363 647 L91 647 L91 131 Z"/>
      </clipPath>
    </defs>
    <g fill="white" text-rendering="geometricPrecision" shape-rendering="geometricPrecision" transform="translate(-91,-131)" stroke="white">
      <rect x="91" width="1272" height="516" y="131" clip-path="url(#clipPath2)" stroke="none"/>
    </g>
    <g fill="rgb(255,204,0)" text-rendering="geometricPrecision" shape-rendering="geometricPrecision" transform="matrix(1,0,0,1,-91,-131)" stroke="rgb(255,204,0)">
      <ellipse rx="69" ry="15" clip-path="url(#clipPath2)" cx="509.0328" cy="387.7016" stroke="none"/>
    </g>
    <g text-rendering="geometricPrecision" stroke-miterlimit="1.45" shape-rendering="geometricPrecision" transform="matrix(1,0,0,1,-91,-131)" stroke-linecap="butt">
      <ellipse rx="69" fill="none" ry="15" clip-path="url(#clipPath2)" cx="509.0328" cy="387.7016"/>
      <text x="493.356" xml:space="preserve" y="391.8559" clip-path="url(#clipPath2)" font-family="sans-serif" stroke="none">Mikel</text>
    </g>
    <g fill="rgb(255,204,0)" text-rendering="geometricPrecision" shape-rendering="geometricPrecision" transform="matrix(1,0,0,1,-91,-131)" stroke="rgb(255,204,0)">
      <ellipse rx="69" ry="15" clip-path="url(#clipPath2)" cx="826.4055" cy="387.7016" stroke="none"/>
    </g>
    <g text-rendering="geometricPrecision" stroke-miterlimit="1.45" shape-rendering="geometricPrecision" transform="matrix(1,0,0,1,-91,-131)" stroke-linecap="butt">
      <ellipse rx="69" fill="none" ry="15" clip-path="url(#clipPath2)" cx="826.4055" cy="387.7016"/>
      <text x="811.4758" xml:space="preserve" y="391.8559" clip-path="url(#clipPath2)" font-family="sans-serif" stroke="none">Bilbo</text>
    </g>
    <g fill="rgb(255,204,0)" text-rendering="geometricPrecision" shape-rendering="geometricPrecision" transform="matrix(1,0,0,1,-91,-131)" stroke="rgb(255,204,0)">
      <ellipse rx="69" ry="15" clip-path="url(#clipPath2)" cx="1077.2162" cy="323.8588" stroke="none"/>
    </g>
    <g text-rendering="geometricPrecision" stroke-miterlimit="1.45" shape-rendering="geometricPrecision" transform="matrix(1,0,0,1,-91,-131)" stroke-linecap="butt">
      <ellipse rx="69" fill="none" ry="15" clip-path="url(#clipPath2)" cx="1077.2162" cy="323.8588"/>
      <text x="1055.7885" xml:space="preserve" y="328.0131" clip-path="url(#clipPath2)" font-family="sans-serif" stroke="none">Bizkaia</text>
    </g>
    <g fill="rgb(255,204,0)" text-rendering="geometricPrecision" shape-rendering="geometricPrecision" transform="matrix(1,0,0,1,-91,-131)" stroke="rgb(255,204,0)">
      <rect x="1070.7561" width="176.7012" height="30" y="434.9999" clip-path="url(#clipPath2)" stroke="none"/>
    </g>
    <g text-rendering="geometricPrecision" stroke-miterlimit="1.45" shape-rendering="geometricPrecision" transform="matrix(1,0,0,1,-91,-131)" stroke-linecap="butt">
      <rect fill="none" x="1070.7561" width="176.7012" height="30" y="434.9999" clip-path="url(#clipPath2)"/>
      <text x="1078.1301" xml:space="preserve" y="454.1542" clip-path="url(#clipPath2)" font-family="sans-serif" stroke="none">"400000.00"^^xsd:double</text>
    </g>
    <g fill="rgb(255,204,0)" text-rendering="geometricPrecision" shape-rendering="geometricPrecision" transform="matrix(1,0,0,1,-91,-131)" stroke="rgb(255,204,0)">
      <ellipse rx="69" ry="15" clip-path="url(#clipPath2)" cx="509.0328" cy="512.5292" stroke="none"/>
    </g>
    <g text-rendering="geometricPrecision" stroke-miterlimit="1.45" shape-rendering="geometricPrecision" transform="matrix(1,0,0,1,-91,-131)" stroke-linecap="butt">
      <ellipse rx="69" fill="none" ry="15" clip-path="url(#clipPath2)" cx="509.0328" cy="512.5292"/>
      <text x="499.7896" xml:space="preserve" y="516.6835" clip-path="url(#clipPath2)" font-family="sans-serif" stroke="none">Jon</text>
    </g>
    <g fill="rgb(255,204,0)" text-rendering="geometricPrecision" shape-rendering="geometricPrecision" transform="matrix(1,0,0,1,-91,-131)" stroke="rgb(255,204,0)">
      <rect x="494.0328" width="103.6846" height="30" y="263.8374" clip-path="url(#clipPath2)" stroke="none"/>
    </g>
    <g text-rendering="geometricPrecision" stroke-miterlimit="1.45" shape-rendering="geometricPrecision" transform="matrix(1,0,0,1,-91,-131)" stroke-linecap="butt">
      <rect fill="none" x="494.0328" width="103.6846" height="30" y="263.8374" clip-path="url(#clipPath2)"/>
      <text x="502.337" xml:space="preserve" y="282.9917" clip-path="url(#clipPath2)" font-family="sans-serif" stroke="none">"45"^^xsd:int</text>
    </g>
    <g fill="rgb(255,204,0)" text-rendering="geometricPrecision" shape-rendering="geometricPrecision" transform="matrix(1,0,0,1,-91,-131)" stroke="rgb(255,204,0)">
      <rect x="494.0328" width="97" height="30" y="601.6863" clip-path="url(#clipPath2)" stroke="none"/>
    </g>
    <g text-rendering="geometricPrecision" stroke-miterlimit="1.45" shape-rendering="geometricPrecision" transform="matrix(1,0,0,1,-91,-131)" stroke-linecap="butt">
      <rect fill="none" x="494.0328" width="97" height="30" y="601.6863" clip-path="url(#clipPath2)"/>
      <text x="498.9947" xml:space="preserve" y="620.8406" clip-path="url(#clipPath2)" font-family="sans-serif" stroke="none">"45"^^xsd:int</text>
    </g>
    <g fill="rgb(255,204,0)" text-rendering="geometricPrecision" shape-rendering="geometricPrecision" transform="matrix(1,0,0,1,-91,-131)" stroke="rgb(255,204,0)">
      <ellipse rx="69" ry="15" clip-path="url(#clipPath2)" cx="826.4055" cy="293.4936" stroke="none"/>
    </g>
    <g text-rendering="geometricPrecision" stroke-miterlimit="1.45" shape-rendering="geometricPrecision" transform="matrix(1,0,0,1,-91,-131)" stroke-linecap="butt">
      <ellipse rx="69" fill="none" ry="15" clip-path="url(#clipPath2)" cx="826.4055" cy="293.4936"/>
      <text x="803.0588" xml:space="preserve" y="297.6479" clip-path="url(#clipPath2)" font-family="sans-serif" stroke="none">Euskadi</text>
    </g>
    <g fill="rgb(255,204,0)" text-rendering="geometricPrecision" shape-rendering="geometricPrecision" transform="matrix(1,0,0,1,-91,-131)" stroke="rgb(255,204,0)">
      <rect x="106" width="186" height="30" y="372.7016" clip-path="url(#clipPath2)" stroke="none"/>
    </g>
    <g text-rendering="geometricPrecision" stroke-miterlimit="1.45" shape-rendering="geometricPrecision" transform="matrix(1,0,0,1,-91,-131)" stroke-linecap="butt">
      <rect fill="none" x="106" width="186" height="30" y="372.7016" clip-path="url(#clipPath2)"/>
      <text x="122.5205" xml:space="preserve" y="391.8559" clip-path="url(#clipPath2)" font-family="sans-serif" stroke="none">"1979-08-26"^^xsd:date</text>
    </g>
    <g fill="rgb(255,204,0)" text-rendering="geometricPrecision" shape-rendering="geometricPrecision" transform="matrix(1,0,0,1,-91,-131)" stroke="rgb(255,204,0)">
      <rect x="1110.6067" width="97" height="30" y="146.7178" clip-path="url(#clipPath2)" stroke="none"/>
    </g>
    <g text-rendering="geometricPrecision" stroke-miterlimit="1.45" shape-rendering="geometricPrecision" transform="matrix(1,0,0,1,-91,-131)" stroke-linecap="butt">
      <rect fill="none" x="1110.6067" width="97" height="30" y="146.7178" clip-path="url(#clipPath2)"/>
      <text x="1115.5393" xml:space="preserve" y="165.8721" clip-path="url(#clipPath2)" font-family="sans-serif" stroke="none">"Bizkaia"@eus</text>
    </g>
    <g fill="rgb(255,204,0)" text-rendering="geometricPrecision" shape-rendering="geometricPrecision" transform="matrix(1,0,0,1,-91,-131)" stroke="rgb(255,204,0)">
      <rect x="1251" width="97" height="30" y="308.8588" clip-path="url(#clipPath2)" stroke="none"/>
    </g>
    <g text-rendering="geometricPrecision" stroke-miterlimit="1.45" shape-rendering="geometricPrecision" transform="matrix(1,0,0,1,-91,-131)" stroke-linecap="butt">
      <rect fill="none" x="1251" width="97" height="30" y="308.8588" clip-path="url(#clipPath2)"/>
      <text x="1258.0391" xml:space="preserve" y="328.0131" clip-path="url(#clipPath2)" font-family="sans-serif" stroke="none">"Vizcaya"@es</text>
    </g>
    <g fill="rgb(255,204,0)" text-rendering="geometricPrecision" shape-rendering="geometricPrecision" transform="matrix(1,0,0,1,-91,-131)" stroke="rgb(255,204,0)">
      <rect x="816" width="279" height="30" y="601.6863" clip-path="url(#clipPath2)" stroke="none"/>
    </g>
    <g text-rendering="geometricPrecision" stroke-miterlimit="1.45" shape-rendering="geometricPrecision" transform="matrix(1,0,0,1,-91,-131)" stroke-linecap="butt">
      <rect fill="none" x="816" width="279" height="30" y="601.6863" clip-path="url(#clipPath2)"/>
      <text x="827.458" xml:space="preserve" y="620.8406" clip-path="url(#clipPath2)" font-family="sans-serif" stroke="none">"Ciudad con minas de hierro"^^xsd:string</text>
      <path fill="none" d="M578.0328 387.7016 L600.4544 378.3461 L622.876 371.6636 L645.2975 367.6541 L667.7191 366.3177 L690.1407 367.6541 L712.5623 371.6636 L734.9839 378.3461 L750.0224 384.621" clip-path="url(#clipPath2)"/>
      <path d="M757.4055 387.7016 L748.2562 378.4662 L749.0995 384.2359 L744.4055 387.6951 Z" clip-path="url(#clipPath2)" stroke="none"/>
      <text x="641.6092" xml:space="preserve" y="357.9597" clip-path="url(#clipPath2)" font-family="sans-serif" stroke="none">bizilekua</text>
      <path fill="none" d="M895.4265 387.6745 L906.177 373.8374 L917.8999 361.6543 L930.5742 351.1524 L944.1998 342.3315 L958.7769 335.1917 L974.3053 329.733 L990.7851 325.9554 L1000.2394 324.8182" clip-path="url(#clipPath2)"/>
      <path d="M1008.1822 323.8629 L995.671 320.3317 L999.2466 324.9377 L996.8651 330.2601 Z" clip-path="url(#clipPath2)" stroke="none"/>
      <text x="938.5388" xml:space="preserve" y="353.4514" clip-path="url(#clipPath2)" font-family="sans-serif" stroke="none">zatia_da</text>
      <path fill="none" d="M895.4546 387.6989 L920.5735 386.3432 L944.8133 387.5978 L968.1246 391.4655 L990.5077 397.9463 L1011.9623 407.0401 L1032.4886 418.747 L1052.0865 433.0669 L1064.7938 444.5923" clip-path="url(#clipPath2)"/>
      <path d="M1070.7196 449.9668 L1065.1901 438.2014 L1064.0531 443.9204 L1058.4719 445.6086 Z" clip-path="url(#clipPath2)" stroke="none"/>
      <text x="964.4701" xml:space="preserve" y="391.9858" clip-path="url(#clipPath2)" font-family="sans-serif" stroke="none">populazioa</text>
      <path fill="none" d="M521.9125 402.4212 L522.6859 403.305 L532.438 418.9085 L538.2893 434.512 L540.2397 450.1154 L538.2893 465.7189 L532.438 481.3223 L526.3102 491.1267 L526.2444 491.202" clip-path="url(#clipPath2)"/>
      <path d="M521.8582 497.8924 L532.619 490.5981 L526.7927 490.3657 L524.2559 485.1154 Z" clip-path="url(#clipPath2)" stroke="none"/>
      <text x="470.6496" xml:space="preserve" y="444.2632" clip-path="url(#clipPath2)" font-family="sans-serif" stroke="none">laguna_du</text>
      <path fill="none" d="M578.0328 512.5292 L599.1522 515.8622 L619.5255 517.7106 L639.1526 518.0743 L658.0335 516.9534 L676.1683 514.3478 L693.5569 510.2577 L710.1995 504.6829 L726.0958 497.6235 L741.246 489.0795 L755.6501 479.0508 L769.308 467.5375 L782.2198 454.5396 L794.3854 440.057 L805.8049 424.0898 L814.6769 409.5833 L814.7234 409.4948" clip-path="url(#clipPath2)"/>
      <path d="M818.6406 402.5194 L808.4052 410.5342 L814.2338 410.3667 L817.1244 415.4307 Z" clip-path="url(#clipPath2)" stroke="none"/>
      <text x="628.4648" xml:space="preserve" y="539.0798" clip-path="url(#clipPath2)" font-family="sans-serif" stroke="none">bizilekua</text>
      <path fill="none" d="M502.8577 372.7854 L501.7311 370.0639 L497.8314 353.5776 L497.3336 338.2426 L500.2379 324.0589 L506.5442 311.0266 L516.2525 299.1455 L516.5399 298.9103" clip-path="url(#clipPath2)"/>
      <path d="M522.7308 293.8435 L510.2777 297.5744 L515.7661 299.5437 L516.6111 305.313 Z" clip-path="url(#clipPath2)" stroke="none"/>
      <text x="515.1922" xml:space="preserve" y="337.6277" clip-path="url(#clipPath2)" font-family="sans-serif" stroke="none">adina</text>
      <path fill="none" d="M530.4138 526.7812 L536.9373 532.2872 L546.0072 543.7366 L551.8221 556.2328 L554.3822 569.7759 L553.6873 584.3658 L551.2579 593.9839 L551.2182 594.0757" clip-path="url(#clipPath2)"/>
      <path d="M548.9923 601.7598 L557.1337 591.6248 L551.4965 593.1152 L547.5286 588.8424 Z" clip-path="url(#clipPath2)" stroke="none"/>
      <text x="499.7025" xml:space="preserve" y="567.0231" clip-path="url(#clipPath2)" font-family="sans-serif" stroke="none">adina</text>
      <path fill="none" d="M1063.6223 309.1284 L1063.1554 308.6225 L1048.8793 295.1646 L1034.3878 283.4852 L1019.6811 273.5842 L1004.759 265.4618 L989.6216 259.1178 L974.269 254.5522 L958.7009 251.7652 L942.9176 250.7566 L926.9189 251.5264 L910.705 254.0748 L894.2758 258.4016 L877.6312 264.5069 L860.7712 272.3907 L855.561 275.3389" clip-path="url(#clipPath2)"/>
      <path d="M848.5984 279.2787 L861.5048 277.7206 L856.4313 274.8464 L856.5799 269.0174 Z" clip-path="url(#clipPath2)" stroke="none"/>
      <text x="996.2126" xml:space="preserve" y="258.8359" clip-path="url(#clipPath2)" font-family="sans-serif" stroke="none">zatia_da</text>
      <path fill="none" d="M440.0328 387.7016 L421.5287 398.2052 L403.0246 405.7077 L384.5205 410.2093 L366.0164 411.7098 L347.5123 410.2093 L329.0082 405.7077 L310.5041 398.2052 L298.9573 391.6508" clip-path="url(#clipPath2)"/>
      <path d="M292 387.7016 L299.9677 397.9737 L299.8269 392.1444 L304.9042 389.2771 Z" clip-path="url(#clipPath2)" stroke="none"/>
      <text x="334.5587" xml:space="preserve" y="384.209" clip-path="url(#clipPath2)" font-family="sans-serif" stroke="none">jaioteguna</text>
      <path fill="none" d="M1072.8278 308.8988 L1069.7183 294.6344 L1067.8695 280.9819 L1067.2874 267.9691 L1067.9719 255.5961 L1069.9232 243.8629 L1073.1414 232.7694 L1077.6261 222.3157 L1083.3777 212.5018 L1090.3959 203.3276 L1098.6809 194.7932 L1108.2325 186.8986 L1117.475 180.7007 L1117.5627 180.6526" clip-path="url(#clipPath2)"/>
      <path d="M1124.4957 176.661 L1111.6014 178.3153 L1116.696 181.1516 L1116.5911 186.9816 Z" clip-path="url(#clipPath2)" stroke="none"/>
      <text x="1093.0546" xml:space="preserve" y="241.591" clip-path="url(#clipPath2)" font-family="sans-serif" stroke="none">label</text>
      <path fill="none" d="M1093.0354 309.2691 L1105.0017 299.5465 L1118.8944 289.9953 L1132.7871 282.1806 L1146.6799 276.1025 L1160.5726 271.761 L1174.4653 269.1562 L1188.3582 268.2879 L1202.2509 269.1562 L1216.1436 271.761 L1230.0364 276.1025 L1243.9291 282.1806 L1257.8218 289.9953 L1271.7145 299.5465 L1276.9834 303.8275" clip-path="url(#clipPath2)"/>
      <path d="M1283.1924 308.8722 L1277.0319 297.4246 L1276.2073 303.1969 L1270.7261 305.1858 Z" clip-path="url(#clipPath2)" stroke="none"/>
      <text x="1176.4469" xml:space="preserve" y="304.6834" clip-path="url(#clipPath2)" font-family="sans-serif" stroke="none">label</text>
      <path fill="none" d="M863.0096 400.4023 L867.5875 402.205 L885.4951 410.9695 L901.6138 420.7426 L915.9435 431.5242 L928.4843 443.3143 L939.2361 456.1131 L948.199 469.9203 L955.3729 484.7362 L960.7579 500.5605 L964.3539 517.3934 L966.161 535.2349 L966.1792 554.085 L964.4084 573.9435 L961.0035 593.9032 L960.9797 594.0004" clip-path="url(#clipPath2)"/>
      <path d="M959.1439 601.7869 L966.7642 591.2545 L961.2092 593.027 L957.0311 588.9597 Z" clip-path="url(#clipPath2)" stroke="none"/>
      <text x="853.121" xml:space="preserve" y="465.33" clip-path="url(#clipPath2)" font-family="sans-serif" stroke="none">comment</text>
    </g>
  </g>
</svg>
