<?xml version="1.0" encoding="UTF-8"?><svg xmlns="http://www.w3.org/2000/svg" xmlns:xlink="http://www.w3.org/1999/xlink" fill-opacity="1" color-rendering="auto" color-interpolation="auto" text-rendering="auto" stroke="black" stroke-linecap="square" width="737" stroke-miterlimit="10" shape-rendering="auto" stroke-opacity="1" fill="black" stroke-dasharray="none" font-weight="normal" stroke-width="1" height="285" font-family="'Dialog'" font-style="normal" stroke-linejoin="miter" font-size="12px" stroke-dashoffset="0" image-rendering="auto">
  <!--Generated by ySVG 2.6-->
  <defs id="genericDefs"/>
  <g>
    <defs id="defs1">
      <clipPath clipPathUnits="userSpaceOnUse" id="clipPath1">
        <path d="M0 0 L737 0 L737 285 L0 285 L0 0 Z"/>
      </clipPath>
      <clipPath clipPathUnits="userSpaceOnUse" id="clipPath2">
        <path d="M175 282 L912 282 L912 567 L175 567 L175 282 Z"/>
      </clipPath>
    </defs>
    <g fill="white" text-rendering="geometricPrecision" shape-rendering="geometricPrecision" transform="translate(-175,-282)" stroke="white">
      <rect x="175" width="737" height="285" y="282" clip-path="url(#clipPath2)" stroke="none"/>
    </g>
    <g fill="rgb(255,204,0)" text-rendering="geometricPrecision" shape-rendering="geometricPrecision" transform="matrix(1,0,0,1,-175,-282)" stroke="rgb(255,204,0)">
      <ellipse rx="69" ry="15" clip-path="url(#clipPath2)" cx="259.0164" cy="376.2829" stroke="none"/>
    </g>
    <g text-rendering="geometricPrecision" stroke-miterlimit="1.45" shape-rendering="geometricPrecision" transform="matrix(1,0,0,1,-175,-282)" stroke-linecap="butt">
      <ellipse rx="69" fill="none" ry="15" clip-path="url(#clipPath2)" cx="259.0164" cy="376.2829"/>
      <text x="230.0213" xml:space="preserve" y="380.4372" clip-path="url(#clipPath2)" font-family="sans-serif" stroke="none">ehu:Mikel</text>
    </g>
    <g fill="rgb(255,204,0)" text-rendering="geometricPrecision" shape-rendering="geometricPrecision" transform="matrix(1,0,0,1,-175,-282)" stroke="rgb(255,204,0)">
      <ellipse rx="69" ry="15" clip-path="url(#clipPath2)" cx="576.3891" cy="376.2829" stroke="none"/>
    </g>
    <g text-rendering="geometricPrecision" stroke-miterlimit="1.45" shape-rendering="geometricPrecision" transform="matrix(1,0,0,1,-175,-282)" stroke-linecap="butt">
      <ellipse rx="69" fill="none" ry="15" clip-path="url(#clipPath2)" cx="576.3891" cy="376.2829"/>
      <text x="548.8177" xml:space="preserve" y="380.4372" clip-path="url(#clipPath2)" font-family="sans-serif" stroke="none">eus:Bilbo</text>
    </g>
    <g fill="rgb(255,204,0)" text-rendering="geometricPrecision" shape-rendering="geometricPrecision" transform="matrix(1,0,0,1,-175,-282)" stroke="rgb(255,204,0)">
      <ellipse rx="69" ry="15" clip-path="url(#clipPath2)" cx="827.1998" cy="312.4401" stroke="none"/>
    </g>
    <g text-rendering="geometricPrecision" stroke-miterlimit="1.45" shape-rendering="geometricPrecision" transform="matrix(1,0,0,1,-175,-282)" stroke-linecap="butt">
      <ellipse rx="69" fill="none" ry="15" clip-path="url(#clipPath2)" cx="827.1998" cy="312.4401"/>
      <text x="793.1305" xml:space="preserve" y="316.5944" clip-path="url(#clipPath2)" font-family="sans-serif" stroke="none">eus:Bizkaia</text>
    </g>
    <g fill="rgb(255,204,0)" text-rendering="geometricPrecision" shape-rendering="geometricPrecision" transform="matrix(1,0,0,1,-175,-282)" stroke="rgb(255,204,0)">
      <rect x="820.7396" width="56.7012" height="30" y="423.5812" clip-path="url(#clipPath2)" stroke="none"/>
    </g>
    <g text-rendering="geometricPrecision" stroke-miterlimit="1.45" shape-rendering="geometricPrecision" transform="matrix(1,0,0,1,-175,-282)" stroke-linecap="butt">
      <rect fill="none" x="820.7396" width="56.7012" height="30" y="423.5812" clip-path="url(#clipPath2)"/>
      <text x="826.186" xml:space="preserve" y="442.7355" clip-path="url(#clipPath2)" font-family="sans-serif" stroke="none">400000</text>
    </g>
    <g stroke-linecap="round" transform="matrix(1,0,0,1,-175,-282)" stroke-dashoffset="2" text-rendering="geometricPrecision" shape-rendering="geometricPrecision" stroke-dasharray="0,8" stroke-width="2" stroke-miterlimit="1.45">
      <rect fill="none" x="361.7896" width="314.1533" height="65.1675" y="485.8708" clip-path="url(#clipPath2)"/>
    </g>
    <g text-rendering="geometricPrecision" stroke-miterlimit="1.45" shape-rendering="geometricPrecision" font-family="sans-serif" transform="matrix(1,0,0,1,-175,-282)" stroke-linecap="butt">
      <text x="391.3018" xml:space="preserve" y="501.6558" clip-path="url(#clipPath2)" stroke="none">eus: &lt;https://data.euskadi.eus/resource/&gt;</text>
      <text x="391.3018" xml:space="preserve" y="515.6245" clip-path="url(#clipPath2)" stroke="none">ehu: &lt;https://ehu.eus/staff/pdi/&gt;</text>
      <text x="391.3018" xml:space="preserve" y="529.5933" clip-path="url(#clipPath2)" stroke="none">eustat: &lt;urn:eustat:property:&gt;</text>
      <text x="391.3018" xml:space="preserve" y="543.562" clip-path="url(#clipPath2)" stroke="none">wikidata: &lt;https://wikidata.org/prop/&gt;</text>
      <path fill="none" d="M328.0164 376.2829 L350.438 366.9274 L372.8596 360.2449 L395.2812 356.2354 L417.7028 354.899 L440.1243 356.2354 L462.5459 360.2449 L484.9675 366.9274 L499.9622 373.184" clip-path="url(#clipPath2)"/>
      <path d="M507.3453 376.2646 L498.196 367.0293 L499.0393 372.7989 L494.3453 376.2581 Z" clip-path="url(#clipPath2)" stroke="none"/>
      <text x="370.5694" xml:space="preserve" y="346.541" clip-path="url(#clipPath2)" stroke="none">eustat:bizilekua</text>
      <path fill="none" d="M645.4101 376.2558 L656.1606 362.4187 L667.8835 350.2356 L680.5577 339.7337 L694.1834 330.9128 L708.7604 323.773 L724.2889 318.3143 L740.7687 314.5367 L750.223 313.3995" clip-path="url(#clipPath2)"/>
      <path d="M758.1658 312.4442 L745.6545 308.913 L749.2302 313.519 L746.8487 318.8414 Z" clip-path="url(#clipPath2)" stroke="none"/>
      <text x="636.1915" xml:space="preserve" y="323.9341" clip-path="url(#clipPath2)" stroke="none">wikidata:zatia_da</text>
      <path fill="none" d="M645.4382 376.2802 L670.5571 374.9245 L694.7969 376.1791 L718.1082 380.0468 L740.4912 386.5276 L761.9459 395.6214 L782.4722 407.3283 L802.0701 421.6482 L814.8139 433.2066" clip-path="url(#clipPath2)"/>
      <path d="M820.7396 438.5812 L815.2101 426.8158 L814.0732 432.5348 L808.4919 434.2229 Z" clip-path="url(#clipPath2)" stroke="none"/>
      <text x="685.2955" xml:space="preserve" y="379.0572" clip-path="url(#clipPath2)" stroke="none">wikidata:populazioa</text>
    </g>
  </g>
</svg>
