<?xml version="1.0" encoding="UTF-8"?><svg xmlns="http://www.w3.org/2000/svg" xmlns:xlink="http://www.w3.org/1999/xlink" fill-opacity="1" color-rendering="auto" color-interpolation="auto" text-rendering="auto" stroke="black" stroke-linecap="square" width="737" stroke-miterlimit="10" shape-rendering="auto" stroke-opacity="1" fill="black" stroke-dasharray="none" font-weight="normal" stroke-width="1" height="187" font-family="'Dialog'" font-style="normal" stroke-linejoin="miter" font-size="12px" stroke-dashoffset="0" image-rendering="auto">
  <!--Generated by ySVG 2.6-->
  <defs id="genericDefs"/>
  <g>
    <defs id="defs1">
      <clipPath clipPathUnits="userSpaceOnUse" id="clipPath1">
        <path d="M0 0 L737 0 L737 187 L0 187 L0 0 Z"/>
      </clipPath>
      <clipPath clipPathUnits="userSpaceOnUse" id="clipPath2">
        <path d="M149 257 L886 257 L886 444 L149 444 L149 257 Z"/>
      </clipPath>
    </defs>
    <g fill="white" text-rendering="geometricPrecision" shape-rendering="geometricPrecision" transform="translate(-149,-257)" stroke="white">
      <rect x="149" width="737" height="187" y="257" clip-path="url(#clipPath2)" stroke="none"/>
    </g>
    <g fill="rgb(255,204,0)" text-rendering="geometricPrecision" shape-rendering="geometricPrecision" transform="matrix(1,0,0,1,-149,-257)" stroke="rgb(255,204,0)">
      <ellipse rx="69" ry="15" clip-path="url(#clipPath2)" cx="233.5082" cy="351.0628" stroke="none"/>
    </g>
    <g text-rendering="geometricPrecision" stroke-miterlimit="1.45" shape-rendering="geometricPrecision" transform="matrix(1,0,0,1,-149,-257)" stroke-linecap="butt">
      <ellipse rx="69" fill="none" ry="15" clip-path="url(#clipPath2)" cx="233.5082" cy="351.0628"/>
      <text x="217.8315" xml:space="preserve" y="355.2171" clip-path="url(#clipPath2)" font-family="sans-serif" stroke="none">Mikel</text>
    </g>
    <g fill="rgb(255,204,0)" text-rendering="geometricPrecision" shape-rendering="geometricPrecision" transform="matrix(1,0,0,1,-149,-257)" stroke="rgb(255,204,0)">
      <ellipse rx="69" ry="15" clip-path="url(#clipPath2)" cx="550.8809" cy="351.0628" stroke="none"/>
    </g>
    <g text-rendering="geometricPrecision" stroke-miterlimit="1.45" shape-rendering="geometricPrecision" transform="matrix(1,0,0,1,-149,-257)" stroke-linecap="butt">
      <ellipse rx="69" fill="none" ry="15" clip-path="url(#clipPath2)" cx="550.8809" cy="351.0628"/>
      <text x="535.9512" xml:space="preserve" y="355.2171" clip-path="url(#clipPath2)" font-family="sans-serif" stroke="none">Bilbo</text>
    </g>
    <g fill="rgb(255,204,0)" text-rendering="geometricPrecision" shape-rendering="geometricPrecision" transform="matrix(1,0,0,1,-149,-257)" stroke="rgb(255,204,0)">
      <ellipse rx="69" ry="15" clip-path="url(#clipPath2)" cx="801.6916" cy="287.2201" stroke="none"/>
    </g>
    <g text-rendering="geometricPrecision" stroke-miterlimit="1.45" shape-rendering="geometricPrecision" transform="matrix(1,0,0,1,-149,-257)" stroke-linecap="butt">
      <ellipse rx="69" fill="none" ry="15" clip-path="url(#clipPath2)" cx="801.6916" cy="287.2201"/>
      <text x="780.2639" xml:space="preserve" y="291.3744" clip-path="url(#clipPath2)" font-family="sans-serif" stroke="none">Bizkaia</text>
    </g>
    <g fill="rgb(255,204,0)" text-rendering="geometricPrecision" shape-rendering="geometricPrecision" transform="matrix(1,0,0,1,-149,-257)" stroke="rgb(255,204,0)">
      <rect x="795.2314" width="56.7012" height="30" y="398.3611" clip-path="url(#clipPath2)" stroke="none"/>
    </g>
    <g text-rendering="geometricPrecision" stroke-miterlimit="1.45" shape-rendering="geometricPrecision" transform="matrix(1,0,0,1,-149,-257)" stroke-linecap="butt">
      <rect fill="none" x="795.2314" width="56.7012" height="30" y="398.3611" clip-path="url(#clipPath2)"/>
      <text x="800.6777" xml:space="preserve" y="417.5154" clip-path="url(#clipPath2)" font-family="sans-serif" stroke="none">400000</text>
      <path fill="none" d="M302.5082 351.0628 L324.9298 341.7073 L347.3514 335.0249 L369.7729 331.0154 L392.1945 329.6789 L414.6161 331.0154 L437.0377 335.0249 L459.4593 341.7073 L474.454 347.9639" clip-path="url(#clipPath2)"/>
      <path d="M481.8371 351.0445 L472.6878 341.8092 L473.5311 347.5789 L468.8371 351.0381 Z" clip-path="url(#clipPath2)" stroke="none"/>
      <text x="366.0846" xml:space="preserve" y="321.3209" clip-path="url(#clipPath2)" font-family="sans-serif" stroke="none">bizilekua</text>
      <path fill="none" d="M619.8809 351.0628 L630.6524 337.1986 L642.3753 325.0156 L655.0496 314.5136 L668.6752 305.6927 L683.2523 298.5529 L698.7806 293.0942 L715.2604 289.3166 L724.7488 288.1754" clip-path="url(#clipPath2)"/>
      <path d="M732.6916 287.2201 L720.1804 283.6888 L723.756 288.2948 L721.3745 293.6173 Z" clip-path="url(#clipPath2)" stroke="none"/>
      <text x="637.9352" xml:space="preserve" y="298.714" clip-path="url(#clipPath2)" font-family="sans-serif" stroke="none">zatia_da</text>
      <path fill="none" d="M619.8809 351.0628 L645.049 349.7044 L669.2887 350.9591 L692.6 354.8268 L714.983 361.3076 L736.4377 370.4014 L756.964 382.1082 L776.5619 396.4281 L789.2693 407.9535" clip-path="url(#clipPath2)"/>
      <path d="M795.195 413.328 L789.6655 401.5626 L788.5286 407.2817 L782.9473 408.9698 Z" clip-path="url(#clipPath2)" stroke="none"/>
      <text x="688.012" xml:space="preserve" y="353.8372" clip-path="url(#clipPath2)" font-family="sans-serif" stroke="none">biztanleria</text>
    </g>
  </g>
</svg>
