<?xml version="1.0" encoding="UTF-8"?><svg xmlns="http://www.w3.org/2000/svg" xmlns:xlink="http://www.w3.org/1999/xlink" fill-opacity="1" color-rendering="auto" color-interpolation="auto" text-rendering="auto" stroke="black" stroke-linecap="square" width="1343" stroke-miterlimit="10" shape-rendering="auto" stroke-opacity="1" fill="black" stroke-dasharray="none" font-weight="normal" stroke-width="1" height="736" font-family="'Dialog'" font-style="normal" stroke-linejoin="miter" font-size="12px" stroke-dashoffset="0" image-rendering="auto">
  <!--Generated by ySVG 2.6-->
  <defs id="genericDefs"/>
  <g>
    <defs id="defs1">
      <clipPath clipPathUnits="userSpaceOnUse" id="clipPath1">
        <path d="M0 0 L1343 0 L1343 736 L0 736 L0 0 Z"/>
      </clipPath>
      <clipPath clipPathUnits="userSpaceOnUse" id="clipPath2">
        <path d="M222 300 L1565 300 L1565 1036 L222 1036 L222 300 Z"/>
      </clipPath>
    </defs>
    <g fill="white" text-rendering="geometricPrecision" shape-rendering="geometricPrecision" transform="translate(-222,-300)" stroke="white">
      <rect x="222" width="1343" height="736" y="300" clip-path="url(#clipPath2)" stroke="none"/>
    </g>
    <g stroke-linecap="butt" transform="matrix(1,0,0,1,-222,-300)" fill="silver" text-rendering="geometricPrecision" shape-rendering="geometricPrecision" stroke-dasharray="12,4" stroke="silver" stroke-width="2" stroke-miterlimit="1.45">
      <ellipse rx="331.5" fill="none" ry="127.5" clip-path="url(#clipPath2)" cx="681.5" cy="893.5"/>
      <ellipse rx="451" fill="none" ry="183" clip-path="url(#clipPath2)" cx="688" cy="498"/>
    </g>
    <g fill="rgb(255,204,0)" text-rendering="geometricPrecision" shape-rendering="geometricPrecision" transform="matrix(1,0,0,1,-222,-300)" stroke="rgb(255,204,0)">
      <ellipse rx="69" ry="15" clip-path="url(#clipPath2)" cx="334.0328" cy="451.723" stroke="none"/>
    </g>
    <g text-rendering="geometricPrecision" stroke-miterlimit="1.45" shape-rendering="geometricPrecision" transform="matrix(1,0,0,1,-222,-300)" stroke-linecap="butt">
      <ellipse rx="69" fill="none" ry="15" clip-path="url(#clipPath2)" cx="334.0328" cy="451.723"/>
      <text x="305.0377" xml:space="preserve" y="455.8773" clip-path="url(#clipPath2)" font-family="sans-serif" stroke="none">ehu:Mikel</text>
    </g>
    <g fill="rgb(255,204,0)" text-rendering="geometricPrecision" shape-rendering="geometricPrecision" transform="matrix(1,0,0,1,-222,-300)" stroke="rgb(255,204,0)">
      <ellipse rx="69" ry="15" clip-path="url(#clipPath2)" cx="651.4055" cy="451.723" stroke="none"/>
    </g>
    <g text-rendering="geometricPrecision" stroke-miterlimit="1.45" shape-rendering="geometricPrecision" transform="matrix(1,0,0,1,-222,-300)" stroke-linecap="butt">
      <ellipse rx="69" fill="none" ry="15" clip-path="url(#clipPath2)" cx="651.4055" cy="451.723"/>
      <text x="623.8342" xml:space="preserve" y="455.8773" clip-path="url(#clipPath2)" font-family="sans-serif" stroke="none">eus:Bilbo</text>
    </g>
    <g fill="rgb(255,204,0)" text-rendering="geometricPrecision" shape-rendering="geometricPrecision" transform="matrix(1,0,0,1,-222,-300)" stroke="rgb(255,204,0)">
      <ellipse rx="69" ry="15" clip-path="url(#clipPath2)" cx="902.2162" cy="387.8803" stroke="none"/>
    </g>
    <g text-rendering="geometricPrecision" stroke-miterlimit="1.45" shape-rendering="geometricPrecision" transform="matrix(1,0,0,1,-222,-300)" stroke-linecap="butt">
      <ellipse rx="69" fill="none" ry="15" clip-path="url(#clipPath2)" cx="902.2162" cy="387.8803"/>
      <text x="868.1469" xml:space="preserve" y="392.0345" clip-path="url(#clipPath2)" font-family="sans-serif" stroke="none">eus:Bizkaia</text>
    </g>
    <g fill="rgb(255,204,0)" text-rendering="geometricPrecision" shape-rendering="geometricPrecision" transform="matrix(1,0,0,1,-222,-300)" stroke="rgb(255,204,0)">
      <rect x="895.7561" width="56.7012" height="30" y="499.0213" clip-path="url(#clipPath2)" stroke="none"/>
    </g>
    <g text-rendering="geometricPrecision" stroke-miterlimit="1.45" shape-rendering="geometricPrecision" transform="matrix(1,0,0,1,-222,-300)" stroke-linecap="butt">
      <rect fill="none" x="895.7561" width="56.7012" height="30" y="499.0213" clip-path="url(#clipPath2)"/>
      <text x="901.2024" xml:space="preserve" y="518.1756" clip-path="url(#clipPath2)" font-family="sans-serif" stroke="none">400000</text>
    </g>
    <g stroke-linecap="round" transform="matrix(1,0,0,1,-222,-300)" stroke-dashoffset="2" text-rendering="geometricPrecision" shape-rendering="geometricPrecision" stroke-dasharray="0,8" stroke-width="2" stroke-miterlimit="1.45">
      <rect fill="none" x="436.8061" width="314.1533" height="65.1675" y="561.311" clip-path="url(#clipPath2)"/>
    </g>
    <g text-rendering="geometricPrecision" stroke-miterlimit="1.45" shape-rendering="geometricPrecision" font-family="sans-serif" transform="matrix(1,0,0,1,-222,-300)" stroke-linecap="butt">
      <text x="466.3182" xml:space="preserve" y="577.0959" clip-path="url(#clipPath2)" stroke="none">eus: &lt;https://data.euskadi.eus/resource/&gt;</text>
      <text x="466.3182" xml:space="preserve" y="591.0646" clip-path="url(#clipPath2)" stroke="none">ehu: &lt;https://ehu.eus/staff/pdi/&gt;</text>
      <text x="466.3182" xml:space="preserve" y="605.0334" clip-path="url(#clipPath2)" stroke="none">eustat:&lt;urn:eustat:property:&gt;</text>
      <text x="466.3182" xml:space="preserve" y="619.0021" clip-path="url(#clipPath2)" stroke="none">wikidata: &lt;https://wikidata.org/prop/&gt;</text>
    </g>
    <g fill="rgb(255,204,0)" text-rendering="geometricPrecision" shape-rendering="geometricPrecision" transform="matrix(1,0,0,1,-222,-300)" stroke="rgb(255,204,0)">
      <ellipse rx="106.5" ry="31.5106" clip-path="url(#clipPath2)" cx="1152.5" cy="479.5106" stroke="none"/>
    </g>
    <g text-rendering="geometricPrecision" stroke-miterlimit="1.45" shape-rendering="geometricPrecision" transform="matrix(1,0,0,1,-222,-300)" stroke-linecap="butt">
      <ellipse rx="106.5" fill="none" ry="31.5106" clip-path="url(#clipPath2)" cx="1152.5" cy="479.5106"/>
      <text x="1082.0381" xml:space="preserve" y="483.6649" clip-path="url(#clipPath2)" font-family="sans-serif" stroke="none">urn:data:graph:euskadi</text>
    </g>
    <g fill="rgb(255,204,0)" text-rendering="geometricPrecision" shape-rendering="geometricPrecision" transform="matrix(1,0,0,1,-222,-300)" stroke="rgb(255,204,0)">
      <ellipse rx="54" ry="29" clip-path="url(#clipPath2)" cx="1472.5" cy="561.0213" stroke="none"/>
    </g>
    <g text-rendering="geometricPrecision" stroke-miterlimit="1.45" shape-rendering="geometricPrecision" transform="matrix(1,0,0,1,-222,-300)" stroke-linecap="butt">
      <ellipse rx="54" fill="none" ry="29" clip-path="url(#clipPath2)" cx="1472.5" cy="561.0213"/>
      <text x="1441.3369" xml:space="preserve" y="565.1756" clip-path="url(#clipPath2)" font-family="sans-serif" stroke="none">estatistika</text>
    </g>
    <g fill="rgb(255,204,0)" text-rendering="geometricPrecision" shape-rendering="geometricPrecision" transform="matrix(1,0,0,1,-222,-300)" stroke="rgb(255,204,0)">
      <rect x="1395" width="155" height="30" y="361" clip-path="url(#clipPath2)" stroke="none"/>
    </g>
    <g text-rendering="geometricPrecision" stroke-miterlimit="1.45" shape-rendering="geometricPrecision" transform="matrix(1,0,0,1,-222,-300)" stroke-linecap="butt">
      <rect fill="none" x="1395" width="155" height="30" y="361" clip-path="url(#clipPath2)"/>
      <text x="1402.6299" xml:space="preserve" y="380.1543" clip-path="url(#clipPath2)" font-family="sans-serif" stroke="none">Mikel Egaña Aranguren</text>
    </g>
    <g fill="rgb(255,204,0)" text-rendering="geometricPrecision" shape-rendering="geometricPrecision" transform="matrix(1,0,0,1,-222,-300)" stroke="rgb(255,204,0)">
      <ellipse rx="128" ry="32.5837" clip-path="url(#clipPath2)" cx="1028" cy="908.0297" stroke="none"/>
    </g>
    <g text-rendering="geometricPrecision" stroke-miterlimit="1.45" shape-rendering="geometricPrecision" transform="matrix(1,0,0,1,-222,-300)" stroke-linecap="butt">
      <ellipse rx="128" fill="none" ry="32.5837" clip-path="url(#clipPath2)" cx="1028" cy="908.0297"/>
      <text x="918.3711" xml:space="preserve" y="912.184" clip-path="url(#clipPath2)" font-family="sans-serif" stroke="none">http://data.seguridad-social.org/lana</text>
    </g>
    <g fill="rgb(255,204,0)" text-rendering="geometricPrecision" shape-rendering="geometricPrecision" transform="matrix(1,0,0,1,-222,-300)" stroke="rgb(255,204,0)">
      <ellipse rx="69" ry="15" clip-path="url(#clipPath2)" cx="558.0656" cy="830.446" stroke="none"/>
    </g>
    <g text-rendering="geometricPrecision" stroke-miterlimit="1.45" shape-rendering="geometricPrecision" transform="matrix(1,0,0,1,-222,-300)" stroke-linecap="butt">
      <ellipse rx="69" fill="none" ry="15" clip-path="url(#clipPath2)" cx="558.0656" cy="830.446"/>
      <text x="529.0705" xml:space="preserve" y="834.6003" clip-path="url(#clipPath2)" font-family="sans-serif" stroke="none">ehu:Mikel</text>
    </g>
    <g fill="rgb(255,204,0)" text-rendering="geometricPrecision" shape-rendering="geometricPrecision" transform="matrix(1,0,0,1,-222,-300)" stroke="rgb(255,204,0)">
      <ellipse rx="69" ry="15" clip-path="url(#clipPath2)" cx="840.2162" cy="830.446" stroke="none"/>
    </g>
    <g text-rendering="geometricPrecision" stroke-miterlimit="1.45" shape-rendering="geometricPrecision" transform="matrix(1,0,0,1,-222,-300)" stroke-linecap="butt">
      <ellipse rx="69" fill="none" ry="15" clip-path="url(#clipPath2)" cx="840.2162" cy="830.446"/>
      <text x="802.9506" xml:space="preserve" y="834.6003" clip-path="url(#clipPath2)" font-family="sans-serif" stroke="none">eus:ehu-upv</text>
    </g>
    <g stroke-linecap="round" transform="matrix(1,0,0,1,-222,-300)" stroke-dashoffset="2" text-rendering="geometricPrecision" shape-rendering="geometricPrecision" stroke-dasharray="0,8" stroke-width="2" stroke-miterlimit="1.45">
      <rect fill="none" x="446.4234" width="314.1533" height="65.1675" y="907.6219" clip-path="url(#clipPath2)"/>
    </g>
    <g text-rendering="geometricPrecision" stroke-miterlimit="1.45" shape-rendering="geometricPrecision" font-family="sans-serif" transform="matrix(1,0,0,1,-222,-300)" stroke-linecap="butt">
      <text x="475.9355" xml:space="preserve" y="930.3912" clip-path="url(#clipPath2)" stroke="none">eus: &lt;https://data.euskadi.eus/resource/&gt;</text>
      <text x="475.9355" xml:space="preserve" y="944.36" clip-path="url(#clipPath2)" stroke="none">ehu: &lt;https://ehu.eus/staff/pdi/&gt;</text>
      <text x="475.9355" xml:space="preserve" y="958.3287" clip-path="url(#clipPath2)" stroke="none">schema: &lt;https://schema.org/&gt;</text>
      <path fill="none" d="M403.0766 451.7047 L425.4544 442.3675 L447.876 435.6851 L470.2975 431.6756 L492.7191 430.3391 L515.1407 431.6756 L537.5623 435.6851 L559.9839 442.3675 L575.0224 448.6424" clip-path="url(#clipPath2)"/>
      <path d="M582.4055 451.723 L573.2562 442.4877 L574.0995 448.2573 L569.4055 451.7165 Z" clip-path="url(#clipPath2)" stroke="none"/>
      <text x="445.5858" xml:space="preserve" y="421.9811" clip-path="url(#clipPath2)" stroke="none">eustat:bizilekua</text>
      <path fill="none" d="M720.4265 451.6959 L731.177 437.8588 L742.8999 425.6758 L755.5742 415.1738 L769.1998 406.3529 L783.7769 399.2131 L799.3053 393.7544 L815.7851 389.9768 L825.2394 388.8397" clip-path="url(#clipPath2)"/>
      <path d="M833.1822 387.8843 L820.671 384.3531 L824.2466 388.9591 L821.8651 394.2816 Z" clip-path="url(#clipPath2)" stroke="none"/>
      <text x="711.2079" xml:space="preserve" y="399.3742" clip-path="url(#clipPath2)" stroke="none">wikidata:zatia_da</text>
      <path fill="none" d="M720.4546 451.7203 L745.5735 450.3646 L769.8132 451.6193 L793.1246 455.487 L815.5076 461.9677 L836.9623 471.0615 L857.4885 482.7684 L877.0865 497.0883 L889.8303 508.6468" clip-path="url(#clipPath2)"/>
      <path d="M895.756 514.0213 L890.2266 502.2559 L889.0896 507.9749 L883.5084 509.6631 Z" clip-path="url(#clipPath2)" stroke="none"/>
      <text x="760.312" xml:space="preserve" y="454.4973" clip-path="url(#clipPath2)" stroke="none">wikidata:populazioa</text>
      <path fill="none" d="M1259 479.5107 L1283.777 480.2296 L1307.1713 483.6542 L1329.1827 489.7845 L1349.8116 498.6205 L1369.0577 510.1622 L1386.9213 524.4095 L1403.402 541.3625 L1413.6272 554.6766" clip-path="url(#clipPath2)"/>
      <path d="M1418.5 561.0213 L1415.1562 548.4587 L1413.0181 553.8835 L1407.2253 554.5497 Z" clip-path="url(#clipPath2)" stroke="none"/>
      <text x="1340.8312" xml:space="preserve" y="473.4178" clip-path="url(#clipPath2)" stroke="none">arloa</text>
      <path fill="none" d="M1259 479.5107 L1261.4349 465.0725 L1264.6785 451.6968 L1268.7308 439.3836 L1273.5918 428.133 L1279.2614 417.9448 L1285.7396 408.8192 L1293.0266 400.756 L1301.1223 393.7553 L1310.0266 387.8171 L1319.7396 382.9415 L1330.2614 379.1283 L1341.5918 376.3777 L1353.7308 374.6895 L1366.6785 374.0638 L1380.4349 374.5007 L1387.0137 375.1779" clip-path="url(#clipPath2)"/>
      <path d="M1394.9717 375.9971 L1383.5468 369.7946 L1386.019 375.0755 L1382.5227 379.742 Z" clip-path="url(#clipPath2)" stroke="none"/>
      <text x="1298.4375" xml:space="preserve" y="423.9089" clip-path="url(#clipPath2)" stroke="none">autorea</text>
      <path fill="none" d="M1155.9797 908.1404 L1161.8486 907.6599 L1201.2849 900.9013 L1238.1311 890.8251 L1255.583 884.5428 L1272.3875 877.4312 L1288.5443 869.4901 L1304.0536 860.7196 L1318.9155 851.1198 L1333.1299 840.6904 L1346.6968 829.4317 L1359.6161 817.3436 L1371.8881 804.426 L1383.5125 790.6791 L1394.4893 776.1027 L1404.8186 760.6969 L1423.5349 727.3971 L1439.6611 690.7796 L1453.1975 650.8445 L1464.1437 607.5917 L1465.9052 597.7747" clip-path="url(#clipPath2)"/>
      <path d="M1467.3181 589.9005 L1460.2773 600.8287 L1465.7285 598.759 L1470.1201 602.595 Z" clip-path="url(#clipPath2)" stroke="none"/>
      <text x="1306.2224" xml:space="preserve" y="801.1607" clip-path="url(#clipPath2)" stroke="none">arloa</text>
      <path fill="none" d="M627.1008 830.4584 L645.0845 836.7889 L663.1033 841.3196 L681.1221 844.038 L699.1409 844.9441 L717.1598 844.038 L735.1786 841.3196 L753.1974 836.7889 L763.6349 833.1147" clip-path="url(#clipPath2)"/>
      <path d="M771.181 830.4584 L758.2016 829.7266 L762.6916 833.4468 L761.522 839.1592 Z" clip-path="url(#clipPath2)" stroke="none"/>
      <text x="640.5286" xml:space="preserve" y="878.5093" clip-path="url(#clipPath2)" stroke="none">schema:worksFor</text>
    </g>
  </g>
</svg>
