<?xml version="1.0" encoding="UTF-8"?><svg xmlns="http://www.w3.org/2000/svg" xmlns:xlink="http://www.w3.org/1999/xlink" fill-opacity="1" color-rendering="auto" color-interpolation="auto" text-rendering="auto" stroke="black" stroke-linecap="square" width="1052" stroke-miterlimit="10" shape-rendering="auto" stroke-opacity="1" fill="black" stroke-dasharray="none" font-weight="normal" stroke-width="1" height="396" font-family="'Dialog'" font-style="normal" stroke-linejoin="miter" font-size="12px" stroke-dashoffset="0" image-rendering="auto">
  <!--Generated by ySVG 2.6-->
  <defs id="genericDefs"/>
  <g>
    <defs id="defs1">
      <clipPath clipPathUnits="userSpaceOnUse" id="clipPath1">
        <path d="M0 0 L1052 0 L1052 396 L0 396 L0 0 Z"/>
      </clipPath>
      <clipPath clipPathUnits="userSpaceOnUse" id="clipPath2">
        <path d="M172 250 L1224 250 L1224 646 L172 646 L172 250 Z"/>
      </clipPath>
    </defs>
    <g fill="white" text-rendering="geometricPrecision" shape-rendering="geometricPrecision" transform="translate(-172,-250)" stroke="white">
      <rect x="172" width="1052" height="396" y="250" clip-path="url(#clipPath2)" stroke="none"/>
    </g>
    <g stroke-linecap="butt" transform="matrix(1,0,0,1,-172,-250)" fill="silver" text-rendering="geometricPrecision" shape-rendering="geometricPrecision" stroke-dasharray="12,4" stroke="silver" stroke-width="2" stroke-miterlimit="1.45">
      <ellipse rx="451" fill="none" ry="183" clip-path="url(#clipPath2)" cx="638" cy="448"/>
    </g>
    <g fill="rgb(255,204,0)" text-rendering="geometricPrecision" shape-rendering="geometricPrecision" transform="matrix(1,0,0,1,-172,-250)" stroke="rgb(255,204,0)">
      <ellipse rx="69" ry="15" clip-path="url(#clipPath2)" cx="284.0328" cy="401.723" stroke="none"/>
    </g>
    <g text-rendering="geometricPrecision" stroke-miterlimit="1.45" shape-rendering="geometricPrecision" transform="matrix(1,0,0,1,-172,-250)" stroke-linecap="butt">
      <ellipse rx="69" fill="none" ry="15" clip-path="url(#clipPath2)" cx="284.0328" cy="401.723"/>
      <text x="255.0377" xml:space="preserve" y="405.8773" clip-path="url(#clipPath2)" font-family="sans-serif" stroke="none">ehu:Mikel</text>
    </g>
    <g fill="rgb(255,204,0)" text-rendering="geometricPrecision" shape-rendering="geometricPrecision" transform="matrix(1,0,0,1,-172,-250)" stroke="rgb(255,204,0)">
      <ellipse rx="69" ry="15" clip-path="url(#clipPath2)" cx="601.4055" cy="401.723" stroke="none"/>
    </g>
    <g text-rendering="geometricPrecision" stroke-miterlimit="1.45" shape-rendering="geometricPrecision" transform="matrix(1,0,0,1,-172,-250)" stroke-linecap="butt">
      <ellipse rx="69" fill="none" ry="15" clip-path="url(#clipPath2)" cx="601.4055" cy="401.723"/>
      <text x="573.8342" xml:space="preserve" y="405.8773" clip-path="url(#clipPath2)" font-family="sans-serif" stroke="none">eus:Bilbo</text>
    </g>
    <g fill="rgb(255,204,0)" text-rendering="geometricPrecision" shape-rendering="geometricPrecision" transform="matrix(1,0,0,1,-172,-250)" stroke="rgb(255,204,0)">
      <ellipse rx="69" ry="15" clip-path="url(#clipPath2)" cx="852.2162" cy="337.8803" stroke="none"/>
    </g>
    <g text-rendering="geometricPrecision" stroke-miterlimit="1.45" shape-rendering="geometricPrecision" transform="matrix(1,0,0,1,-172,-250)" stroke-linecap="butt">
      <ellipse rx="69" fill="none" ry="15" clip-path="url(#clipPath2)" cx="852.2162" cy="337.8803"/>
      <text x="818.1469" xml:space="preserve" y="342.0345" clip-path="url(#clipPath2)" font-family="sans-serif" stroke="none">eus:Bizkaia</text>
    </g>
    <g fill="rgb(255,204,0)" text-rendering="geometricPrecision" shape-rendering="geometricPrecision" transform="matrix(1,0,0,1,-172,-250)" stroke="rgb(255,204,0)">
      <rect x="845.7561" width="56.7012" height="30" y="449.0213" clip-path="url(#clipPath2)" stroke="none"/>
    </g>
    <g text-rendering="geometricPrecision" stroke-miterlimit="1.45" shape-rendering="geometricPrecision" transform="matrix(1,0,0,1,-172,-250)" stroke-linecap="butt">
      <rect fill="none" x="845.7561" width="56.7012" height="30" y="449.0213" clip-path="url(#clipPath2)"/>
      <text x="851.2024" xml:space="preserve" y="468.1756" clip-path="url(#clipPath2)" font-family="sans-serif" stroke="none">400000</text>
    </g>
    <g stroke-linecap="round" transform="matrix(1,0,0,1,-172,-250)" stroke-dashoffset="2" text-rendering="geometricPrecision" shape-rendering="geometricPrecision" stroke-dasharray="0,8" stroke-width="2" stroke-miterlimit="1.45">
      <rect fill="none" x="386.8061" width="314.1533" height="65.1675" y="511.311" clip-path="url(#clipPath2)"/>
    </g>
    <g text-rendering="geometricPrecision" stroke-miterlimit="1.45" shape-rendering="geometricPrecision" font-family="sans-serif" transform="matrix(1,0,0,1,-172,-250)" stroke-linecap="butt">
      <text x="416.3182" xml:space="preserve" y="527.0959" clip-path="url(#clipPath2)" stroke="none">eus: &lt;https://data.euskadi.eus/resource/&gt;</text>
      <text x="416.3182" xml:space="preserve" y="541.0646" clip-path="url(#clipPath2)" stroke="none">ehu: &lt;https://ehu.eus/staff/pdi/&gt;</text>
      <text x="416.3182" xml:space="preserve" y="555.0334" clip-path="url(#clipPath2)" stroke="none">eustat:&lt;urn:eustat:property:&gt;</text>
      <text x="416.3182" xml:space="preserve" y="569.0021" clip-path="url(#clipPath2)" stroke="none">wikidata: &lt;https://wikidata.org/prop/&gt;</text>
    </g>
    <g fill="rgb(255,204,0)" text-rendering="geometricPrecision" shape-rendering="geometricPrecision" transform="matrix(1,0,0,1,-172,-250)" stroke="rgb(255,204,0)">
      <ellipse rx="106.5" ry="31.5106" clip-path="url(#clipPath2)" cx="1102.5" cy="429.5106" stroke="none"/>
    </g>
    <g text-rendering="geometricPrecision" stroke-miterlimit="1.45" shape-rendering="geometricPrecision" transform="matrix(1,0,0,1,-172,-250)" stroke-linecap="butt">
      <ellipse rx="106.5" fill="none" ry="31.5106" clip-path="url(#clipPath2)" cx="1102.5" cy="429.5106"/>
      <text x="1032.0381" xml:space="preserve" y="433.6649" clip-path="url(#clipPath2)" font-family="sans-serif" stroke="none">urn:data:graph:euskadi</text>
      <path fill="none" d="M353.0766 401.7047 L375.4544 392.3675 L397.876 385.6851 L420.2975 381.6756 L442.7191 380.3391 L465.1407 381.6756 L487.5623 385.6851 L509.9839 392.3675 L525.0224 398.6424" clip-path="url(#clipPath2)"/>
      <path d="M532.4055 401.723 L523.2562 392.4877 L524.0995 398.2573 L519.4055 401.7165 Z" clip-path="url(#clipPath2)" stroke="none"/>
      <text x="395.5858" xml:space="preserve" y="371.9811" clip-path="url(#clipPath2)" font-family="sans-serif" stroke="none">eustat:bizilekua</text>
      <path fill="none" d="M670.4265 401.6959 L681.177 387.8588 L692.8999 375.6758 L705.5742 365.1738 L719.1998 356.3529 L733.7769 349.2131 L749.3053 343.7544 L765.7851 339.9768 L775.2394 338.8397" clip-path="url(#clipPath2)"/>
      <path d="M783.1822 337.8843 L770.671 334.3531 L774.2466 338.9591 L771.8651 344.2816 Z" clip-path="url(#clipPath2)" stroke="none"/>
      <text x="659.7343" xml:space="preserve" y="349.3742" clip-path="url(#clipPath2)" font-family="sans-serif" stroke="none">wikidata:parte_da</text>
      <path fill="none" d="M670.4546 401.7203 L695.5735 400.3646 L719.8132 401.6193 L743.1246 405.487 L765.5076 411.9677 L786.9623 421.0615 L807.4885 432.7684 L827.0865 447.0883 L839.8303 458.6468" clip-path="url(#clipPath2)"/>
      <path d="M845.756 464.0213 L840.2266 452.2559 L839.0896 457.9749 L833.5084 459.6631 Z" clip-path="url(#clipPath2)" stroke="none"/>
      <text x="710.312" xml:space="preserve" y="404.4973" clip-path="url(#clipPath2)" font-family="sans-serif" stroke="none">wikidata:populazioa</text>
    </g>
  </g>
</svg>
