<?xml version="1.0" encoding="UTF-8"?><svg xmlns="http://www.w3.org/2000/svg" xmlns:xlink="http://www.w3.org/1999/xlink" fill-opacity="1" color-rendering="auto" color-interpolation="auto" text-rendering="auto" stroke="black" stroke-linecap="square" width="1315" stroke-miterlimit="10" shape-rendering="auto" stroke-opacity="1" fill="black" stroke-dasharray="none" font-weight="normal" stroke-width="1" height="610" font-family="'Dialog'" font-style="normal" stroke-linejoin="miter" font-size="12px" stroke-dashoffset="0" image-rendering="auto">
  <!--Generated by ySVG 2.6-->
  <defs id="genericDefs"/>
  <g>
    <defs id="defs1">
      <clipPath clipPathUnits="userSpaceOnUse" id="clipPath1">
        <path d="M0 0 L1315 0 L1315 610 L0 610 L0 0 Z"/>
      </clipPath>
      <clipPath clipPathUnits="userSpaceOnUse" id="clipPath2">
        <path d="M32 135 L1347 135 L1347 745 L32 745 L32 135 Z"/>
      </clipPath>
    </defs>
    <g fill="white" text-rendering="geometricPrecision" shape-rendering="geometricPrecision" transform="translate(-32,-135)" stroke="white">
      <rect x="32" width="1315" height="610" y="135" clip-path="url(#clipPath2)" stroke="none"/>
    </g>
    <g fill="rgb(255,204,0)" text-rendering="geometricPrecision" shape-rendering="geometricPrecision" transform="matrix(1,0,0,1,-32,-135)" stroke="rgb(255,204,0)">
      <ellipse rx="69" ry="15" clip-path="url(#clipPath2)" cx="116.0328" cy="240.723" stroke="none"/>
    </g>
    <g text-rendering="geometricPrecision" stroke-miterlimit="1.45" shape-rendering="geometricPrecision" transform="matrix(1,0,0,1,-32,-135)" stroke-linecap="butt">
      <ellipse rx="69" fill="none" ry="15" clip-path="url(#clipPath2)" cx="116.0328" cy="240.723"/>
      <text x="87.0377" xml:space="preserve" y="244.8773" clip-path="url(#clipPath2)" font-family="sans-serif" stroke="none">ehu:Mikel</text>
    </g>
    <g fill="rgb(255,204,0)" text-rendering="geometricPrecision" shape-rendering="geometricPrecision" transform="matrix(1,0,0,1,-32,-135)" stroke="rgb(255,204,0)">
      <ellipse rx="69" ry="15" clip-path="url(#clipPath2)" cx="433.4055" cy="240.723" stroke="none"/>
    </g>
    <g text-rendering="geometricPrecision" stroke-miterlimit="1.45" shape-rendering="geometricPrecision" transform="matrix(1,0,0,1,-32,-135)" stroke-linecap="butt">
      <ellipse rx="69" fill="none" ry="15" clip-path="url(#clipPath2)" cx="433.4055" cy="240.723"/>
      <text x="405.8342" xml:space="preserve" y="244.8773" clip-path="url(#clipPath2)" font-family="sans-serif" stroke="none">eus:Bilbo</text>
    </g>
    <g fill="rgb(255,204,0)" text-rendering="geometricPrecision" shape-rendering="geometricPrecision" transform="matrix(1,0,0,1,-32,-135)" stroke="rgb(255,204,0)">
      <ellipse rx="69" ry="15" clip-path="url(#clipPath2)" cx="684.2162" cy="176.8803" stroke="none"/>
    </g>
    <g text-rendering="geometricPrecision" stroke-miterlimit="1.45" shape-rendering="geometricPrecision" transform="matrix(1,0,0,1,-32,-135)" stroke-linecap="butt">
      <ellipse rx="69" fill="none" ry="15" clip-path="url(#clipPath2)" cx="684.2162" cy="176.8803"/>
      <text x="650.1469" xml:space="preserve" y="181.0346" clip-path="url(#clipPath2)" font-family="sans-serif" stroke="none">eus:Bizkaia</text>
    </g>
    <g fill="rgb(255,204,0)" text-rendering="geometricPrecision" shape-rendering="geometricPrecision" transform="matrix(1,0,0,1,-32,-135)" stroke="rgb(255,204,0)">
      <rect x="677.7561" width="56.7012" height="30" y="288.0213" clip-path="url(#clipPath2)" stroke="none"/>
    </g>
    <g text-rendering="geometricPrecision" stroke-miterlimit="1.45" shape-rendering="geometricPrecision" transform="matrix(1,0,0,1,-32,-135)" stroke-linecap="butt">
      <rect fill="none" x="677.7561" width="56.7012" height="30" y="288.0213" clip-path="url(#clipPath2)"/>
      <text x="683.2024" xml:space="preserve" y="307.1756" clip-path="url(#clipPath2)" font-family="sans-serif" stroke="none">400000</text>
    </g>
    <g fill="rgb(255,204,0)" text-rendering="geometricPrecision" shape-rendering="geometricPrecision" transform="matrix(1,0,0,1,-32,-135)" stroke="rgb(255,204,0)">
      <ellipse rx="106.5" ry="31.5106" clip-path="url(#clipPath2)" cx="934.5" cy="268.5106" stroke="none"/>
    </g>
    <g text-rendering="geometricPrecision" stroke-miterlimit="1.45" shape-rendering="geometricPrecision" transform="matrix(1,0,0,1,-32,-135)" stroke-linecap="butt">
      <ellipse rx="106.5" fill="none" ry="31.5106" clip-path="url(#clipPath2)" cx="934.5" cy="268.5106"/>
      <text x="864.0381" xml:space="preserve" y="272.6649" clip-path="url(#clipPath2)" font-family="sans-serif" stroke="none">urn:data:graph:euskadi</text>
    </g>
    <g fill="rgb(255,204,0)" text-rendering="geometricPrecision" shape-rendering="geometricPrecision" transform="matrix(1,0,0,1,-32,-135)" stroke="rgb(255,204,0)">
      <ellipse rx="54" ry="29" clip-path="url(#clipPath2)" cx="1254.5" cy="350.0213" stroke="none"/>
    </g>
    <g text-rendering="geometricPrecision" stroke-miterlimit="1.45" shape-rendering="geometricPrecision" transform="matrix(1,0,0,1,-32,-135)" stroke-linecap="butt">
      <ellipse rx="54" fill="none" ry="29" clip-path="url(#clipPath2)" cx="1254.5" cy="350.0213"/>
      <text x="1223.3369" xml:space="preserve" y="354.1756" clip-path="url(#clipPath2)" font-family="sans-serif" stroke="none">estatistika</text>
    </g>
    <g fill="rgb(255,204,0)" text-rendering="geometricPrecision" shape-rendering="geometricPrecision" transform="matrix(1,0,0,1,-32,-135)" stroke="rgb(255,204,0)">
      <rect x="1177" width="155" height="30" y="150" clip-path="url(#clipPath2)" stroke="none"/>
    </g>
    <g text-rendering="geometricPrecision" stroke-miterlimit="1.45" shape-rendering="geometricPrecision" transform="matrix(1,0,0,1,-32,-135)" stroke-linecap="butt">
      <rect fill="none" x="1177" width="155" height="30" y="150" clip-path="url(#clipPath2)"/>
      <text x="1184.6299" xml:space="preserve" y="169.1543" clip-path="url(#clipPath2)" font-family="sans-serif" stroke="none">Mikel Egaña Aranguren</text>
    </g>
    <g fill="rgb(255,204,0)" text-rendering="geometricPrecision" shape-rendering="geometricPrecision" transform="matrix(1,0,0,1,-32,-135)" stroke="rgb(255,204,0)">
      <ellipse rx="128" ry="32.5837" clip-path="url(#clipPath2)" cx="810" cy="697.0297" stroke="none"/>
    </g>
    <g text-rendering="geometricPrecision" stroke-miterlimit="1.45" shape-rendering="geometricPrecision" transform="matrix(1,0,0,1,-32,-135)" stroke-linecap="butt">
      <ellipse rx="128" fill="none" ry="32.5837" clip-path="url(#clipPath2)" cx="810" cy="697.0297"/>
      <text x="700.3711" xml:space="preserve" y="701.184" clip-path="url(#clipPath2)" font-family="sans-serif" stroke="none">http://data.seguridad-social.org/lana</text>
    </g>
    <g fill="rgb(255,204,0)" text-rendering="geometricPrecision" shape-rendering="geometricPrecision" transform="matrix(1,0,0,1,-32,-135)" stroke="rgb(255,204,0)">
      <ellipse rx="69" ry="15" clip-path="url(#clipPath2)" cx="622.2162" cy="619.446" stroke="none"/>
    </g>
    <g text-rendering="geometricPrecision" stroke-miterlimit="1.45" shape-rendering="geometricPrecision" transform="matrix(1,0,0,1,-32,-135)" stroke-linecap="butt">
      <ellipse rx="69" fill="none" ry="15" clip-path="url(#clipPath2)" cx="622.2162" cy="619.446"/>
      <text x="584.9506" xml:space="preserve" y="623.6003" clip-path="url(#clipPath2)" font-family="sans-serif" stroke="none">eus:ehu-upv</text>
      <path fill="none" d="M185.0328 240.723 L207.4544 231.3675 L229.876 224.6851 L252.2976 220.6756 L274.7191 219.3391 L297.1407 220.6756 L319.5623 224.6851 L341.9839 231.3675 L357.0224 237.6424" clip-path="url(#clipPath2)"/>
      <path d="M364.4055 240.723 L355.2562 231.4877 L356.0995 237.2573 L351.4055 240.7165 Z" clip-path="url(#clipPath2)" stroke="none"/>
      <text x="227.5858" xml:space="preserve" y="210.9811" clip-path="url(#clipPath2)" font-family="sans-serif" stroke="none">eustat:bizilekua</text>
      <path fill="none" d="M502.4265 240.6959 L513.177 226.8588 L524.8999 214.6758 L537.5742 204.1738 L551.1998 195.3529 L565.7769 188.2131 L581.3053 182.7544 L597.7851 178.9768 L607.2394 177.8397" clip-path="url(#clipPath2)"/>
      <path d="M615.1822 176.8844 L602.671 173.3531 L606.2466 177.9591 L603.8651 183.2816 Z" clip-path="url(#clipPath2)" stroke="none"/>
      <text x="493.2079" xml:space="preserve" y="188.3742" clip-path="url(#clipPath2)" font-family="sans-serif" stroke="none">wikidata:zatia_da</text>
      <path fill="none" d="M502.4546 240.7203 L527.5735 239.3646 L551.8132 240.6192 L575.1246 244.487 L597.5076 250.9677 L618.9623 260.0615 L639.4885 271.7684 L659.0865 286.0883 L671.8303 297.6468" clip-path="url(#clipPath2)"/>
      <path d="M677.756 303.0213 L672.2266 291.2559 L671.0896 296.9749 L665.5084 298.6631 Z" clip-path="url(#clipPath2)" stroke="none"/>
      <text x="542.312" xml:space="preserve" y="243.4973" clip-path="url(#clipPath2)" font-family="sans-serif" stroke="none">wikidata:populazioa</text>
      <path fill="none" d="M1041 268.5107 L1065.777 269.2296 L1089.1713 272.6542 L1111.1827 278.7845 L1131.8116 287.6205 L1151.0577 299.1622 L1168.9213 313.4095 L1185.402 330.3626 L1195.6272 343.6765" clip-path="url(#clipPath2)"/>
      <path d="M1200.5 350.0213 L1197.1562 337.4587 L1195.0181 342.8835 L1189.2253 343.5497 Z" clip-path="url(#clipPath2)" stroke="none"/>
      <text x="1122.8312" xml:space="preserve" y="262.4178" clip-path="url(#clipPath2)" font-family="sans-serif" stroke="none">arloa</text>
      <path fill="none" d="M1041 268.5107 L1043.4349 254.0725 L1046.6785 240.6968 L1050.7308 228.3837 L1055.5918 217.133 L1061.2614 206.9448 L1067.7396 197.8192 L1075.0266 189.756 L1083.1223 182.7553 L1092.0266 176.8172 L1101.7396 171.9415 L1112.2614 168.1283 L1123.5918 165.3777 L1135.7308 163.6895 L1148.6785 163.0638 L1162.4349 163.5007 L1169.0137 164.1779" clip-path="url(#clipPath2)"/>
      <path d="M1176.9717 164.9971 L1165.5468 158.7946 L1168.019 164.0755 L1164.5227 168.742 Z" clip-path="url(#clipPath2)" stroke="none"/>
      <text x="1080.4375" xml:space="preserve" y="212.909" clip-path="url(#clipPath2)" font-family="sans-serif" stroke="none">autorea</text>
      <path fill="none" d="M937.9798 697.1404 L943.8487 696.6599 L983.2849 689.9013 L1020.1312 679.8251 L1037.583 673.5428 L1054.3875 666.4312 L1070.5443 658.4901 L1086.0536 649.7196 L1100.9155 640.1198 L1115.1299 629.6904 L1128.6968 618.4317 L1141.6161 606.3436 L1153.8881 593.426 L1165.5125 579.6791 L1176.4893 565.1027 L1186.8186 549.6969 L1205.5349 516.3971 L1221.6611 479.7796 L1235.1975 439.8445 L1246.1437 396.5917 L1247.9052 386.7747" clip-path="url(#clipPath2)"/>
      <path d="M1249.3181 378.9004 L1242.2772 389.8287 L1247.7285 387.7589 L1252.1201 391.5949 Z" clip-path="url(#clipPath2)" stroke="none"/>
      <text x="1088.2224" xml:space="preserve" y="590.1607" clip-path="url(#clipPath2)" font-family="sans-serif" stroke="none">arloa</text>
      <path fill="none" d="M185.0328 240.723 L199.1168 273.0722 L214.3911 304.2642 L230.8558 334.299 L248.5108 363.1766 L267.3561 390.897 L287.3917 417.4602 L308.6177 442.8662 L331.034 467.115 L354.6406 490.2065 L379.4376 512.1409 L405.4249 532.9181 L432.6025 552.5381 L460.9704 571.0009 L490.5287 588.3065 L521.2773 604.4548 L545.9431 616.0322" clip-path="url(#clipPath2)"/>
      <path d="M553.1851 619.4313 L544.4467 609.8064 L545.0379 615.6073 L540.1977 618.8588 Z" clip-path="url(#clipPath2)" stroke="none"/>
      <text x="203.3661" xml:space="preserve" y="473.9682" clip-path="url(#clipPath2)" font-family="sans-serif" stroke="none">schema:worksFor</text>
    </g>
  </g>
</svg>
