<?xml version="1.0" encoding="UTF-8"?><svg xmlns="http://www.w3.org/2000/svg" xmlns:xlink="http://www.w3.org/1999/xlink" fill-opacity="1" color-rendering="auto" color-interpolation="auto" text-rendering="auto" stroke="black" stroke-linecap="square" width="1343" stroke-miterlimit="10" shape-rendering="auto" stroke-opacity="1" fill="black" stroke-dasharray="none" font-weight="normal" stroke-width="1" height="396" font-family="'Dialog'" font-style="normal" stroke-linejoin="miter" font-size="12px" stroke-dashoffset="0" image-rendering="auto">
  <!--Generated by ySVG 2.6-->
  <defs id="genericDefs"/>
  <g>
    <defs id="defs1">
      <clipPath clipPathUnits="userSpaceOnUse" id="clipPath1">
        <path d="M0 0 L1343 0 L1343 396 L0 396 L0 0 Z"/>
      </clipPath>
      <clipPath clipPathUnits="userSpaceOnUse" id="clipPath2">
        <path d="M197 275 L1540 275 L1540 671 L197 671 L197 275 Z"/>
      </clipPath>
    </defs>
    <g fill="white" text-rendering="geometricPrecision" shape-rendering="geometricPrecision" transform="translate(-197,-275)" stroke="white">
      <rect x="197" width="1343" height="396" y="275" clip-path="url(#clipPath2)" stroke="none"/>
    </g>
    <g stroke-linecap="butt" transform="matrix(1,0,0,1,-197,-275)" fill="silver" text-rendering="geometricPrecision" shape-rendering="geometricPrecision" stroke-dasharray="12,4" stroke="silver" stroke-width="2" stroke-miterlimit="1.45">
      <ellipse rx="451" fill="none" ry="183" clip-path="url(#clipPath2)" cx="663" cy="473"/>
    </g>
    <g fill="rgb(255,204,0)" text-rendering="geometricPrecision" shape-rendering="geometricPrecision" transform="matrix(1,0,0,1,-197,-275)" stroke="rgb(255,204,0)">
      <ellipse rx="69" ry="15" clip-path="url(#clipPath2)" cx="309.0328" cy="426.723" stroke="none"/>
    </g>
    <g text-rendering="geometricPrecision" stroke-miterlimit="1.45" shape-rendering="geometricPrecision" transform="matrix(1,0,0,1,-197,-275)" stroke-linecap="butt">
      <ellipse rx="69" fill="none" ry="15" clip-path="url(#clipPath2)" cx="309.0328" cy="426.723"/>
      <text x="280.0377" xml:space="preserve" y="430.8773" clip-path="url(#clipPath2)" font-family="sans-serif" stroke="none">ehu:Mikel</text>
    </g>
    <g fill="rgb(255,204,0)" text-rendering="geometricPrecision" shape-rendering="geometricPrecision" transform="matrix(1,0,0,1,-197,-275)" stroke="rgb(255,204,0)">
      <ellipse rx="69" ry="15" clip-path="url(#clipPath2)" cx="626.4055" cy="426.723" stroke="none"/>
    </g>
    <g text-rendering="geometricPrecision" stroke-miterlimit="1.45" shape-rendering="geometricPrecision" transform="matrix(1,0,0,1,-197,-275)" stroke-linecap="butt">
      <ellipse rx="69" fill="none" ry="15" clip-path="url(#clipPath2)" cx="626.4055" cy="426.723"/>
      <text x="598.8342" xml:space="preserve" y="430.8773" clip-path="url(#clipPath2)" font-family="sans-serif" stroke="none">eus:Bilbo</text>
    </g>
    <g fill="rgb(255,204,0)" text-rendering="geometricPrecision" shape-rendering="geometricPrecision" transform="matrix(1,0,0,1,-197,-275)" stroke="rgb(255,204,0)">
      <ellipse rx="69" ry="15" clip-path="url(#clipPath2)" cx="877.2162" cy="362.8803" stroke="none"/>
    </g>
    <g text-rendering="geometricPrecision" stroke-miterlimit="1.45" shape-rendering="geometricPrecision" transform="matrix(1,0,0,1,-197,-275)" stroke-linecap="butt">
      <ellipse rx="69" fill="none" ry="15" clip-path="url(#clipPath2)" cx="877.2162" cy="362.8803"/>
      <text x="843.1469" xml:space="preserve" y="367.0345" clip-path="url(#clipPath2)" font-family="sans-serif" stroke="none">eus:Bizkaia</text>
    </g>
    <g fill="rgb(255,204,0)" text-rendering="geometricPrecision" shape-rendering="geometricPrecision" transform="matrix(1,0,0,1,-197,-275)" stroke="rgb(255,204,0)">
      <rect x="870.7561" width="56.7012" height="30" y="474.0213" clip-path="url(#clipPath2)" stroke="none"/>
    </g>
    <g text-rendering="geometricPrecision" stroke-miterlimit="1.45" shape-rendering="geometricPrecision" transform="matrix(1,0,0,1,-197,-275)" stroke-linecap="butt">
      <rect fill="none" x="870.7561" width="56.7012" height="30" y="474.0213" clip-path="url(#clipPath2)"/>
      <text x="876.2024" xml:space="preserve" y="493.1756" clip-path="url(#clipPath2)" font-family="sans-serif" stroke="none">400000</text>
    </g>
    <g stroke-linecap="round" transform="matrix(1,0,0,1,-197,-275)" stroke-dashoffset="2" text-rendering="geometricPrecision" shape-rendering="geometricPrecision" stroke-dasharray="0,8" stroke-width="2" stroke-miterlimit="1.45">
      <rect fill="none" x="411.8061" width="314.1533" height="65.1675" y="536.311" clip-path="url(#clipPath2)"/>
    </g>
    <g text-rendering="geometricPrecision" stroke-miterlimit="1.45" shape-rendering="geometricPrecision" font-family="sans-serif" transform="matrix(1,0,0,1,-197,-275)" stroke-linecap="butt">
      <text x="441.3182" xml:space="preserve" y="552.0959" clip-path="url(#clipPath2)" stroke="none">eus: &lt;https://data.euskadi.eus/resource/&gt;</text>
      <text x="441.3182" xml:space="preserve" y="566.0646" clip-path="url(#clipPath2)" stroke="none">ehu: &lt;https://ehu.eus/staff/pdi/&gt;</text>
      <text x="441.3182" xml:space="preserve" y="580.0334" clip-path="url(#clipPath2)" stroke="none">eustat:&lt;urn:eustat:property:&gt;</text>
      <text x="441.3182" xml:space="preserve" y="594.0021" clip-path="url(#clipPath2)" stroke="none">wikidata: &lt;https://wikidata.org/prop/&gt;</text>
    </g>
    <g fill="rgb(255,204,0)" text-rendering="geometricPrecision" shape-rendering="geometricPrecision" transform="matrix(1,0,0,1,-197,-275)" stroke="rgb(255,204,0)">
      <ellipse rx="106.5" ry="31.5106" clip-path="url(#clipPath2)" cx="1127.5" cy="454.5106" stroke="none"/>
    </g>
    <g text-rendering="geometricPrecision" stroke-miterlimit="1.45" shape-rendering="geometricPrecision" transform="matrix(1,0,0,1,-197,-275)" stroke-linecap="butt">
      <ellipse rx="106.5" fill="none" ry="31.5106" clip-path="url(#clipPath2)" cx="1127.5" cy="454.5106"/>
      <text x="1057.0381" xml:space="preserve" y="458.6649" clip-path="url(#clipPath2)" font-family="sans-serif" stroke="none">urn:data:graph:euskadi</text>
    </g>
    <g fill="rgb(255,204,0)" text-rendering="geometricPrecision" shape-rendering="geometricPrecision" transform="matrix(1,0,0,1,-197,-275)" stroke="rgb(255,204,0)">
      <ellipse rx="54" ry="29" clip-path="url(#clipPath2)" cx="1447.5" cy="536.0213" stroke="none"/>
    </g>
    <g text-rendering="geometricPrecision" stroke-miterlimit="1.45" shape-rendering="geometricPrecision" transform="matrix(1,0,0,1,-197,-275)" stroke-linecap="butt">
      <ellipse rx="54" fill="none" ry="29" clip-path="url(#clipPath2)" cx="1447.5" cy="536.0213"/>
      <text x="1416.3369" xml:space="preserve" y="540.1756" clip-path="url(#clipPath2)" font-family="sans-serif" stroke="none">estatistika</text>
    </g>
    <g fill="rgb(255,204,0)" text-rendering="geometricPrecision" shape-rendering="geometricPrecision" transform="matrix(1,0,0,1,-197,-275)" stroke="rgb(255,204,0)">
      <rect x="1370" width="155" height="30" y="336" clip-path="url(#clipPath2)" stroke="none"/>
    </g>
    <g text-rendering="geometricPrecision" stroke-miterlimit="1.45" shape-rendering="geometricPrecision" transform="matrix(1,0,0,1,-197,-275)" stroke-linecap="butt">
      <rect fill="none" x="1370" width="155" height="30" y="336" clip-path="url(#clipPath2)"/>
      <text x="1377.6299" xml:space="preserve" y="355.1543" clip-path="url(#clipPath2)" font-family="sans-serif" stroke="none">Mikel Egaña Aranguren</text>
      <path fill="none" d="M378.0766 426.7047 L400.4544 417.3675 L422.876 410.6851 L445.2975 406.6756 L467.7191 405.3391 L490.1407 406.6756 L512.5623 410.6851 L534.9839 417.3675 L550.0224 423.6424" clip-path="url(#clipPath2)"/>
      <path d="M557.4055 426.723 L548.2562 417.4877 L549.0995 423.2573 L544.4055 426.7165 Z" clip-path="url(#clipPath2)" stroke="none"/>
      <text x="420.5858" xml:space="preserve" y="396.9811" clip-path="url(#clipPath2)" font-family="sans-serif" stroke="none">eustat:bizilekua</text>
      <path fill="none" d="M695.4265 426.6959 L706.177 412.8588 L717.8999 400.6758 L730.5742 390.1738 L744.1998 381.3529 L758.7769 374.2131 L774.3053 368.7544 L790.7851 364.9768 L800.2394 363.8397" clip-path="url(#clipPath2)"/>
      <path d="M808.1822 362.8843 L795.671 359.3531 L799.2466 363.9591 L796.8651 369.2816 Z" clip-path="url(#clipPath2)" stroke="none"/>
      <text x="686.2079" xml:space="preserve" y="374.3742" clip-path="url(#clipPath2)" font-family="sans-serif" stroke="none">wikidata:zatia_da</text>
      <path fill="none" d="M695.4546 426.7203 L720.5735 425.3646 L744.8132 426.6193 L768.1246 430.487 L790.5076 436.9677 L811.9623 446.0615 L832.4885 457.7684 L852.0865 472.0883 L864.8303 483.6468" clip-path="url(#clipPath2)"/>
      <path d="M870.756 489.0213 L865.2266 477.2559 L864.0896 482.9749 L858.5084 484.6631 Z" clip-path="url(#clipPath2)" stroke="none"/>
      <text x="735.312" xml:space="preserve" y="429.4973" clip-path="url(#clipPath2)" font-family="sans-serif" stroke="none">wikidata:populazioa</text>
      <path fill="none" d="M1234 454.5107 L1258.777 455.2296 L1282.1713 458.6542 L1304.1827 464.7845 L1324.8116 473.6205 L1344.0577 485.1622 L1361.9213 499.4095 L1378.402 516.3625 L1388.6272 529.6766" clip-path="url(#clipPath2)"/>
      <path d="M1393.5 536.0213 L1390.1562 523.4587 L1388.0181 528.8835 L1382.2253 529.5497 Z" clip-path="url(#clipPath2)" stroke="none"/>
      <text x="1315.8312" xml:space="preserve" y="448.4178" clip-path="url(#clipPath2)" font-family="sans-serif" stroke="none">arloa</text>
      <path fill="none" d="M1234 454.5107 L1236.4349 440.0725 L1239.6785 426.6968 L1243.7308 414.3836 L1248.5918 403.133 L1254.2614 392.9448 L1260.7396 383.8192 L1268.0266 375.756 L1276.1223 368.7553 L1285.0266 362.8171 L1294.7396 357.9415 L1305.2614 354.1283 L1316.5918 351.3777 L1328.7308 349.6895 L1341.6785 349.0638 L1355.4349 349.5007 L1362.0137 350.1779" clip-path="url(#clipPath2)"/>
      <path d="M1369.9717 350.9971 L1358.5468 344.7946 L1361.019 350.0755 L1357.5227 354.742 Z" clip-path="url(#clipPath2)" stroke="none"/>
      <text x="1273.4375" xml:space="preserve" y="398.9089" clip-path="url(#clipPath2)" font-family="sans-serif" stroke="none">autorea</text>
    </g>
  </g>
</svg>
