<?xml version="1.0" encoding="UTF-8"?><svg xmlns="http://www.w3.org/2000/svg" xmlns:xlink="http://www.w3.org/1999/xlink" fill-opacity="1" color-rendering="auto" color-interpolation="auto" text-rendering="auto" stroke="black" stroke-linecap="square" width="1010" stroke-miterlimit="10" shape-rendering="auto" stroke-opacity="1" fill="black" stroke-dasharray="none" font-weight="normal" stroke-width="1" height="597" font-family="'Dialog'" font-style="normal" stroke-linejoin="miter" font-size="12px" stroke-dashoffset="0" image-rendering="auto">
  <!--Generated by ySVG 2.6-->
  <defs id="genericDefs"/>
  <g>
    <defs id="defs1">
      <clipPath clipPathUnits="userSpaceOnUse" id="clipPath1">
        <path d="M0 0 L1010 0 L1010 597 L0 597 L0 0 Z"/>
      </clipPath>
      <clipPath clipPathUnits="userSpaceOnUse" id="clipPath2">
        <path d="M165 134 L1175 134 L1175 731 L165 731 L165 134 Z"/>
      </clipPath>
    </defs>
    <g fill="white" text-rendering="geometricPrecision" shape-rendering="geometricPrecision" transform="translate(-165,-134)" stroke="white">
      <rect x="165" width="1010" height="597" y="134" clip-path="url(#clipPath2)" stroke="none"/>
    </g>
    <g stroke-linecap="butt" transform="matrix(1,0,0,1,-165,-134)" fill="silver" text-rendering="geometricPrecision" shape-rendering="geometricPrecision" stroke-dasharray="6,2" stroke="silver" stroke-miterlimit="1.45">
      <rect fill="none" x="186.1969" width="749.9015" height="313" y="149.5259" clip-path="url(#clipPath2)"/>
    </g>
    <g fill="rgb(255,204,0)" text-rendering="geometricPrecision" shape-rendering="geometricPrecision" transform="matrix(1,0,0,1,-165,-134)" stroke="rgb(255,204,0)">
      <ellipse rx="69" ry="15" clip-path="url(#clipPath2)" cx="516.7195" cy="584.6191" stroke="none"/>
    </g>
    <g text-rendering="geometricPrecision" stroke-miterlimit="1.45" shape-rendering="geometricPrecision" transform="matrix(1,0,0,1,-165,-134)" stroke-linecap="butt">
      <ellipse rx="69" fill="none" ry="15" clip-path="url(#clipPath2)" cx="516.7195" cy="584.6191"/>
      <text x="501.0428" xml:space="preserve" y="588.7734" clip-path="url(#clipPath2)" font-family="sans-serif" stroke="none">Mikel</text>
    </g>
    <g fill="rgb(255,204,0)" text-rendering="geometricPrecision" shape-rendering="geometricPrecision" transform="matrix(1,0,0,1,-165,-134)" stroke="rgb(255,204,0)">
      <ellipse rx="69" ry="15" clip-path="url(#clipPath2)" cx="758.9005" cy="584.6191" stroke="none"/>
    </g>
    <g text-rendering="geometricPrecision" stroke-miterlimit="1.45" shape-rendering="geometricPrecision" transform="matrix(1,0,0,1,-165,-134)" stroke-linecap="butt">
      <ellipse rx="69" fill="none" ry="15" clip-path="url(#clipPath2)" cx="758.9005" cy="584.6191"/>
      <text x="743.9708" xml:space="preserve" y="588.7734" clip-path="url(#clipPath2)" font-family="sans-serif" stroke="none">Bilbo</text>
    </g>
    <g fill="rgb(255,204,0)" text-rendering="geometricPrecision" shape-rendering="geometricPrecision" transform="matrix(1,0,0,1,-165,-134)" stroke="rgb(255,204,0)">
      <ellipse rx="69" ry="15" clip-path="url(#clipPath2)" cx="309.0985" cy="579.5249" stroke="none"/>
    </g>
    <g text-rendering="geometricPrecision" stroke-miterlimit="1.45" shape-rendering="geometricPrecision" transform="matrix(1,0,0,1,-165,-134)" stroke-linecap="butt">
      <ellipse rx="69" fill="none" ry="15" clip-path="url(#clipPath2)" cx="309.0985" cy="579.5249"/>
      <text x="299.8553" xml:space="preserve" y="583.6791" clip-path="url(#clipPath2)" font-family="sans-serif" stroke="none">Jon</text>
    </g>
    <g fill="rgb(153,204,0)" text-rendering="geometricPrecision" shape-rendering="geometricPrecision" transform="matrix(1,0,0,1,-165,-134)" stroke="rgb(153,204,0)">
      <ellipse rx="69" ry="15" clip-path="url(#clipPath2)" cx="406.1313" cy="418.263" stroke="none"/>
    </g>
    <g text-rendering="geometricPrecision" stroke-miterlimit="1.45" shape-rendering="geometricPrecision" transform="matrix(1,0,0,1,-165,-134)" stroke-linecap="butt">
      <ellipse rx="69" fill="none" ry="15" clip-path="url(#clipPath2)" cx="406.1313" cy="418.263"/>
      <text x="379.726" xml:space="preserve" y="422.4172" clip-path="url(#clipPath2)" font-family="sans-serif" stroke="none">Perstona</text>
    </g>
    <g fill="rgb(153,204,0)" text-rendering="geometricPrecision" shape-rendering="geometricPrecision" transform="matrix(1,0,0,1,-165,-134)" stroke="rgb(153,204,0)">
      <ellipse rx="69" ry="15" clip-path="url(#clipPath2)" cx="653.4711" cy="418.263" stroke="none"/>
    </g>
    <g text-rendering="geometricPrecision" stroke-miterlimit="1.45" shape-rendering="geometricPrecision" transform="matrix(1,0,0,1,-165,-134)" stroke-linecap="butt">
      <ellipse rx="69" fill="none" ry="15" clip-path="url(#clipPath2)" cx="653.4711" cy="418.263"/>
      <text x="639.4819" xml:space="preserve" y="422.4172" clip-path="url(#clipPath2)" font-family="sans-serif" stroke="none">Hiria</text>
    </g>
    <g fill="rgb(153,204,0)" text-rendering="geometricPrecision" shape-rendering="geometricPrecision" transform="matrix(1,0,0,1,-165,-134)" stroke="rgb(153,204,0)">
      <ellipse rx="69" ry="15" clip-path="url(#clipPath2)" cx="433.1313" cy="175.5259" stroke="none"/>
    </g>
    <g text-rendering="geometricPrecision" stroke-miterlimit="1.45" shape-rendering="geometricPrecision" transform="matrix(1,0,0,1,-165,-134)" stroke-linecap="butt">
      <ellipse rx="69" fill="none" ry="15" clip-path="url(#clipPath2)" cx="433.1313" cy="175.5259"/>
      <text x="407.4409" xml:space="preserve" y="179.6802" clip-path="url(#clipPath2)" font-family="sans-serif" stroke="none">Biziduna</text>
    </g>
    <g fill="rgb(153,204,0)" text-rendering="geometricPrecision" shape-rendering="geometricPrecision" transform="matrix(1,0,0,1,-165,-134)" stroke="rgb(153,204,0)">
      <ellipse rx="69" ry="15" clip-path="url(#clipPath2)" cx="675.2625" cy="175.5259" stroke="none"/>
    </g>
    <g text-rendering="geometricPrecision" stroke-miterlimit="1.45" shape-rendering="geometricPrecision" transform="matrix(1,0,0,1,-165,-134)" stroke-linecap="butt">
      <ellipse rx="69" fill="none" ry="15" clip-path="url(#clipPath2)" cx="675.2625" cy="175.5259"/>
      <text x="657.2743" xml:space="preserve" y="179.6802" clip-path="url(#clipPath2)" font-family="sans-serif" stroke="none">Lekua</text>
      <rect x="180.0985" y="497" clip-path="url(#clipPath2)" fill="none" width="756" stroke-dasharray="6,2" height="190" stroke="silver"/>
    </g>
    <g fill="rgb(153,204,255)" text-rendering="geometricPrecision" shape-rendering="geometricPrecision" transform="matrix(1,0,0,1,-165,-134)" stroke="rgb(153,204,255)">
      <rect x="886" y="661" clip-path="url(#clipPath2)" width="174" rx="4" ry="4" height="54.6191" stroke="none"/>
    </g>
    <g text-rendering="geometricPrecision" stroke-miterlimit="1.45" shape-rendering="geometricPrecision" transform="matrix(1,0,0,1,-165,-134)" stroke-linecap="butt">
      <rect x="886" y="661" clip-path="url(#clipPath2)" fill="none" width="174" rx="4" ry="4" height="54.6191"/>
      <text x="905.2305" xml:space="preserve" y="692.4639" clip-path="url(#clipPath2)" font-family="sans-serif" stroke="none">Banaken datuak (RDF)</text>
    </g>
    <g fill="rgb(153,204,255)" text-rendering="geometricPrecision" shape-rendering="geometricPrecision" transform="matrix(1,0,0,1,-165,-134)" stroke="rgb(153,204,255)">
      <rect x="886" y="432" clip-path="url(#clipPath2)" width="274" rx="4" ry="4" height="54.6191" stroke="none"/>
    </g>
    <g text-rendering="geometricPrecision" stroke-miterlimit="1.45" shape-rendering="geometricPrecision" transform="matrix(1,0,0,1,-165,-134)" stroke-linecap="butt">
      <rect x="886" y="432" clip-path="url(#clipPath2)" fill="none" width="274" rx="4" ry="4" height="54.6191"/>
      <text x="896.5635" xml:space="preserve" y="463.4639" clip-path="url(#clipPath2)" font-family="sans-serif" stroke="none">Datuen propietate orokorrak (RDFS, OWL)</text>
      <path fill="none" d="M585.7195 584.6191 L598.7422 579.1854 L611.7648 575.3042 L624.7874 572.9755 L637.8101 572.1992 L650.8326 572.9755 L663.8553 575.3042 L676.8779 579.1854 L682.5175 581.5385" clip-path="url(#clipPath2)"/>
      <path d="M689.9005 584.6191 L680.7513 575.3838 L681.5945 581.1534 L676.9005 584.6126 Z" clip-path="url(#clipPath2)" stroke="none"/>
      <text x="611.7002" xml:space="preserve" y="563.8412" clip-path="url(#clipPath2)" font-family="sans-serif" stroke="none">bizilekua</text>
      <path fill="none" d="M499.955 599.162 L490.2097 606.6909 L477.0145 615.2938 L463.8591 622.2745 L450.7435 627.6333 L437.6677 631.37 L424.6317 633.4847 L411.6354 633.9773 L398.679 632.8478 L385.7624 630.0964 L372.8856 625.7229 L360.0486 619.7274 L347.2513 612.1098 L334.4939 602.8702 L330.3683 599.3467" clip-path="url(#clipPath2)"/>
      <path d="M324.285 594.1512 L330.1628 605.7465 L331.1288 599.9961 L336.6572 598.1423 Z" clip-path="url(#clipPath2)" stroke="none"/>
      <text x="366.519" xml:space="preserve" y="664.6273" clip-path="url(#clipPath2)" font-family="sans-serif" stroke="none">laguna_du</text>
      <path fill="none" d="M378.1215 579.5418 L401.6702 596.9149 L425.2724 612.0286 L448.9051 624.8662 L472.5681 635.4276 L496.2617 643.7127 L519.9857 649.7217 L543.7402 653.4543 L567.5251 654.9109 L591.3405 654.0912 L615.1862 650.9952 L639.0625 645.6231 L662.9692 637.9747 L686.9064 628.0502 L710.874 615.8494 L731.661 603.3094 L731.743 603.2523" clip-path="url(#clipPath2)"/>
      <path d="M738.4456 598.8846 L725.662 601.247 L730.9052 603.7982 L731.1215 609.6252 Z" clip-path="url(#clipPath2)" stroke="none"/>
      <text x="541.5785" xml:space="preserve" y="627.0386" clip-path="url(#clipPath2)" font-family="sans-serif" stroke="none">bizilekua</text>
      <path fill="none" d="M476.1605 572.4911 L470.6409 570.2748 L457.8807 563.7654 L446.4201 556.392 L436.2592 548.1547 L427.3979 539.0534 L419.8364 529.0881 L413.5744 518.2589 L408.6122 506.5657 L404.9495 494.0085 L402.5865 480.5873 L401.5233 466.3022 L401.7596 451.1531 L402.7133 441.2105 L402.7299 441.1119" clip-path="url(#clipPath2)"/>
      <path d="M403.6224 433.1619 L397.3148 444.5291 L402.6183 442.1057 L407.2524 445.6448 Z" clip-path="url(#clipPath2)" stroke="none"/>
      <text x="423.9561" xml:space="preserve" y="514.674" clip-path="url(#clipPath2)" font-family="sans-serif" stroke="none">rdf:type</text>
      <path fill="none" d="M305.8793 564.5302 L305.7141 563.7604 L303.5895 548.7542 L302.7249 534.5059 L303.1201 521.0157 L304.7751 508.2836 L307.69 496.3096 L311.8647 485.0936 L317.2994 474.6357 L323.9939 464.9359 L331.9482 455.9941 L341.1624 447.8104 L351.6365 440.3848 L362.2043 434.3798 L362.2953 434.3384" clip-path="url(#clipPath2)"/>
      <path d="M369.5262 430.9159 L356.5407 431.5303 L361.3914 434.7662 L360.8189 440.569 Z" clip-path="url(#clipPath2)" stroke="none"/>
      <text x="260.5194" xml:space="preserve" y="515.5731" clip-path="url(#clipPath2)" font-family="sans-serif" stroke="none">rdf:type</text>
      <path fill="none" d="M385.0638 403.9887 L376.5781 398.4688 L366.9556 392.4445 L357.4913 386.8368 L348.225 381.75 L339.1962 377.2882 L330.4445 373.5555 L322.0094 370.6562 L313.9305 368.6945 L306.2476 367.7743 L299 368 L292.2353 369.4294 L286.0324 371.9352 L280.4781 375.3438 L275.6593 379.4815 L271.6626 384.1748 L268.575 389.25 L266.4832 394.5336 L265.4741 399.8519 L265.6344 405.0312 L267.0509 409.8981 L269.8105 414.2789 L274 418 L279.6706 420.9283 L286.7315 423.0926 L295.0562 424.5625 L304.5185 425.4074 L314.9919 425.6967 L326.35 425.5 L335.4138 425.0411 L335.5135 425.0336" clip-path="url(#clipPath2)"/>
      <path d="M343.4963 424.5085 L331.194 420.3069 L334.5157 425.0992 L331.8503 430.2854 Z" clip-path="url(#clipPath2)" stroke="none"/>
      <text x="222.147" xml:space="preserve" y="358.7941" clip-path="url(#clipPath2)" font-family="sans-serif" stroke="none">min 1 laguna_du</text>
      <path fill="none" d="M764.5336 569.6692 L766.1143 565.4741 L771.4877 547.4953 L775.0207 530.683 L776.7133 515.037 L776.5654 500.5574 L774.5771 487.2442 L770.7484 475.0974 L765.0792 464.1169 L757.5697 454.3029 L748.2197 445.6552 L737.0294 438.1739 L723.9985 431.8589 L717.3551 429.5589" clip-path="url(#clipPath2)"/>
      <path d="M709.7953 426.9417 L719.4992 435.5924 L718.3001 429.886 L722.7708 426.1427 Z" clip-path="url(#clipPath2)" stroke="none"/>
      <text x="803.1985" xml:space="preserve" y="514.8675" clip-path="url(#clipPath2)" font-family="sans-serif" stroke="none">rdf:type</text>
      <path fill="none" d="M428.9269 404.094 L437.0488 399.5226 L452.5075 392.1604 L467.9662 386.1367 L483.425 381.4517 L498.8837 378.1052 L514.3425 376.0973 L529.8012 375.428 L545.2599 376.0973 L560.7187 378.1052 L576.1774 381.4517 L591.6362 386.1367 L607.0949 392.1604 L622.5536 399.5226 L623.704 400.1701" clip-path="url(#clipPath2)"/>
      <path d="M630.6755 404.094 L622.6707 393.8509 L622.8325 399.6796 L617.7657 402.5653 Z" clip-path="url(#clipPath2)" stroke="none"/>
      <text x="463.9581" xml:space="preserve" y="351.2346" clip-path="url(#clipPath2)" font-family="sans-serif" stroke="none">exactly 1 bizilekua</text>
      <path fill="none" d="M395.0404 403.4404 L393.5959 401.5099 L382.9569 384.9677 L374.2143 368.6365 L367.3681 352.5162 L362.4182 336.6068 L359.3648 320.9084 L358.2077 305.421 L358.947 290.1444 L361.5827 275.0788 L366.1148 260.2242 L372.5432 245.5804 L380.8681 231.1477 L391.0893 216.9258 L403.2069 202.9149 L410.5627 195.6715" clip-path="url(#clipPath2)"/>
      <path d="M416.2629 190.0583 L404.2044 194.9154 L409.8502 196.3731 L411.2208 202.0407 Z" clip-path="url(#clipPath2)" stroke="none"/>
      <text x="379.1815" xml:space="preserve" y="301.7654" clip-path="url(#clipPath2)" font-family="sans-serif" stroke="none">rdfs:subClassOf</text>
      <path fill="none" d="M669.6584 403.6761 L682.6263 390.2936 L694.3719 376.0547 L704.2296 361.6464 L712.1994 347.0685 L718.2812 332.3212 L722.4751 317.4044 L724.781 302.318 L725.199 287.0622 L723.7291 271.6369 L720.3712 256.0421 L715.1254 240.2779 L707.9916 224.3441 L698.9698 208.2409 L691.3615 196.8923 L691.3 196.8134" clip-path="url(#clipPath2)"/>
      <path d="M686.7283 190.2484 L689.4828 202.9532 L691.8715 197.634 L697.689 197.2386 Z" clip-path="url(#clipPath2)" stroke="none"/>
      <text x="739.3567" xml:space="preserve" y="295.7022" clip-path="url(#clipPath2)" font-family="sans-serif" stroke="none">rdfs:subClassOf</text>
    </g>
  </g>
</svg>
