<?xml version="1.0" encoding="UTF-8"?><svg xmlns="http://www.w3.org/2000/svg" xmlns:xlink="http://www.w3.org/1999/xlink" fill-opacity="1" color-rendering="auto" color-interpolation="auto" text-rendering="auto" stroke="black" stroke-linecap="square" width="670" stroke-miterlimit="10" shape-rendering="auto" stroke-opacity="1" fill="black" stroke-dasharray="none" font-weight="normal" stroke-width="1" height="286" font-family="'Dialog'" font-style="normal" stroke-linejoin="miter" font-size="12px" stroke-dashoffset="0" image-rendering="auto">
  <!--Generated by ySVG 2.6-->
  <defs id="genericDefs"/>
  <g>
    <defs id="defs1">
      <clipPath clipPathUnits="userSpaceOnUse" id="clipPath1">
        <path d="M0 0 L670 0 L670 286 L0 286 L0 0 Z"/>
      </clipPath>
      <clipPath clipPathUnits="userSpaceOnUse" id="clipPath2">
        <path d="M38 315 L708 315 L708 601 L38 601 L38 315 Z"/>
      </clipPath>
    </defs>
    <g fill="white" text-rendering="geometricPrecision" shape-rendering="geometricPrecision" transform="translate(-38,-315)" stroke="white">
      <rect x="38" width="670" height="286" y="315" clip-path="url(#clipPath2)" stroke="none"/>
    </g>
    <g fill="rgb(255,204,0)" text-rendering="geometricPrecision" shape-rendering="geometricPrecision" transform="matrix(1,0,0,1,-38,-315)" stroke="rgb(255,204,0)">
      <ellipse rx="69" ry="15" clip-path="url(#clipPath2)" cx="284.0328" cy="429.5657" stroke="none"/>
    </g>
    <g text-rendering="geometricPrecision" stroke-miterlimit="1.45" shape-rendering="geometricPrecision" transform="matrix(1,0,0,1,-38,-315)" stroke-linecap="butt">
      <ellipse rx="69" fill="none" ry="15" clip-path="url(#clipPath2)" cx="284.0328" cy="429.5657"/>
      <text x="268.356" xml:space="preserve" y="433.72" clip-path="url(#clipPath2)" font-family="sans-serif" stroke="none">Mikel</text>
    </g>
    <g fill="rgb(255,204,0)" text-rendering="geometricPrecision" shape-rendering="geometricPrecision" transform="matrix(1,0,0,1,-38,-315)" stroke="rgb(255,204,0)">
      <ellipse rx="69" ry="15" clip-path="url(#clipPath2)" cx="601.4055" cy="429.5657" stroke="none"/>
    </g>
    <g text-rendering="geometricPrecision" stroke-miterlimit="1.45" shape-rendering="geometricPrecision" transform="matrix(1,0,0,1,-38,-315)" stroke-linecap="butt">
      <ellipse rx="69" fill="none" ry="15" clip-path="url(#clipPath2)" cx="601.4055" cy="429.5657"/>
      <text x="586.4758" xml:space="preserve" y="433.72" clip-path="url(#clipPath2)" font-family="sans-serif" stroke="none">Bilbo</text>
    </g>
    <g fill="rgb(255,204,0)" text-rendering="geometricPrecision" shape-rendering="geometricPrecision" transform="matrix(1,0,0,1,-38,-315)" stroke="rgb(255,204,0)">
      <ellipse rx="69" ry="15" clip-path="url(#clipPath2)" cx="284.0328" cy="554.3934" stroke="none"/>
    </g>
    <g text-rendering="geometricPrecision" stroke-miterlimit="1.45" shape-rendering="geometricPrecision" transform="matrix(1,0,0,1,-38,-315)" stroke-linecap="butt">
      <ellipse rx="69" fill="none" ry="15" clip-path="url(#clipPath2)" cx="284.0328" cy="554.3934"/>
      <text x="274.7896" xml:space="preserve" y="558.5477" clip-path="url(#clipPath2)" font-family="sans-serif" stroke="none">Jon</text>
    </g>
    <g fill="rgb(255,204,0)" text-rendering="geometricPrecision" shape-rendering="geometricPrecision" transform="matrix(1,0,0,1,-38,-315)" stroke="rgb(255,204,0)">
      <ellipse rx="69" ry="15" clip-path="url(#clipPath2)" cx="122.0656" cy="345.1315" stroke="none"/>
    </g>
    <g text-rendering="geometricPrecision" stroke-miterlimit="1.45" shape-rendering="geometricPrecision" transform="matrix(1,0,0,1,-38,-315)" stroke-linecap="butt">
      <ellipse rx="69" fill="none" ry="15" clip-path="url(#clipPath2)" cx="122.0656" cy="345.1315"/>
      <text x="101.6897" xml:space="preserve" y="349.2858" clip-path="url(#clipPath2)" font-family="sans-serif" stroke="none">Person</text>
    </g>
    <g fill="rgb(255,204,0)" text-rendering="geometricPrecision" shape-rendering="geometricPrecision" transform="matrix(1,0,0,1,-38,-315)" stroke="rgb(255,204,0)">
      <ellipse rx="69" ry="15" clip-path="url(#clipPath2)" cx="601.4055" cy="345.1315" stroke="none"/>
    </g>
    <g text-rendering="geometricPrecision" stroke-miterlimit="1.45" shape-rendering="geometricPrecision" transform="matrix(1,0,0,1,-38,-315)" stroke-linecap="butt">
      <ellipse rx="69" fill="none" ry="15" clip-path="url(#clipPath2)" cx="601.4055" cy="345.1315"/>
      <text x="580.4523" xml:space="preserve" y="349.2858" clip-path="url(#clipPath2)" font-family="sans-serif" stroke="none">Ciudad</text>
      <path fill="none" d="M353.0766 429.5475 L375.4544 420.2103 L397.876 413.5278 L420.2975 409.5183 L442.7191 408.1818 L465.1407 409.5183 L487.5623 413.5278 L509.9839 420.2103 L525.0224 426.4851" clip-path="url(#clipPath2)"/>
      <path d="M532.4055 429.5657 L523.2562 420.3304 L524.0995 426.1001 L519.4055 429.5592 Z" clip-path="url(#clipPath2)" stroke="none"/>
      <text x="416.6092" xml:space="preserve" y="399.8239" clip-path="url(#clipPath2)" font-family="sans-serif" stroke="none">bizilekua</text>
      <path fill="none" d="M296.9125 444.2854 L297.6858 445.1692 L307.438 460.7726 L313.2893 476.3761 L315.2397 491.9796 L313.2893 507.583 L307.438 523.1865 L301.3102 532.9909 L301.2444 533.0662" clip-path="url(#clipPath2)"/>
      <path d="M296.8582 539.7566 L307.619 532.4623 L301.7926 532.2299 L299.256 526.9796 Z" clip-path="url(#clipPath2)" stroke="none"/>
      <text x="245.6495" xml:space="preserve" y="486.1273" clip-path="url(#clipPath2)" font-family="sans-serif" stroke="none">laguna_du</text>
      <path fill="none" d="M353.0741 554.3999 L374.1522 557.7264 L394.5255 559.5747 L414.1526 559.9384 L433.0335 558.8175 L451.1683 556.212 L468.5569 552.1218 L485.1995 546.5471 L501.0958 539.4877 L516.246 530.9436 L530.6501 520.9149 L544.308 509.4016 L557.2198 496.4037 L569.3854 481.9211 L580.8049 465.954 L589.6769 451.4475 L589.7234 451.3589" clip-path="url(#clipPath2)"/>
      <path d="M593.6406 444.3836 L583.4052 452.3983 L589.2338 452.2309 L592.1244 457.2949 Z" clip-path="url(#clipPath2)" stroke="none"/>
      <text x="403.4648" xml:space="preserve" y="580.944" clip-path="url(#clipPath2)" font-family="sans-serif" stroke="none">bizilekua</text>
      <path fill="none" d="M229.525 438.7682 L227.7096 438.826 L215.2779 437.9777 L203.5058 435.864 L192.3934 432.4849 L181.9407 427.8404 L172.1475 421.9306 L163.014 414.7554 L154.5402 406.3148 L146.726 396.6089 L139.5714 385.6376 L133.0765 373.4009 L130.4948 367.427" clip-path="url(#clipPath2)"/>
      <path d="M127.321 360.0835 L127.4919 373.0823 L130.8915 368.3449 L136.6713 369.1152 Z" clip-path="url(#clipPath2)" stroke="none"/>
      <text x="175.1812" xml:space="preserve" y="402.2786" clip-path="url(#clipPath2)" font-family="sans-serif" stroke="none">rdf:type</text>
      <path fill="none" d="M234.5896 543.9309 L221.7842 539.8314 L204.3044 532.4467 L188.4595 523.7966 L174.2494 513.8812 L161.6741 502.7004 L150.7337 490.2542 L141.4282 476.5426 L133.7576 461.5657 L127.7218 445.3234 L123.3208 427.8158 L120.5547 409.0428 L119.4235 389.0044 L119.917 368.13 L119.9264 368.0305" clip-path="url(#clipPath2)"/>
      <path d="M120.6504 360.0633 L114.5849 371.5616 L119.8359 369.0264 L124.5439 372.4666 Z" clip-path="url(#clipPath2)" stroke="none"/>
      <text x="97.49" xml:space="preserve" y="500.2225" clip-path="url(#clipPath2)" font-family="sans-serif" stroke="none">rdf:type</text>
      <path fill="none" d="M618.0406 414.9917 L623.824 408.4572 L629.4286 397.9029 L631.2969 387.3486 L629.4286 376.7943 L623.824 366.2401 L623.3427 365.6961" clip-path="url(#clipPath2)"/>
      <path d="M618.0406 359.7055 L622.2495 372.0053 L624.0054 366.445 L629.7379 365.3777 Z" clip-path="url(#clipPath2)" stroke="none"/>
      <text x="642.9275" xml:space="preserve" y="393.3607" clip-path="url(#clipPath2)" font-family="sans-serif" stroke="none">rdf:type</text>
    </g>
  </g>
</svg>
