<?xml version="1.0" encoding="UTF-8"?><svg xmlns="http://www.w3.org/2000/svg" xmlns:xlink="http://www.w3.org/1999/xlink" fill-opacity="1" color-rendering="auto" color-interpolation="auto" text-rendering="auto" stroke="black" stroke-linecap="square" width="517" stroke-miterlimit="10" shape-rendering="auto" stroke-opacity="1" fill="black" stroke-dasharray="none" font-weight="normal" stroke-width="1" height="279" font-family="'Dialog'" font-style="normal" stroke-linejoin="miter" font-size="12px" stroke-dashoffset="0" image-rendering="auto">
  <!--Generated by ySVG 2.6-->
  <defs id="genericDefs"/>
  <g>
    <defs id="defs1">
      <clipPath clipPathUnits="userSpaceOnUse" id="clipPath1">
        <path d="M0 0 L517 0 L517 279 L0 279 L0 0 Z"/>
      </clipPath>
      <clipPath clipPathUnits="userSpaceOnUse" id="clipPath2">
        <path d="M93 172 L610 172 L610 451 L93 451 L93 172 Z"/>
      </clipPath>
    </defs>
    <g fill="white" text-rendering="geometricPrecision" shape-rendering="geometricPrecision" transform="translate(-93,-172)" stroke="white">
      <rect x="93" width="517" height="279" y="172" clip-path="url(#clipPath2)" stroke="none"/>
    </g>
    <g text-rendering="geometricPrecision" stroke-miterlimit="1.45" stroke-dasharray="6,2" shape-rendering="geometricPrecision" transform="matrix(1,0,0,1,-93,-172)" stroke-linecap="butt">
      <ellipse rx="69" fill="none" ry="15" clip-path="url(#clipPath2)" cx="177.1191" cy="234.0314"/>
      <text x="150.7109" y="238.1857" clip-path="url(#clipPath2)" font-family="sans-serif" stroke-dasharray="none" stroke="none" xml:space="preserve">Subjektu</text>
      <ellipse rx="69" fill="none" ry="15" clip-path="url(#clipPath2)" cx="525.7617" cy="234.0314"/>
      <text x="502.2422" y="238.1857" clip-path="url(#clipPath2)" font-family="sans-serif" stroke-dasharray="none" stroke="none" xml:space="preserve">Objektu</text>
    </g>
    <g fill="rgb(255,204,0)" text-rendering="geometricPrecision" shape-rendering="geometricPrecision" transform="matrix(1,0,0,1,-93,-172)" stroke="rgb(255,204,0)">
      <ellipse rx="69" ry="15" clip-path="url(#clipPath2)" cx="177.1191" cy="294.0314" stroke="none"/>
    </g>
    <g text-rendering="geometricPrecision" stroke-miterlimit="1.45" shape-rendering="geometricPrecision" transform="matrix(1,0,0,1,-93,-172)" stroke-linecap="butt">
      <ellipse rx="69" fill="none" ry="15" clip-path="url(#clipPath2)" cx="177.1191" cy="294.0314"/>
      <text x="161.4424" xml:space="preserve" y="298.1857" clip-path="url(#clipPath2)" font-family="sans-serif" stroke="none">Mikel</text>
    </g>
    <g fill="rgb(255,204,0)" text-rendering="geometricPrecision" shape-rendering="geometricPrecision" transform="matrix(1,0,0,1,-93,-172)" stroke="rgb(255,204,0)">
      <ellipse rx="69" ry="15" clip-path="url(#clipPath2)" cx="525.7617" cy="294.0314" stroke="none"/>
    </g>
    <g text-rendering="geometricPrecision" stroke-miterlimit="1.45" shape-rendering="geometricPrecision" transform="matrix(1,0,0,1,-93,-172)" stroke-linecap="butt">
      <ellipse rx="69" fill="none" ry="15" clip-path="url(#clipPath2)" cx="525.7617" cy="294.0314"/>
      <text x="510.832" xml:space="preserve" y="298.1857" clip-path="url(#clipPath2)" font-family="sans-serif" stroke="none">Bilbo</text>
    </g>
    <g fill="rgb(255,204,0)" text-rendering="geometricPrecision" shape-rendering="geometricPrecision" transform="matrix(1,0,0,1,-93,-172)" stroke="rgb(255,204,0)">
      <ellipse rx="69" ry="15" clip-path="url(#clipPath2)" cx="177.1191" cy="360.1724" stroke="none"/>
    </g>
    <g text-rendering="geometricPrecision" stroke-miterlimit="1.45" shape-rendering="geometricPrecision" transform="matrix(1,0,0,1,-93,-172)" stroke-linecap="butt">
      <ellipse rx="69" fill="none" ry="15" clip-path="url(#clipPath2)" cx="177.1191" cy="360.1724"/>
      <text x="162.1895" xml:space="preserve" y="364.3268" clip-path="url(#clipPath2)" font-family="sans-serif" stroke="none">Bilbo</text>
    </g>
    <g fill="rgb(255,204,0)" text-rendering="geometricPrecision" shape-rendering="geometricPrecision" transform="matrix(1,0,0,1,-93,-172)" stroke="rgb(255,204,0)">
      <ellipse rx="69" ry="15" clip-path="url(#clipPath2)" cx="525.7617" cy="360.1724" stroke="none"/>
    </g>
    <g text-rendering="geometricPrecision" stroke-miterlimit="1.45" shape-rendering="geometricPrecision" transform="matrix(1,0,0,1,-93,-172)" stroke-linecap="butt">
      <ellipse rx="69" fill="none" ry="15" clip-path="url(#clipPath2)" cx="525.7617" cy="360.1724"/>
      <text x="504.334" xml:space="preserve" y="364.3268" clip-path="url(#clipPath2)" font-family="sans-serif" stroke="none">Bizkaia</text>
    </g>
    <g fill="rgb(255,204,0)" text-rendering="geometricPrecision" shape-rendering="geometricPrecision" transform="matrix(1,0,0,1,-93,-172)" stroke="rgb(255,204,0)">
      <ellipse rx="69" ry="15" clip-path="url(#clipPath2)" cx="177.1191" cy="420.1724" stroke="none"/>
    </g>
    <g text-rendering="geometricPrecision" stroke-miterlimit="1.45" shape-rendering="geometricPrecision" transform="matrix(1,0,0,1,-93,-172)" stroke-linecap="butt">
      <ellipse rx="69" fill="none" ry="15" clip-path="url(#clipPath2)" cx="177.1191" cy="420.1724"/>
      <text x="162.1895" xml:space="preserve" y="424.3268" clip-path="url(#clipPath2)" font-family="sans-serif" stroke="none">Bilbo</text>
    </g>
    <g fill="rgb(255,204,0)" text-rendering="geometricPrecision" shape-rendering="geometricPrecision" transform="matrix(1,0,0,1,-93,-172)" stroke="rgb(255,204,0)">
      <rect x="456.7617" width="56.7012" height="30" y="405.1724" clip-path="url(#clipPath2)" stroke="none"/>
    </g>
    <g text-rendering="geometricPrecision" stroke-miterlimit="1.45" shape-rendering="geometricPrecision" transform="matrix(1,0,0,1,-93,-172)" stroke-linecap="butt">
      <rect fill="none" x="456.7617" width="56.7012" height="30" y="405.1724" clip-path="url(#clipPath2)"/>
      <text x="466.0254" xml:space="preserve" y="424.3268" clip-path="url(#clipPath2)" font-family="sans-serif" stroke="none">40000</text>
      <path fill="none" d="M246.1449 234.0207 L272.4495 223.045 L298.7798 215.1976 L325.1101 210.4891 L351.4404 208.9196 L377.7708 210.4891 L404.1011 215.1976 L430.4314 223.045 L449.3529 230.9401" clip-path="url(#clipPath2)"/>
      <path d="M456.736 234.0207 L447.5868 224.7853 L448.43 230.555 L443.736 234.0142 Z" clip-path="url(#clipPath2)" stroke="none"/>
      <text x="323.3764" xml:space="preserve" y="200.5617" clip-path="url(#clipPath2)" font-family="sans-serif" stroke="none">Predikatu</text>
      <path fill="none" d="M246.1449 294.0207 L272.4495 283.045 L298.7798 275.1976 L325.1101 270.4891 L351.4404 268.9196 L377.7708 270.4891 L404.1011 275.1976 L430.4314 283.045 L449.3529 290.9401" clip-path="url(#clipPath2)"/>
      <path d="M456.736 294.0207 L447.5867 284.7853 L448.43 290.555 L443.736 294.0142 Z" clip-path="url(#clipPath2)" stroke="none"/>
      <text x="325.3305" xml:space="preserve" y="260.5617" clip-path="url(#clipPath2)" font-family="sans-serif" stroke="none">bizilekua</text>
      <path fill="none" d="M246.1449 360.1617 L272.4495 349.1861 L298.7798 341.3386 L325.1101 336.6302 L351.4404 335.0607 L377.7708 336.6302 L404.1011 341.3386 L430.4314 349.1861 L449.3529 357.0811" clip-path="url(#clipPath2)"/>
      <path d="M456.736 360.1617 L447.5867 350.9264 L448.43 356.696 L443.736 360.1552 Z" clip-path="url(#clipPath2)" stroke="none"/>
      <text x="326.9272" xml:space="preserve" y="326.7027" clip-path="url(#clipPath2)" font-family="sans-serif" stroke="none">zatia_da</text>
      <path fill="none" d="M246.1449 420.1617 L272.4495 409.1861 L298.7798 401.3386 L325.1101 396.6302 L351.4404 395.0607 L377.7708 396.6302 L404.1011 401.3386 L430.4314 409.1861 L449.3529 417.0811" clip-path="url(#clipPath2)"/>
      <path d="M456.736 420.1617 L447.5867 410.9264 L448.43 416.696 L443.736 420.1552 Z" clip-path="url(#clipPath2)" stroke="none"/>
      <text x="320.3091" xml:space="preserve" y="386.7027" clip-path="url(#clipPath2)" font-family="sans-serif" stroke="none">biztanleria</text>
    </g>
  </g>
</svg>
