<?xml version="1.0" encoding="UTF-8" standalone="no"?>
<!DOCTYPE svg PUBLIC "-//W3C//DTD SVG 1.1//EN"
 "http://www.w3.org/Graphics/SVG/1.1/DTD/svg11.dtd">
<!-- Generated by graphviz version 2.43.0 (0)
 -->
<!-- Title: RDF Pages: 1 -->
<svg width="376pt" height="260pt"
 viewBox="0.00 0.00 376.47 260.00" xmlns="http://www.w3.org/2000/svg" xmlns:xlink="http://www.w3.org/1999/xlink">
<g id="graph0" class="graph" transform="scale(1 1) rotate(0) translate(4 256)">
<title>RDF</title>
<!-- emp1 -->
<g id="node1" class="node">
<title>emp1</title>
<ellipse fill="#6ca6cd" stroke="black" cx="65.25" cy="-72" rx="65.01" ry="18"/>
<text text-anchor="middle" x="65.25" y="-68.9" font-family="Helvetica,sans-Serif" font-size="12.00" fill="white">ex:empleado/1</text>
</g>
<!-- clsEmp -->
<g id="node3" class="node">
<title>clsEmp</title>
<ellipse fill="#ffd700" stroke="black" cx="309.99" cy="-126" rx="58.46" ry="18"/>
<text text-anchor="middle" x="309.99" y="-122.9" font-family="Helvetica,sans-Serif" font-size="12.00">ex:Empleado</text>
</g>
<!-- emp1&#45;&gt;clsEmp -->
<g id="edge1" class="edge">
<title>emp1&#45;&gt;clsEmp</title>
<path fill="none" stroke="black" d="M116.55,-83.19C156.06,-91.98 211.09,-104.22 252.18,-113.36"/>
<polygon fill="black" stroke="black" points="251.53,-116.8 262.05,-115.56 253.05,-109.97 251.53,-116.8"/>
<text text-anchor="middle" x="191" y="-111" font-family="Helvetica,sans-Serif" font-size="10.00">a</text>
</g>
<!-- dept10 -->
<g id="node4" class="node">
<title>dept10</title>
<ellipse fill="#dda0dd" stroke="black" cx="309.99" cy="-18" rx="49.5" ry="18"/>
<text text-anchor="middle" x="309.99" y="-14.9" font-family="Helvetica,sans-Serif" font-size="12.00">ex:dept/10</text>
</g>
<!-- emp1&#45;&gt;dept10 -->
<g id="edge3" class="edge">
<title>emp1&#45;&gt;dept10</title>
<path fill="none" stroke="black" d="M116.55,-60.81C157.85,-51.62 216.12,-38.66 257.7,-29.41"/>
<polygon fill="black" stroke="black" points="258.62,-32.79 267.62,-27.2 257.1,-25.96 258.62,-32.79"/>
<text text-anchor="middle" x="191" y="-55" font-family="Helvetica,sans-Serif" font-size="10.00">ex:departamento</text>
</g>
<!-- ana -->
<g id="node6" class="node">
<title>ana</title>
<polygon fill="#98fb98" stroke="black" points="336.99,-90 282.99,-90 282.99,-54 336.99,-54 336.99,-90"/>
<text text-anchor="middle" x="309.99" y="-68.9" font-family="Helvetica,sans-Serif" font-size="12.00">&quot;Ana&quot;</text>
</g>
<!-- emp1&#45;&gt;ana -->
<g id="edge2" class="edge">
<title>emp1&#45;&gt;ana</title>
<path fill="none" stroke="black" d="M130.66,-72C175.92,-72 234.83,-72 272.29,-72"/>
<polygon fill="black" stroke="black" points="272.73,-75.5 282.73,-72 272.73,-68.5 272.73,-75.5"/>
<text text-anchor="middle" x="191" y="-75" font-family="Helvetica,sans-Serif" font-size="10.00">ex:nombre</text>
</g>
<!-- emp2 -->
<g id="node2" class="node">
<title>emp2</title>
<ellipse fill="#6ca6cd" stroke="black" cx="65.25" cy="-180" rx="65.01" ry="18"/>
<text text-anchor="middle" x="65.25" y="-176.9" font-family="Helvetica,sans-Serif" font-size="12.00" fill="white">ex:empleado/2</text>
</g>
<!-- emp2&#45;&gt;clsEmp -->
<g id="edge4" class="edge">
<title>emp2&#45;&gt;clsEmp</title>
<path fill="none" stroke="black" d="M116.55,-168.81C156.06,-160.02 211.09,-147.78 252.18,-138.64"/>
<polygon fill="black" stroke="black" points="253.05,-142.03 262.05,-136.44 251.53,-135.2 253.05,-142.03"/>
<text text-anchor="middle" x="191" y="-163" font-family="Helvetica,sans-Serif" font-size="10.00">a</text>
</g>
<!-- dept20 -->
<g id="node5" class="node">
<title>dept20</title>
<ellipse fill="#dda0dd" stroke="black" cx="309.99" cy="-234" rx="49.5" ry="18"/>
<text text-anchor="middle" x="309.99" y="-230.9" font-family="Helvetica,sans-Serif" font-size="12.00">ex:dept/20</text>
</g>
<!-- emp2&#45;&gt;dept20 -->
<g id="edge6" class="edge">
<title>emp2&#45;&gt;dept20</title>
<path fill="none" stroke="black" d="M116.55,-191.19C157.85,-200.38 216.12,-213.34 257.7,-222.59"/>
<polygon fill="black" stroke="black" points="257.1,-226.04 267.62,-224.8 258.62,-219.21 257.1,-226.04"/>
<text text-anchor="middle" x="191" y="-219" font-family="Helvetica,sans-Serif" font-size="10.00">ex:departamento</text>
</g>
<!-- luis -->
<g id="node7" class="node">
<title>luis</title>
<polygon fill="#98fb98" stroke="black" points="336.99,-198 282.99,-198 282.99,-162 336.99,-162 336.99,-198"/>
<text text-anchor="middle" x="309.99" y="-176.9" font-family="Helvetica,sans-Serif" font-size="12.00">&quot;Luis&quot;</text>
</g>
<!-- emp2&#45;&gt;luis -->
<g id="edge5" class="edge">
<title>emp2&#45;&gt;luis</title>
<path fill="none" stroke="black" d="M130.66,-180C175.92,-180 234.83,-180 272.29,-180"/>
<polygon fill="black" stroke="black" points="272.73,-183.5 282.73,-180 272.73,-176.5 272.73,-183.5"/>
<text text-anchor="middle" x="191" y="-183" font-family="Helvetica,sans-Serif" font-size="10.00">ex:nombre</text>
</g>
</g>
</svg>
