<?xml version="1.0" encoding="UTF-8"?><svg xmlns="http://www.w3.org/2000/svg" xmlns:xlink="http://www.w3.org/1999/xlink" fill-opacity="1" color-rendering="auto" color-interpolation="auto" text-rendering="auto" stroke="black" stroke-linecap="square" width="824" stroke-miterlimit="10" shape-rendering="auto" stroke-opacity="1" fill="black" stroke-dasharray="none" font-weight="normal" stroke-width="1" height="217" font-family="'Dialog'" font-style="normal" stroke-linejoin="miter" font-size="12px" stroke-dashoffset="0" image-rendering="auto">
  <!--Generated by ySVG 2.6-->
  <defs id="genericDefs"/>
  <g>
    <defs id="defs1">
      <clipPath clipPathUnits="userSpaceOnUse" id="clipPath1">
        <path d="M0 0 L824 0 L824 217 L0 217 L0 0 Z"/>
      </clipPath>
      <clipPath clipPathUnits="userSpaceOnUse" id="clipPath2">
        <path d="M300 170 L1124 170 L1124 387 L300 387 L300 170 Z"/>
      </clipPath>
    </defs>
    <g fill="white" text-rendering="geometricPrecision" shape-rendering="geometricPrecision" transform="translate(-300,-170)" stroke="white">
      <rect x="300" width="824" height="217" y="170" clip-path="url(#clipPath2)" stroke="none"/>
    </g>
    <g fill="rgb(255,204,0)" text-rendering="geometricPrecision" shape-rendering="geometricPrecision" transform="matrix(1,0,0,1,-300,-170)" stroke="rgb(255,204,0)">
      <rect x="817.9669" width="67" height="30" y="185.5728" clip-path="url(#clipPath2)" stroke="none"/>
    </g>
    <g text-rendering="geometricPrecision" stroke-miterlimit="1.45" shape-rendering="geometricPrecision" transform="matrix(1,0,0,1,-300,-170)" stroke-linecap="butt">
      <rect fill="none" x="817.9669" width="67" height="30" y="185.5728" clip-path="url(#clipPath2)"/>
      <text x="831.8673" xml:space="preserve" y="204.7271" clip-path="url(#clipPath2)" font-family="sans-serif" stroke="none">Denda</text>
    </g>
    <g fill="rgb(153,204,255)" text-rendering="geometricPrecision" shape-rendering="geometricPrecision" transform="matrix(1,0,0,1,-300,-170)" stroke="rgb(153,204,255)">
      <rect x="677.8585" width="72" height="30" y="258.3438" clip-path="url(#clipPath2)" stroke="none"/>
    </g>
    <g text-rendering="geometricPrecision" stroke-miterlimit="1.45" shape-rendering="geometricPrecision" transform="matrix(1,0,0,1,-300,-170)" stroke-linecap="butt">
      <rect fill="none" x="677.8585" width="72" height="30" y="258.3438" clip-path="url(#clipPath2)"/>
      <text x="685.921" xml:space="preserve" y="277.4981" clip-path="url(#clipPath2)" font-family="sans-serif" stroke="none">Bezeroak</text>
    </g>
    <g fill="rgb(153,204,255)" text-rendering="geometricPrecision" shape-rendering="geometricPrecision" transform="matrix(1,0,0,1,-300,-170)" stroke="rgb(153,204,255)">
      <rect x="960.001" width="67" height="30" y="258.3438" clip-path="url(#clipPath2)" stroke="none"/>
    </g>
    <g text-rendering="geometricPrecision" stroke-miterlimit="1.45" shape-rendering="geometricPrecision" transform="matrix(1,0,0,1,-300,-170)" stroke-linecap="butt">
      <rect fill="none" x="960.001" width="67" height="30" y="258.3438" clip-path="url(#clipPath2)"/>
      <text x="968.1475" xml:space="preserve" y="277.4981" clip-path="url(#clipPath2)" font-family="sans-serif" stroke="none">Eskariak</text>
    </g>
    <g fill="rgb(153,204,0)" text-rendering="geometricPrecision" shape-rendering="geometricPrecision" transform="matrix(1,0,0,1,-300,-170)" stroke="rgb(153,204,0)">
      <rect x="479.2131" width="216.9282" height="30" y="341.4922" clip-path="url(#clipPath2)" stroke="none"/>
    </g>
    <g text-rendering="geometricPrecision" stroke-miterlimit="1.45" shape-rendering="geometricPrecision" transform="matrix(1,0,0,1,-300,-170)" stroke-linecap="butt">
      <rect fill="none" x="479.2131" width="216.9282" height="30" y="341.4922" clip-path="url(#clipPath2)"/>
      <text x="489.4741" xml:space="preserve" y="360.6465" clip-path="url(#clipPath2)" font-family="sans-serif" stroke="none">{izena: "Mikel", NAN:12345678}</text>
    </g>
    <g fill="rgb(153,204,0)" text-rendering="geometricPrecision" shape-rendering="geometricPrecision" transform="matrix(1,0,0,1,-300,-170)" stroke="rgb(153,204,0)">
      <rect x="723.8615" width="121.3155" height="30" y="341.4922" clip-path="url(#clipPath2)" stroke="none"/>
    </g>
    <g text-rendering="geometricPrecision" stroke-miterlimit="1.45" shape-rendering="geometricPrecision" transform="matrix(1,0,0,1,-300,-170)" stroke-linecap="butt">
      <rect fill="none" x="723.8615" width="121.3155" height="30" y="341.4922" clip-path="url(#clipPath2)"/>
      <text x="742.2057" xml:space="preserve" y="360.6465" clip-path="url(#clipPath2)" font-family="sans-serif" stroke="none">{izena: "Jon"}</text>
    </g>
    <g fill="rgb(153,204,0)" text-rendering="geometricPrecision" shape-rendering="geometricPrecision" transform="matrix(1,0,0,1,-300,-170)" stroke="rgb(153,204,0)">
      <rect x="895.5887" width="67" height="30" y="341.4922" clip-path="url(#clipPath2)" stroke="none"/>
    </g>
    <g text-rendering="geometricPrecision" stroke-miterlimit="1.45" shape-rendering="geometricPrecision" transform="matrix(1,0,0,1,-300,-170)" stroke-linecap="butt">
      <rect fill="none" x="895.5887" width="67" height="30" y="341.4922" clip-path="url(#clipPath2)"/>
      <text x="911.9178" xml:space="preserve" y="360.6465" clip-path="url(#clipPath2)" font-family="sans-serif" stroke="none">{ ... }</text>
    </g>
    <g fill="rgb(153,204,0)" text-rendering="geometricPrecision" shape-rendering="geometricPrecision" transform="matrix(1,0,0,1,-300,-170)" stroke="rgb(153,204,0)">
      <rect x="1047.7605" width="61.1547" height="30" y="341.4922" clip-path="url(#clipPath2)" stroke="none"/>
    </g>
    <g text-rendering="geometricPrecision" stroke-miterlimit="1.45" shape-rendering="geometricPrecision" transform="matrix(1,0,0,1,-300,-170)" stroke-linecap="butt">
      <rect fill="none" x="1047.7605" width="61.1547" height="30" y="341.4922" clip-path="url(#clipPath2)"/>
      <text x="1061.1669" xml:space="preserve" y="360.6465" clip-path="url(#clipPath2)" font-family="sans-serif" stroke="none">{ ... }</text>
      <text x="336.8099" xml:space="preserve" y="204.7271" clip-path="url(#clipPath2)" font-family="sans-serif" stroke="none">Datu basea</text>
      <text x="337.3981" xml:space="preserve" y="277.4981" clip-path="url(#clipPath2)" font-family="sans-serif" stroke="none">Bildumak</text>
      <text x="323.2418" xml:space="preserve" y="360.6465" clip-path="url(#clipPath2)" font-family="sans-serif" stroke="none">Dokumentuak</text>
      <path fill="none" d="M851.4669 215.5728 L851.4669 239.8725 L713.8585 239.8725 L713.8585 258.3438" clip-path="url(#clipPath2)"/>
      <path fill="none" d="M851.4669 215.5728 L851.4669 239.8725 L993.501 239.8725 L993.501 258.3438" clip-path="url(#clipPath2)"/>
      <path fill="none" d="M713.8585 288.3438 L713.8585 308.3615 L587.6772 308.3615 L587.6772 341.4922" clip-path="url(#clipPath2)"/>
      <path fill="none" d="M713.8585 288.3438 L713.8585 308.3615 L784.5192 308.3615 L784.5192 341.4922" clip-path="url(#clipPath2)"/>
      <path fill="none" d="M993.501 288.3438 L993.501 304.5661 L929.0887 304.5661 L929.0887 341.4922" clip-path="url(#clipPath2)"/>
      <path fill="none" d="M993.501 288.3438 L993.501 304.5661 L1078.3378 304.5661 L1078.3378 341.4922" clip-path="url(#clipPath2)"/>
    </g>
  </g>
</svg>
